  0
SECTION
  2
HEADER
  9
$ACADVER
  1
AC1012
  9
$DWGCODEPAGE
  3
dos932
  9
$INSBASE
 10
0.0
 20
0.0
 30
0.0
  9
$EXTMIN
 10
-77.38153867671053
 20
-65.89046581944763
 30
-0.0000000000112498
  9
$EXTMAX
 10
167.3656151744515
 20
82.98562447493322
 30
0.0000000000002956
  9
$LIMMIN
 10
0.0
 20
0.0
  9
$LIMMAX
 10
12.0
 20
9.0
  9
$ORTHOMODE
 70
     0
  9
$REGENMODE
 70
     1
  9
$FILLMODE
 70
     1
  9
$QTEXTMODE
 70
     0
  9
$MIRRTEXT
 70
     1
  9
$DRAGMODE
 70
     2
  9
$LTSCALE
 40
1.0
  9
$OSMODE
 70
   447
  9
$ATTMODE
 70
     1
  9
$TEXTSIZE
 40
3.0
  9
$TRACEWID
 40
0.05
  9
$TEXTSTYLE
  7
STANDARD
  9
$CLAYER
  8
0
  9
$CELTYPE
  6
BYLAYER
  9
$CECOLOR
 62
   256
  9
$CELTSCALE
 40
1.0
  9
$DELOBJ
 70
     1
  9
$DISPSILH
 70
     0
  9
$DIMSCALE
 40
1.0
  9
$DIMASZ
 40
3.0
  9
$DIMEXO
 40
0.5
  9
$DIMDLI
 40
8.0
  9
$DIMRND
 40
0.0
  9
$DIMDLE
 40
0.0
  9
$DIMEXE
 40
1.5
  9
$DIMTP
 40
0.0
  9
$DIMTM
 40
0.0
  9
$DIMTXT
 40
2.2
  9
$DIMCEN
 40
5.0
  9
$DIMTSZ
 40
0.0
  9
$DIMTOL
 70
     0
  9
$DIMLIM
 70
     0
  9
$DIMTIH
 70
     0
  9
$DIMTOH
 70
     0
  9
$DIMSE1
 70
     0
  9
$DIMSE2
 70
     0
  9
$DIMTAD
 70
     1
  9
$DIMZIN
 70
     8
  9
$DIMBLK
  1
OPEN30
  9
$DIMASO
 70
     1
  9
$DIMSHO
 70
     1
  9
$DIMPOST
  1

  9
$DIMAPOST
  1

  9
$DIMALT
 70
     0
  9
$DIMALTD
 70
     2
  9
$DIMALTF
 40
25.4
  9
$DIMLFAC
 40
1.0
  9
$DIMTOFL
 70
     1
  9
$DIMTVP
 40
0.0
  9
$DIMTIX
 70
     0
  9
$DIMSOXD
 70
     0
  9
$DIMSAH
 70
     0
  9
$DIMBLK1
  1

  9
$DIMBLK2
  1

  9
$DIMSTYLE
  2
STANDARD
  9
$DIMCLRD
 70
   256
  9
$DIMCLRE
 70
   256
  9
$DIMCLRT
 70
   256
  9
$DIMTFAC
 40
1.0
  9
$DIMGAP
 40
0.8
  9
$DIMJUST
 70
     0
  9
$DIMSD1
 70
     0
  9
$DIMSD2
 70
     0
  9
$DIMTOLJ
 70
     1
  9
$DIMTZIN
 70
     0
  9
$DIMALTZ
 70
     0
  9
$DIMALTTZ
 70
     0
  9
$DIMFIT
 70
     1
  9
$DIMUPT
 70
     0
  9
$DIMUNIT
 70
     2
  9
$DIMDEC
 70
     4
  9
$DIMTDEC
 70
     4
  9
$DIMALTU
 70
     2
  9
$DIMALTTD
 70
     2
  9
$DIMTXSTY
  7
STANDARD
  9
$DIMAUNIT
 70
     0
  9
$LUNITS
 70
     2
  9
$LUPREC
 70
     2
  9
$SKETCHINC
 40
0.1
  9
$FILLETRAD
 40
0.0
  9
$AUNITS
 70
     0
  9
$AUPREC
 70
     2
  9
$MENU
  1
acad
  9
$ELEVATION
 40
0.0
  9
$PELEVATION
 40
0.0
  9
$THICKNESS
 40
0.0
  9
$LIMCHECK
 70
     0
  9
$BLIPMODE
 70
     0
  9
$CHAMFERA
 40
0.0
  9
$CHAMFERB
 40
0.0
  9
$CHAMFERC
 40
0.0
  9
$CHAMFERD
 40
0.0
  9
$SKPOLY
 70
     0
  9
$TDCREATE
 40
2460696.851809259
  9
$TDUPDATE
 40
2460702.615585566
  9
$TDINDWG
 40
0.3954806829
  9
$TDUSRTIMER
 40
0.3954806829
  9
$USRTIMER
 70
     1
  9
$ANGBASE
 50
0.0
  9
$ANGDIR
 70
     0
  9
$PDMODE
 70
     0
  9
$PDSIZE
 40
0.0
  9
$PLINEWID
 40
0.0
  9
$COORDS
 70
     0
  9
$SPLFRAME
 70
     0
  9
$SPLINETYPE
 70
     6
  9
$SPLINESEGS
 70
     8
  9
$ATTDIA
 70
     0
  9
$ATTREQ
 70
     1
  9
$HANDLING
 70
     1
  9
$HANDSEED
  5
16FC
  9
$SURFTAB1
 70
     6
  9
$SURFTAB2
 70
     6
  9
$SURFTYPE
 70
     6
  9
$SURFU
 70
     6
  9
$SURFV
 70
     6
  9
$UCSNAME
  2

  9
$UCSORG
 10
0.0
 20
0.0
 30
0.0
  9
$UCSXDIR
 10
1.0
 20
0.0
 30
0.0
  9
$UCSYDIR
 10
0.0
 20
1.0
 30
0.0
  9
$PUCSNAME
  2

  9
$PUCSORG
 10
0.0
 20
0.0
 30
0.0
  9
$PUCSXDIR
 10
1.0
 20
0.0
 30
0.0
  9
$PUCSYDIR
 10
0.0
 20
1.0
 30
0.0
  9
$USERI1
 70
     0
  9
$USERI2
 70
     0
  9
$USERI3
 70
     0
  9
$USERI4
 70
     0
  9
$USERI5
 70
     0
  9
$USERR1
 40
0.0
  9
$USERR2
 40
0.0
  9
$USERR3
 40
0.0
  9
$USERR4
 40
0.0
  9
$USERR5
 40
0.0
  9
$WORLDVIEW
 70
     1
  9
$SHADEDGE
 70
     3
  9
$SHADEDIF
 70
    70
  9
$TILEMODE
 70
     1
  9
$MAXACTVP
 70
    16
  9
$PINSBASE
 10
0.0
 20
0.0
 30
0.0
  9
$PLIMCHECK
 70
     0
  9
$PEXTMIN
 10
1.000000000000000E+20
 20
1.000000000000000E+20
 30
1.000000000000000E+20
  9
$PEXTMAX
 10
-1.000000000000000E+20
 20
-1.000000000000000E+20
 30
-1.000000000000000E+20
  9
$PLIMMIN
 10
0.0
 20
0.0
  9
$PLIMMAX
 10
12.0
 20
9.0
  9
$UNITMODE
 70
     0
  9
$VISRETAIN
 70
     0
  9
$PLINEGEN
 70
     0
  9
$PSLTSCALE
 70
     1
  9
$TREEDEPTH
 70
  3020
  9
$PICKSTYLE
 70
     1
  9
$CMLSTYLE
  2
STANDARD
  9
$CMLJUST
 70
     0
  9
$CMLSCALE
 40
1.0
  9
$SAVEIMAGES
 70
     1
  0
ENDSEC
  0
SECTION
  2
CLASSES
  0
CLASS
  1
ACDBDICTIONARYWDFLT
  2
AcDbDictionaryWithDefault
  3
AutoCAD 2000
 90
    32768
280
     0
281
     0
  0
CLASS
  1
ACDBPLACEHOLDER
  2
AcDbPlaceHolder
  3
AutoCAD 2000
 90
    32768
280
     0
281
     0
  0
CLASS
  1
LAYOUT
  2
AcDbLayout
  3
AutoCAD 2000
 90
    32768
280
     0
281
     0
  0
CLASS
  1
DICTIONARYVAR
  2
AcDbDictionaryVar
  3
AutoCAD 2000
 90
    32768
280
     0
281
     0
  0
CLASS
  1
LONG_TRANSACTION
  2
AcDbLongTransaction
  3
AutoCAD 2000
 90
    32768
280
     0
281
     0
  0
CLASS
  1
LWPOLYLINE
  2
AcDbPolyline
  3
AutoCAD 2000
 90
    32768
280
     0
281
     1
  0
CLASS
  1
HATCH
  2
AcDbHatch
  3
AutoCAD 2000
 90
    32768
280
     0
281
     1
  0
CLASS
  1
XRECORD
  2
AcDbXrecord
  3
AutoCAD 2000
 90
    32768
280
     0
281
     0
  0
ENDSEC
  0
SECTION
  2
TABLES
  0
TABLE
  2
VPORT
  5
8
330
0
100
AcDbSymbolTable
 70
     3
  0
VPORT
  5
16A9
330
8
100
AcDbSymbolTableRecord
100
AcDbViewportTableRecord
  2
*ACTIVE
 70
     0
 10
0.0
 20
0.0
 11
1.0
 21
1.0
 12
44.99203824887051
 22
8.547579327742795
 13
0.0
 23
0.0
 14
1.0
 24
1.0
 15
0.0
 25
0.0
 16
0.0
 26
0.0
 36
1.0
 17
0.0
 27
0.0
 37
0.0
 40
152.3562629662298
 41
1.616871704745167
 42
50.0
 43
0.0
 44
0.0
 50
0.0
 51
0.0
 71
     0
 72
   100
 73
     1
 74
     1
 75
     0
 76
     0
 77
     0
 78
     0
  0
ENDTAB
  0
TABLE
  2
LTYPE
  5
5
330
0
100
AcDbSymbolTable
 70
     4
  0
LTYPE
  5
11
330
5
100
AcDbSymbolTableRecord
100
AcDbLinetypeTableRecord
  2
BYBLOCK
 70
     0
  3

 72
    65
 73
     0
 40
0.0
  0
LTYPE
  5
12
330
5
100
AcDbSymbolTableRecord
100
AcDbLinetypeTableRecord
  2
BYLAYER
 70
     0
  3

 72
    65
 73
     0
 40
0.0
  0
LTYPE
  5
13
330
5
100
AcDbSymbolTableRecord
100
AcDbLinetypeTableRecord
  2
CONTINUOUS
 70
     0
  3
Solid line
 72
    65
 73
     0
 40
0.0
  0
LTYPE
  5
1D
330
5
100
AcDbSymbolTableRecord
100
AcDbLinetypeTableRecord
  2
CENTER
 70
     0
  3
____ _ ____ _ ____ _ ____ _ ____ _ ____ _ ____ 
 72
    65
 73
     4
 40
2.0
 49
1.25
 74
     0
 49
-0.25
 74
     0
 49
0.25
 74
     0
 49
-0.25
 74
     0
  0
LTYPE
  5
1E
330
5
100
AcDbSymbolTableRecord
100
AcDbLinetypeTableRecord
  2
PHANTOM
 70
     0
  3
______  __  __  ______  __  __  ______  __  __ 
 72
    65
 73
     6
 40
2.5
 49
1.25
 74
     0
 49
-0.25
 74
     0
 49
0.25
 74
     0
 49
-0.25
 74
     0
 49
0.25
 74
     0
 49
-0.25
 74
     0
  0
LTYPE
  5
1F
330
5
100
AcDbSymbolTableRecord
100
AcDbLinetypeTableRecord
  2
DASHED
 70
     0
  3
__ __ __ __ __ __ __ __ __ __ __ __ __ __ __ __
 72
    65
 73
     2
 40
0.75
 49
0.5
 74
     0
 49
-0.25
 74
     0
  0
ENDTAB
  0
TABLE
  2
LAYER
  5
2
330
0
100
AcDbSymbolTable
 70
    11
  0
LAYER
  5
E
330
2
100
AcDbSymbolTableRecord
100
AcDbLayerTableRecord
  2
0
 70
     0
 62
     7
  6
CONTINUOUS
  0
LAYER
  5
23
330
2
100
AcDbSymbolTableRecord
100
AcDbLayerTableRecord
  2
Z_OM_OUTLINE
 70
     0
 62
     7
  6
CONTINUOUS
  0
LAYER
  5
24
330
2
100
AcDbSymbolTableRecord
100
AcDbLayerTableRecord
  2
Z_OM_MOUNT
 70
     0
 62
     7
  6
CONTINUOUS
  0
LAYER
  5
25
330
2
100
AcDbSymbolTableRecord
100
AcDbLayerTableRecord
  2
Z_OM_NOTE
 70
     0
 62
     4
  6
CONTINUOUS
  0
LAYER
  5
26
330
2
100
AcDbSymbolTableRecord
100
AcDbLayerTableRecord
  2
Z_OM_CENTER
 70
     0
 62
     2
  6
CENTER
  0
LAYER
  5
27
330
2
100
AcDbSymbolTableRecord
100
AcDbLayerTableRecord
  2
Z_OM_DIM
 70
     0
 62
     4
  6
CONTINUOUS
  0
LAYER
  5
28
330
2
100
AcDbSymbolTableRecord
100
AcDbLayerTableRecord
  2
Z_OM_PHANTOM
 70
     0
 62
     3
  6
PHANTOM
  0
LAYER
  5
29
330
2
100
AcDbSymbolTableRecord
100
AcDbLayerTableRecord
  2
Z_OM_DASHED
 70
     0
 62
     2
  6
DASHED
  0
LAYER
  5
2A
330
2
100
AcDbSymbolTableRecord
100
AcDbLayerTableRecord
  2
Z_OM_BRACKET
 70
     0
 62
     3
  6
CONTINUOUS
  0
LAYER
  5
2B
330
2
100
AcDbSymbolTableRecord
100
AcDbLayerTableRecord
  2
DEFPOINTS
 70
     0
 62
     7
  6
CONTINUOUS
  0
LAYER
  5
983
330
2
100
AcDbSymbolTableRecord
100
AcDbLayerTableRecord
  2
Z_OM_THIN_LINE
 70
     0
 62
     2
  6
CONTINUOUS
  0
ENDTAB
  0
TABLE
  2
STYLE
  5
3
330
0
100
AcDbSymbolTable
 70
     1
  0
STYLE
  5
F
330
3
100
AcDbSymbolTableRecord
100
AcDbTextStyleTableRecord
  2
STANDARD
 70
     0
 40
0.0
 41
1.08
 50
0.0
 71
     0
 42
3.0
  3
txt.shx
  4
bigfont.shx
  0
ENDTAB
  0
TABLE
  2
VIEW
  5
6
330
0
100
AcDbSymbolTable
 70
     0
  0
ENDTAB
  0
TABLE
  2
UCS
  5
7
330
0
100
AcDbSymbolTable
 70
     0
  0
ENDTAB
  0
TABLE
  2
APPID
  5
9
330
0
100
AcDbSymbolTable
 70
     1
  0
APPID
  5
10
330
9
100
AcDbSymbolTableRecord
100
AcDbRegAppTableRecord
  2
ACAD
 70
     0
  0
ENDTAB
  0
TABLE
  2
DIMSTYLE
  5
A
330
0
100
AcDbSymbolTable
 70
     1
  0
DIMSTYLE
105
30
102
{ACAD_REACTORS
330
C0C
330
C0E
330
C0F
330
C10
330
C11
330
C5D
330
C5E
330
CC5
330
CC6
330
D2A
330
D2B
330
D2C
330
D2D
330
D2E
330
D30
330
C63
330
C62
330
C61
330
12FE
330
1338
330
11B9
330
130D
330
11C2
330
131C
330
141B
330
15C2
330
C5F
102
}
330
A
100
AcDbSymbolTableRecord
100
AcDbDimStyleTableRecord
  2
STANDARD
 70
     0
  3

  4

  5
OPEN30
  6

  7

 40
1.0
 41
3.0
 42
0.5
 43
8.0
 44
1.5
 45
0.0
 46
0.0
 47
0.0
 48
0.0
140
2.2
141
5.0
142
0.0
143
25.4
144
1.0
145
0.0
146
1.0
147
0.8
 71
     0
 72
     0
 73
     0
 74
     0
 75
     0
 76
     0
 77
     1
 78
     8
170
     0
171
     2
172
     1
173
     0
174
     0
175
     0
176
   256
177
   256
178
   256
270
     2
271
     4
272
     4
273
     2
274
     2
340
F
275
     0
280
     0
281
     0
282
     0
283
     1
284
     0
285
     0
286
     0
287
     1
288
     0
  0
ENDTAB
  0
TABLE
  2
BLOCK_RECORD
  5
1
330
0
100
AcDbSymbolTable
 70
    29
  0
BLOCK_RECORD
  5
17
102
{ACAD_XDICTIONARY
360
16AC
102
}
330
1
100
AcDbSymbolTableRecord
100
AcDbBlockTableRecord
  2
*MODEL_SPACE
  0
BLOCK_RECORD
  5
14
102
{ACAD_XDICTIONARY
360
16AA
102
}
330
1
100
AcDbSymbolTableRecord
100
AcDbBlockTableRecord
  2
*PAPER_SPACE
  0
BLOCK_RECORD
  5
977
330
1
100
AcDbSymbolTableRecord
100
AcDbBlockTableRecord
  2
_OPEN30
  0
BLOCK_RECORD
  5
D5D
330
1
100
AcDbSymbolTableRecord
100
AcDbBlockTableRecord
  2
*D1
  0
BLOCK_RECORD
  5
D6A
330
1
100
AcDbSymbolTableRecord
100
AcDbBlockTableRecord
  2
*D2
  0
BLOCK_RECORD
  5
D77
330
1
100
AcDbSymbolTableRecord
100
AcDbBlockTableRecord
  2
*D3
  0
BLOCK_RECORD
  5
D83
330
1
100
AcDbSymbolTableRecord
100
AcDbBlockTableRecord
  2
*D4
  0
BLOCK_RECORD
  5
D90
330
1
100
AcDbSymbolTableRecord
100
AcDbBlockTableRecord
  2
*D5
  0
BLOCK_RECORD
  5
DAA
330
1
100
AcDbSymbolTableRecord
100
AcDbBlockTableRecord
  2
*D6
  0
BLOCK_RECORD
  5
DB7
330
1
100
AcDbSymbolTableRecord
100
AcDbBlockTableRecord
  2
*D7
  0
BLOCK_RECORD
  5
DD1
330
1
100
AcDbSymbolTableRecord
100
AcDbBlockTableRecord
  2
*D8
  0
BLOCK_RECORD
  5
DDE
330
1
100
AcDbSymbolTableRecord
100
AcDbBlockTableRecord
  2
*D9
  0
BLOCK_RECORD
  5
DEB
330
1
100
AcDbSymbolTableRecord
100
AcDbBlockTableRecord
  2
*D10
  0
BLOCK_RECORD
  5
DF7
330
1
100
AcDbSymbolTableRecord
100
AcDbBlockTableRecord
  2
*D11
  0
BLOCK_RECORD
  5
E04
330
1
100
AcDbSymbolTableRecord
100
AcDbBlockTableRecord
  2
*D12
  0
BLOCK_RECORD
  5
E11
330
1
100
AcDbSymbolTableRecord
100
AcDbBlockTableRecord
  2
*D13
  0
BLOCK_RECORD
  5
E1E
330
1
100
AcDbSymbolTableRecord
100
AcDbBlockTableRecord
  2
*D14
  0
BLOCK_RECORD
  5
E3A
330
1
100
AcDbSymbolTableRecord
100
AcDbBlockTableRecord
  2
*D15
  0
BLOCK_RECORD
  5
E48
330
1
100
AcDbSymbolTableRecord
100
AcDbBlockTableRecord
  2
*D16
  0
BLOCK_RECORD
  5
E55
330
1
100
AcDbSymbolTableRecord
100
AcDbBlockTableRecord
  2
*D17
  0
BLOCK_RECORD
  5
E63
330
1
100
AcDbSymbolTableRecord
100
AcDbBlockTableRecord
  2
*D18
  0
BLOCK_RECORD
  5
E71
330
1
100
AcDbSymbolTableRecord
100
AcDbBlockTableRecord
  2
*D19
  0
BLOCK_RECORD
  5
1082
330
1
100
AcDbSymbolTableRecord
100
AcDbBlockTableRecord
  2
_DOTSMALL
  0
BLOCK_RECORD
  5
1209
330
1
100
AcDbSymbolTableRecord
100
AcDbBlockTableRecord
  2
*D21
  0
BLOCK_RECORD
  5
1223
330
1
100
AcDbSymbolTableRecord
100
AcDbBlockTableRecord
  2
*D22
  0
BLOCK_RECORD
  5
12FF
330
1
100
AcDbSymbolTableRecord
100
AcDbBlockTableRecord
  2
*D23
  0
BLOCK_RECORD
  5
130E
330
1
100
AcDbSymbolTableRecord
100
AcDbBlockTableRecord
  2
*D24
  0
BLOCK_RECORD
  5
131D
330
1
100
AcDbSymbolTableRecord
100
AcDbBlockTableRecord
  2
*D25
  0
BLOCK_RECORD
  5
1339
330
1
100
AcDbSymbolTableRecord
100
AcDbBlockTableRecord
  2
*D26
  0
BLOCK_RECORD
  5
141C
330
1
100
AcDbSymbolTableRecord
100
AcDbBlockTableRecord
  2
*D27
  0
BLOCK_RECORD
  5
15C3
330
1
100
AcDbSymbolTableRecord
100
AcDbBlockTableRecord
  2
*D28
  0
ENDTAB
  0
ENDSEC
  0
SECTION
  2
BLOCKS
  0
BLOCK
  5
2E
330
17
100
AcDbEntity
  8
0
100
AcDbBlockBegin
  2
*MODEL_SPACE
 70
     0
 10
0.0
 20
0.0
 30
0.0
  3
*MODEL_SPACE
  1

  0
ENDBLK
  5
2F
330
17
100
AcDbEntity
  8
0
100
AcDbBlockEnd
  0
BLOCK
  5
2C
330
14
100
AcDbEntity
 67
     1
  8
0
100
AcDbBlockBegin
  2
*PAPER_SPACE
 70
     0
 10
0.0
 20
0.0
 30
0.0
  3
*PAPER_SPACE
  1

  0
ENDBLK
  5
2D
330
14
100
AcDbEntity
 67
     1
  8
0
100
AcDbBlockEnd
  0
BLOCK
  5
97B
330
977
100
AcDbEntity
  8
0
100
AcDbBlockBegin
  2
_OPEN30
 70
     0
 10
0.0
 20
0.0
 30
0.0
  3
_OPEN30
  1

  0
LINE
  5
978
330
977
100
AcDbEntity
  8
0
  6
BYBLOCK
 62
     0
100
AcDbLine
 10
-1.0
 20
0.26794919
 30
0.0
 11
0.0
 21
0.0
 31
0.0
  0
LINE
  5
979
330
977
100
AcDbEntity
  8
0
  6
BYBLOCK
 62
     0
100
AcDbLine
 10
0.0
 20
0.0
 30
0.0
 11
-1.0
 21
-0.26794919
 31
0.0
  0
LINE
  5
97A
330
977
100
AcDbEntity
  8
0
  6
BYBLOCK
 62
     0
100
AcDbLine
 10
0.0
 20
0.0
 30
0.0
 11
-1.0
 21
0.0
 31
0.0
  0
ENDBLK
  5
97C
330
977
100
AcDbEntity
  8
0
100
AcDbBlockEnd
  0
BLOCK
  5
D68
330
D5D
100
AcDbEntity
  8
0
100
AcDbBlockBegin
  2
*D1
 70
     1
 10
0.0
 20
0.0
 30
0.0
  3
*D1
  1

  0
LINE
  5
1043
330
D5D
100
AcDbEntity
  8
Z_OM_DIM
100
AcDbLine
 10
-8.165000000000006
 20
1.850000000000008
 30
0.0
 11
-8.165000000000006
 21
14.81597696642099
 31
0.0
  0
LINE
  5
1044
330
D5D
100
AcDbEntity
  8
Z_OM_DIM
100
AcDbLine
 10
8.165000000000006
 20
1.850000000000008
 30
0.0
 11
8.165000000000006
 21
14.81597696642099
 31
0.0
  0
LINE
  5
1045
330
D5D
100
AcDbEntity
  8
Z_OM_DIM
100
AcDbLine
 10
-5.165000000000006
 20
13.31597696642099
 30
0.0
 11
5.165000000000006
 21
13.31597696642099
 31
0.0
  0
INSERT
  5
1046
330
D5D
100
AcDbEntity
  8
Z_OM_DIM
100
AcDbBlockReference
  2
_OPEN30
 10
-8.165000000000006
 20
13.31597696642099
 30
0.0
 41
3.0
 42
3.0
 43
3.0
 50
180.0
  0
INSERT
  5
1047
330
D5D
100
AcDbEntity
  8
Z_OM_DIM
100
AcDbBlockReference
  2
_OPEN30
 10
8.165000000000006
 20
13.31597696642099
 30
0.0
 41
3.0
 42
3.0
 43
3.0
  0
MTEXT
  5
1048
330
D5D
100
AcDbEntity
  8
Z_OM_DIM
100
AcDbMText
 10
0.0000000000000001
 20
15.21597696642099
 30
0.0
 40
2.2
 41
0.0
 71
     5
 72
     1
  1
\A1;16.33
1001
ACAD
1000
MTEXTBEGIN
1070
    73
1070
     1
1070
    44
1040
1.0
1070
    74
1070
     0
1000
MTEXTEND
  0
POINT
  5
1049
330
D5D
100
AcDbEntity
  8
DEFPOINTS
 62
     0
100
AcDbPoint
 10
-8.165000000000006
 20
1.350000000000008
 30
0.0
  0
POINT
  5
104A
330
D5D
100
AcDbEntity
  8
DEFPOINTS
 62
     0
100
AcDbPoint
 10
8.165000000000006
 20
1.350000000000008
 30
0.0
  0
POINT
  5
104B
330
D5D
100
AcDbEntity
  8
DEFPOINTS
 62
     0
100
AcDbPoint
 10
8.165000000000006
 20
13.31597696642099
 30
0.0
  0
ENDBLK
  5
D69
330
D5D
100
AcDbEntity
  8
0
100
AcDbBlockEnd
  0
BLOCK
  5
D75
330
D6A
100
AcDbEntity
  8
0
100
AcDbBlockBegin
  2
*D2
 70
     1
 10
0.0
 20
0.0
 30
0.0
  3
*D2
  1

  0
LINE
  5
105E
330
D6A
100
AcDbEntity
  8
Z_OM_DIM
100
AcDbLine
 10
-6.064999999999997
 20
3.950000000000002
 30
0.0
 11
-23.76761799790333
 21
3.950000000000008
 31
0.0
  0
LINE
  5
105F
330
D6A
100
AcDbEntity
  8
Z_OM_DIM
100
AcDbLine
 10
-5.588917152087134
 20
-3.949999999999988
 30
0.0
 11
-23.76761799790333
 21
-3.949999999999983
 31
0.0
  0
LINE
  5
1060
330
D6A
100
AcDbEntity
  8
Z_OM_DIM
100
AcDbLine
 10
-22.26761799790332
 20
-6.949999999999983
 30
0.0
 11
-22.26761799790333
 21
-9.949999999999983
 31
0.0
  0
LINE
  5
1061
330
D6A
100
AcDbEntity
  8
Z_OM_DIM
100
AcDbLine
 10
-22.26761799790332
 20
6.950000000000008
 30
0.0
 11
-22.26761799790332
 21
16.302
 31
0.0
  0
LINE
  5
1062
330
D6A
100
AcDbEntity
  8
Z_OM_DIM
100
AcDbLine
 10
-22.26761799790332
 20
-3.949999999999984
 30
0.0
 11
-22.26761799790332
 21
3.950000000000007
 31
0.0
  0
INSERT
  5
1063
330
D6A
100
AcDbEntity
  8
Z_OM_DIM
100
AcDbBlockReference
  2
_OPEN30
 10
-22.26761799790332
 20
-3.949999999999984
 30
0.0
 41
3.0
 42
3.0
 43
3.0
 50
90.0
  0
INSERT
  5
1064
330
D6A
100
AcDbEntity
  8
Z_OM_DIM
100
AcDbBlockReference
  2
_OPEN30
 10
-22.26761799790332
 20
3.950000000000007
 30
0.0
 41
3.0
 42
3.0
 43
3.0
 50
270.0
  0
MTEXT
  5
1065
330
D6A
100
AcDbEntity
  8
Z_OM_DIM
100
AcDbMText
 10
-24.16761799790332
 20
13.126
 30
0.0
 40
2.2
 41
0.0
 71
     5
 72
     1
  1
\A1;7.9
 11
0.0000000000000001
 21
1.0
 31
0.0
1001
ACAD
1000
MTEXTBEGIN
1070
    73
1070
     1
1070
    44
1040
1.0
1070
    74
1070
     0
1000
MTEXTEND
  0
POINT
  5
1066
330
D6A
100
AcDbEntity
  8
DEFPOINTS
 62
     0
100
AcDbPoint
 10
-5.564999999999997
 20
3.950000000000002
 30
0.0
  0
POINT
  5
1067
330
D6A
100
AcDbEntity
  8
DEFPOINTS
 62
     0
100
AcDbPoint
 10
-5.088917152087134
 20
-3.949999999999988
 30
0.0
  0
POINT
  5
1068
330
D6A
100
AcDbEntity
  8
DEFPOINTS
 62
     0
100
AcDbPoint
 10
-22.26761799790332
 20
-3.949999999999984
 30
0.0
  0
ENDBLK
  5
D76
330
D6A
100
AcDbEntity
  8
0
100
AcDbBlockEnd
  0
BLOCK
  5
D81
330
D77
100
AcDbEntity
  8
0
100
AcDbBlockBegin
  2
*D3
 70
     1
 10
0.0
 20
0.0
 30
0.0
  3
*D3
  1

  0
LINE
  5
10EC
330
D77
100
AcDbEntity
  8
Z_OM_DIM
100
AcDbLine
 10
8.293651697772574
 20
-1.746760556965651
 30
0.0
 11
5.523531938062202
 21
-2.898470814305639
 31
0.0
  0
LINE
  5
10ED
330
D77
100
AcDbEntity
  8
Z_OM_DIM
100
AcDbLine
 10
16.69634830222737
 20
1.746760556965649
 30
0.0
 11
31.18222789900616
 21
7.769437396015566
 31
0.0
  0
LINE
  5
10EE
330
D77
100
AcDbEntity
  8
Z_OM_DIM
100
AcDbLine
 10
11.06377145748294
 20
-0.5950502996256622
 30
0.0
 11
13.926228542517
 21
0.5950502996256617
 31
0.0
  0
INSERT
  5
10EF
330
D77
100
AcDbEntity
  8
Z_OM_DIM
100
AcDbBlockReference
  2
_OPEN30
 10
11.06377145748294
 20
-0.5950502996256622
 30
0.0
 41
3.0
 42
3.0
 43
3.0
 50
22.5756800391506
  0
INSERT
  5
10F0
330
D77
100
AcDbEntity
  8
Z_OM_DIM
100
AcDbBlockReference
  2
_OPEN30
 10
13.926228542517
 20
0.5950502996256617
 30
0.0
 41
3.0
 42
3.0
 43
3.0
 50
202.5756800391505
  0
MTEXT
  5
10F1
330
D77
100
AcDbEntity
  8
Z_OM_DIM
100
AcDbMText
 10
24.59493148415663
 20
7.088363286310508
 30
0.0
 40
2.2
 41
0.0
 71
     5
 72
     1
  1
\A1;2-\U+22053.1
 11
0.9233732532367911
 21
0.3839034191133295
 31
0.0
1001
ACAD
1000
MTEXTBEGIN
1070
    73
1070
     1
1070
    44
1040
1.0
1070
    74
1070
     0
1000
MTEXTEND
  0
POINT
  5
10F2
330
D77
100
AcDbEntity
  8
DEFPOINTS
 62
     0
100
AcDbPoint
 10
13.926228542517
 20
0.5950502996256617
 30
0.0
  0
POINT
  5
10F3
330
D77
100
AcDbEntity
  8
DEFPOINTS
 62
     0
100
AcDbPoint
 10
11.06377145748294
 20
-0.5950502996256622
 30
0.0
  0
ENDBLK
  5
D82
330
D77
100
AcDbEntity
  8
0
100
AcDbBlockEnd
  0
BLOCK
  5
D8E
330
D83
100
AcDbEntity
  8
0
100
AcDbBlockBegin
  2
*D4
 70
     1
 10
0.0
 20
0.0
 30
0.0
  3
*D4
  1

  0
LINE
  5
1055
330
D83
100
AcDbEntity
  8
Z_OM_DIM
100
AcDbLine
 10
-15.39999999999999
 20
6.75
 30
0.0
 11
-15.39999999999999
 21
26.10370247170163
 31
0.0
  0
LINE
  5
1056
330
D83
100
AcDbEntity
  8
Z_OM_DIM
100
AcDbLine
 10
15.39999999999999
 20
6.75
 30
0.0
 11
15.39999999999999
 21
26.10370247170163
 31
0.0
  0
LINE
  5
1057
330
D83
100
AcDbEntity
  8
Z_OM_DIM
100
AcDbLine
 10
-12.39999999999999
 20
24.60370247170164
 30
0.0
 11
12.39999999999999
 21
24.60370247170164
 31
0.0
  0
INSERT
  5
1058
330
D83
100
AcDbEntity
  8
Z_OM_DIM
100
AcDbBlockReference
  2
_OPEN30
 10
-15.39999999999999
 20
24.60370247170164
 30
0.0
 41
3.0
 42
3.0
 43
3.0
 50
180.0
  0
INSERT
  5
1059
330
D83
100
AcDbEntity
  8
Z_OM_DIM
100
AcDbBlockReference
  2
_OPEN30
 10
15.39999999999999
 20
24.60370247170164
 30
0.0
 41
3.0
 42
3.0
 43
3.0
  0
MTEXT
  5
105A
330
D83
100
AcDbEntity
  8
Z_OM_DIM
100
AcDbMText
 10
0.0000000000000019
 20
26.50370247170164
 30
0.0
 40
2.2
 41
0.0
 71
     5
 72
     1
  1
\A1;30.8
1001
ACAD
1000
MTEXTBEGIN
1070
    73
1070
     1
1070
    44
1040
1.0
1070
    74
1070
     0
1000
MTEXTEND
  0
POINT
  5
105B
330
D83
100
AcDbEntity
  8
DEFPOINTS
 62
     0
100
AcDbPoint
 10
-15.39999999999999
 20
6.25
 30
0.0
  0
POINT
  5
105C
330
D83
100
AcDbEntity
  8
DEFPOINTS
 62
     0
100
AcDbPoint
 10
15.39999999999999
 20
6.25
 30
0.0
  0
POINT
  5
105D
330
D83
100
AcDbEntity
  8
DEFPOINTS
 62
     0
100
AcDbPoint
 10
15.39999999999999
 20
24.60370247170164
 30
0.0
  0
ENDBLK
  5
D8F
330
D83
100
AcDbEntity
  8
0
100
AcDbBlockEnd
  0
BLOCK
  5
D9B
330
D90
100
AcDbEntity
  8
0
100
AcDbBlockBegin
  2
*D5
 70
     1
 10
0.0
 20
0.0
 30
0.0
  3
*D5
  1

  0
LINE
  5
1069
330
D90
100
AcDbEntity
  8
Z_OM_DIM
100
AcDbLine
 10
-15.89999999999999
 20
-6.25
 30
0.0
 11
-29.28612065000546
 21
-6.249999999999996
 31
0.0
  0
LINE
  5
106A
330
D90
100
AcDbEntity
  8
Z_OM_DIM
100
AcDbLine
 10
-15.89999999999999
 20
6.25
 30
0.0
 11
-29.28612065000546
 21
6.250000000000003
 31
0.0
  0
LINE
  5
106B
330
D90
100
AcDbEntity
  8
Z_OM_DIM
100
AcDbLine
 10
-27.78612065000546
 20
-3.249999999999996
 30
0.0
 11
-27.78612065000546
 21
3.250000000000003
 31
0.0
  0
INSERT
  5
106C
330
D90
100
AcDbEntity
  8
Z_OM_DIM
100
AcDbBlockReference
  2
_OPEN30
 10
-27.78612065000546
 20
-6.249999999999996
 30
0.0
 41
3.0
 42
3.0
 43
3.0
 50
270.0
  0
INSERT
  5
106D
330
D90
100
AcDbEntity
  8
Z_OM_DIM
100
AcDbBlockReference
  2
_OPEN30
 10
-27.78612065000546
 20
6.250000000000003
 30
0.0
 41
3.0
 42
3.0
 43
3.0
 50
90.0
  0
MTEXT
  5
106E
330
D90
100
AcDbEntity
  8
Z_OM_DIM
100
AcDbMText
 10
-29.68612065000545
 20
0.0000000000000038
 30
0.0
 40
2.2
 41
0.0
 71
     5
 72
     1
  1
\A1;12.5
 11
0.0000000000000001
 21
1.0
 31
0.0
1001
ACAD
1000
MTEXTBEGIN
1070
    73
1070
     1
1070
    44
1040
1.0
1070
    74
1070
     0
1000
MTEXTEND
  0
POINT
  5
106F
330
D90
100
AcDbEntity
  8
DEFPOINTS
 62
     0
100
AcDbPoint
 10
-15.39999999999999
 20
-6.25
 30
0.0
  0
POINT
  5
1070
330
D90
100
AcDbEntity
  8
DEFPOINTS
 62
     0
100
AcDbPoint
 10
-15.39999999999999
 20
6.25
 30
0.0
  0
POINT
  5
1071
330
D90
100
AcDbEntity
  8
DEFPOINTS
 62
     0
100
AcDbPoint
 10
-27.78612065000546
 20
6.250000000000003
 30
0.0
  0
ENDBLK
  5
D9C
330
D90
100
AcDbEntity
  8
0
100
AcDbBlockEnd
  0
BLOCK
  5
DB5
330
DAA
100
AcDbEntity
  8
0
100
AcDbBlockBegin
  2
*D6
 70
     1
 10
0.0
 20
0.0
 30
0.0
  3
*D6
  1

  0
LINE
  5
104C
330
DAA
100
AcDbEntity
  8
Z_OM_DIM
100
AcDbLine
 10
-12.49499999999999
 20
3.491898454783722
 30
0.0
 11
-12.49499999999998
 21
20.27409567368866
 31
0.0
  0
LINE
  5
104D
330
DAA
100
AcDbEntity
  8
Z_OM_DIM
100
AcDbLine
 10
12.49499999999999
 20
3.491898454783722
 30
0.0
 11
12.49499999999999
 21
20.27409567368866
 31
0.0
  0
LINE
  5
104E
330
DAA
100
AcDbEntity
  8
Z_OM_DIM
100
AcDbLine
 10
-9.494999999999988
 20
18.77409567368866
 30
0.0
 11
9.494999999999992
 21
18.77409567368866
 31
0.0
  0
INSERT
  5
104F
330
DAA
100
AcDbEntity
  8
Z_OM_DIM
100
AcDbBlockReference
  2
_OPEN30
 10
-12.49499999999998
 20
18.77409567368866
 30
0.0
 41
3.0
 42
3.0
 43
3.0
 50
180.0
  0
INSERT
  5
1050
330
DAA
100
AcDbEntity
  8
Z_OM_DIM
100
AcDbBlockReference
  2
_OPEN30
 10
12.49499999999999
 20
18.77409567368866
 30
0.0
 41
3.0
 42
3.0
 43
3.0
  0
MTEXT
  5
1051
330
DAA
100
AcDbEntity
  8
Z_OM_DIM
100
AcDbMText
 10
0.0000000000000019
 20
20.67409567368866
 30
0.0
 40
2.2
 41
0.0
 71
     5
 72
     1
  1
\A1;24.99
1001
ACAD
1000
MTEXTBEGIN
1070
    73
1070
     1
1070
    44
1040
1.0
1070
    74
1070
     0
1000
MTEXTEND
  0
POINT
  5
1052
330
DAA
100
AcDbEntity
  8
DEFPOINTS
 62
     0
100
AcDbPoint
 10
-12.49499999999999
 20
2.991898454783722
 30
0.0
  0
POINT
  5
1053
330
DAA
100
AcDbEntity
  8
DEFPOINTS
 62
     0
100
AcDbPoint
 10
12.49499999999999
 20
2.991898454783722
 30
0.0
  0
POINT
  5
1054
330
DAA
100
AcDbEntity
  8
DEFPOINTS
 62
     0
100
AcDbPoint
 10
12.49499999999999
 20
18.77409567368866
 30
0.0
  0
ENDBLK
  5
DB6
330
DAA
100
AcDbEntity
  8
0
100
AcDbBlockEnd
  0
BLOCK
  5
DC2
330
DB7
100
AcDbEntity
  8
0
100
AcDbBlockBegin
  2
*D7
 70
     1
 10
0.0
 20
0.0
 30
0.0
  3
*D7
  1

  0
LINE
  5
F64
330
DB7
100
AcDbEntity
  8
Z_OM_DIM
100
AcDbLine
 10
119.8461309860555
 20
4.5
 30
0.0
 11
108.2243711244776
 21
4.500000000000003
 31
0.0
  0
LINE
  5
F65
330
DB7
100
AcDbEntity
  8
Z_OM_DIM
100
AcDbLine
 10
119.8461309860555
 20
-4.5
 30
0.0
 11
108.2243711244776
 21
-4.499999999999996
 31
0.0
  0
LINE
  5
F66
330
DB7
100
AcDbEntity
  8
Z_OM_DIM
100
AcDbLine
 10
109.7243711244777
 20
1.500000000000003
 30
0.0
 11
109.7243711244777
 21
-1.499999999999996
 31
0.0
  0
INSERT
  5
F67
330
DB7
100
AcDbEntity
  8
Z_OM_DIM
100
AcDbBlockReference
  2
_OPEN30
 10
109.7243711244777
 20
4.500000000000003
 30
0.0
 41
3.0
 42
3.0
 43
3.0
 50
90.0
  0
INSERT
  5
F68
330
DB7
100
AcDbEntity
  8
Z_OM_DIM
100
AcDbBlockReference
  2
_OPEN30
 10
109.7243711244777
 20
-4.499999999999996
 30
0.0
 41
3.0
 42
3.0
 43
3.0
 50
270.0
  0
MTEXT
  5
F69
330
DB7
100
AcDbEntity
  8
Z_OM_DIM
100
AcDbMText
 10
107.8243711244776
 20
-0.2602162102070904
 30
0.0
 40
2.2
 41
0.0
 71
     5
 72
     1
  1
\A1;9
 11
0.0000000000000001
 21
1.0
 31
0.0
1001
ACAD
1000
MTEXTBEGIN
1070
    73
1070
     1
1070
    44
1040
1.0
1070
    74
1070
     0
1000
MTEXTEND
  0
POINT
  5
F6A
330
DB7
100
AcDbEntity
  8
DEFPOINTS
 62
     0
100
AcDbPoint
 10
120.3461309860555
 20
4.5
 30
0.0
  0
POINT
  5
F6B
330
DB7
100
AcDbEntity
  8
DEFPOINTS
 62
     0
100
AcDbPoint
 10
120.3461309860555
 20
-4.5
 30
0.0
  0
POINT
  5
F6C
330
DB7
100
AcDbEntity
  8
DEFPOINTS
 62
     0
100
AcDbPoint
 10
109.7243711244777
 20
-4.499999999999996
 30
0.0
  0
ENDBLK
  5
DC3
330
DB7
100
AcDbEntity
  8
0
100
AcDbBlockEnd
  0
BLOCK
  5
DDC
330
DD1
100
AcDbEntity
  8
0
100
AcDbBlockBegin
  2
*D8
 70
     1
 10
0.0
 20
0.0
 30
0.0
  3
*D8
  1

  0
LINE
  5
10FA
330
DD1
100
AcDbEntity
  8
Z_OM_DIM
100
AcDbLine
 10
129.1561309860555
 20
0.0149100040306536
 30
0.0
 11
129.1561309860555
 21
14.81597696642099
 31
0.0
  0
LINE
  5
10FB
330
DD1
100
AcDbEntity
  8
Z_OM_DIM
100
AcDbLine
 10
127.7761309860555
 20
2.624551046944603
 30
0.0
 11
127.7761309860555
 21
14.81597696642099
 31
0.0
  0
LINE
  5
10FC
330
DD1
100
AcDbEntity
  8
Z_OM_DIM
100
AcDbLine
 10
132.1561309860555
 20
13.31597696642099
 30
0.0
 11
135.1561309860555
 21
13.31597696642099
 31
0.0
  0
LINE
  5
10FD
330
DD1
100
AcDbEntity
  8
Z_OM_DIM
100
AcDbLine
 10
124.7761309860555
 20
13.31597696642099
 30
0.0
 11
113.8401309860555
 21
13.31597696642099
 31
0.0
  0
LINE
  5
10FE
330
DD1
100
AcDbEntity
  8
Z_OM_DIM
100
AcDbLine
 10
129.1561309860555
 20
13.31597696642099
 30
0.0
 11
127.7761309860555
 21
13.31597696642099
 31
0.0
  0
INSERT
  5
10FF
330
DD1
100
AcDbEntity
  8
Z_OM_DIM
100
AcDbBlockReference
  2
_OPEN30
 10
129.1561309860555
 20
13.31597696642099
 30
0.0
 41
3.0
 42
3.0
 43
3.0
 50
180.0
  0
INSERT
  5
1100
330
DD1
100
AcDbEntity
  8
Z_OM_DIM
100
AcDbBlockReference
  2
_OPEN30
 10
127.7761309860555
 20
13.31597696642099
 30
0.0
 41
3.0
 42
3.0
 43
3.0
  0
MTEXT
  5
1101
330
DD1
100
AcDbEntity
  8
Z_OM_DIM
100
AcDbMText
 10
117.8081309860555
 20
15.21597696642099
 30
0.0
 40
2.2
 41
0.0
 71
     5
 72
     1
  1
\A1;1.38
1001
ACAD
1000
MTEXTBEGIN
1070
    73
1070
     1
1070
    44
1040
1.0
1070
    74
1070
     0
1000
MTEXTEND
  0
POINT
  5
1102
330
DD1
100
AcDbEntity
  8
DEFPOINTS
 62
     0
100
AcDbPoint
 10
129.1561309860555
 20
-0.4850899959693465
 30
0.0
  0
POINT
  5
1103
330
DD1
100
AcDbEntity
  8
DEFPOINTS
 62
     0
100
AcDbPoint
 10
127.7761309860555
 20
2.124551046944603
 30
0.0
  0
POINT
  5
1104
330
DD1
100
AcDbEntity
  8
DEFPOINTS
 62
     0
100
AcDbPoint
 10
127.7761309860555
 20
13.31597696642099
 30
0.0
  0
ENDBLK
  5
DDD
330
DD1
100
AcDbEntity
  8
0
100
AcDbBlockEnd
  0
BLOCK
  5
DE9
330
DDE
100
AcDbEntity
  8
0
100
AcDbBlockBegin
  2
*D9
 70
     1
 10
0.0
 20
0.0
 30
0.0
  3
*D9
  1

  0
LINE
  5
F83
330
DDE
100
AcDbEntity
  8
Z_OM_DIM
100
AcDbLine
 10
131.8961309860555
 20
-2.854910004030628
 30
0.0
 11
131.8961309860555
 21
-15.31308773614848
 31
0.0
  0
LINE
  5
F84
330
DDE
100
AcDbEntity
  8
Z_OM_DIM
100
AcDbLine
 10
129.1561309860555
 20
-2.854910004030628
 30
0.0
 11
129.1561309860555
 21
-15.31308773614848
 31
0.0
  0
LINE
  5
F85
330
DDE
100
AcDbEntity
  8
Z_OM_DIM
100
AcDbLine
 10
134.8961309860555
 20
-13.81308773614849
 30
0.0
 11
137.8961309860555
 21
-13.81308773614849
 31
0.0
  0
LINE
  5
F86
330
DDE
100
AcDbEntity
  8
Z_OM_DIM
100
AcDbLine
 10
126.1561309860555
 20
-13.81308773614849
 30
0.0
 11
112.2471309860555
 21
-13.81308773614849
 31
0.0
  0
LINE
  5
F87
330
DDE
100
AcDbEntity
  8
Z_OM_DIM
100
AcDbLine
 10
131.8961309860555
 20
-13.81308773614849
 30
0.0
 11
129.1561309860555
 21
-13.81308773614849
 31
0.0
  0
INSERT
  5
F88
330
DDE
100
AcDbEntity
  8
Z_OM_DIM
100
AcDbBlockReference
  2
_OPEN30
 10
131.8961309860555
 20
-13.81308773614849
 30
0.0
 41
3.0
 42
3.0
 43
3.0
 50
180.0
  0
INSERT
  5
F89
330
DDE
100
AcDbEntity
  8
Z_OM_DIM
100
AcDbBlockReference
  2
_OPEN30
 10
129.1561309860555
 20
-13.81308773614849
 30
0.0
 41
3.0
 42
3.0
 43
3.0
  0
MTEXT
  5
F8A
330
DDE
100
AcDbEntity
  8
Z_OM_DIM
100
AcDbMText
 10
116.6111309860555
 20
-11.91308773614848
 30
0.0
 40
2.2
 41
0.0
 71
     5
 72
     1
  1
\A1;2.74
1001
ACAD
1000
MTEXTBEGIN
1070
    73
1070
     1
1070
    44
1040
1.0
1070
    74
1070
     0
1000
MTEXTEND
  0
POINT
  5
F8B
330
DDE
100
AcDbEntity
  8
DEFPOINTS
 62
     0
100
AcDbPoint
 10
131.8961309860555
 20
-2.354910004030628
 30
0.0
  0
POINT
  5
F8C
330
DDE
100
AcDbEntity
  8
DEFPOINTS
 62
     0
100
AcDbPoint
 10
129.1561309860555
 20
-2.354910004030628
 30
0.0
  0
POINT
  5
F8D
330
DDE
100
AcDbEntity
  8
DEFPOINTS
 62
     0
100
AcDbPoint
 10
129.1561309860555
 20
-13.81308773614849
 30
0.0
  0
ENDBLK
  5
DEA
330
DDE
100
AcDbEntity
  8
0
100
AcDbBlockEnd
  0
BLOCK
  5
DF5
330
DEB
100
AcDbEntity
  8
0
100
AcDbBlockBegin
  2
*D10
 70
     1
 10
0.0
 20
0.0
 30
0.0
  3
*D10
  1

  0
LINE
  5
1594
330
DEB
100
AcDbEntity
  8
Z_OM_DIM
100
AcDbLine
 10
127.7761309860555
 20
2.624551046944603
 30
0.0
 11
127.7761309860555
 21
20.27409567368866
 31
0.0
  0
LINE
  5
1595
330
DEB
100
AcDbEntity
  8
Z_OM_DIM
100
AcDbLine
 10
138.7561309860555
 20
2.624551046944603
 30
0.0
 11
138.7561309860555
 21
20.27409567368866
 31
0.0
  0
LINE
  5
1596
330
DEB
100
AcDbEntity
  8
Z_OM_DIM
100
AcDbLine
 10
141.7561309860555
 20
18.77409567368866
 30
0.0
 11
144.7561309860555
 21
18.77409567368866
 31
0.0
  0
LINE
  5
1597
330
DEB
100
AcDbEntity
  8
Z_OM_DIM
100
AcDbLine
 10
124.7761309860555
 20
18.77409567368866
 30
0.0
 11
111.8601309860555
 21
18.77409567368866
 31
0.0
  0
LINE
  5
1598
330
DEB
100
AcDbEntity
  8
Z_OM_DIM
100
AcDbLine
 10
138.7561309860555
 20
18.77409567368866
 30
0.0
 11
127.7761309860555
 21
18.77409567368866
 31
0.0
  0
INSERT
  5
1599
330
DEB
100
AcDbEntity
  8
Z_OM_DIM
100
AcDbBlockReference
  2
_OPEN30
 10
138.7561309860555
 20
18.77409567368866
 30
0.0
 41
3.0
 42
3.0
 43
3.0
 50
180.0
  0
INSERT
  5
159A
330
DEB
100
AcDbEntity
  8
Z_OM_DIM
100
AcDbBlockReference
  2
_OPEN30
 10
127.7761309860555
 20
18.77409567368866
 30
0.0
 41
3.0
 42
3.0
 43
3.0
  0
MTEXT
  5
159B
330
DEB
100
AcDbEntity
  8
Z_OM_DIM
100
AcDbMText
 10
116.8181309860555
 20
20.67409567368866
 30
0.0
 40
2.2
 41
0.0
 71
     5
 72
     1
  1
\A1;10.98
1001
ACAD
1000
MTEXTBEGIN
1070
    73
1070
     1
1070
    44
1040
1.0
1070
    74
1070
     0
1000
MTEXTEND
  0
POINT
  5
159C
330
DEB
100
AcDbEntity
  8
DEFPOINTS
 62
     0
100
AcDbPoint
 10
127.7761309860555
 20
2.124551046944603
 30
0.0
  0
POINT
  5
159D
330
DEB
100
AcDbEntity
  8
DEFPOINTS
 62
     0
100
AcDbPoint
 10
138.7561309860555
 20
2.124551046944603
 30
0.0
  0
POINT
  5
159E
330
DEB
100
AcDbEntity
  8
DEFPOINTS
 62
     0
100
AcDbPoint
 10
138.7561309860555
 20
18.77409567368866
 30
0.0
  0
ENDBLK
  5
DF6
330
DEB
100
AcDbEntity
  8
0
100
AcDbBlockEnd
  0
BLOCK
  5
E02
330
DF7
100
AcDbEntity
  8
0
100
AcDbBlockBegin
  2
*D11
 70
     1
 10
0.0
 20
0.0
 30
0.0
  3
*D11
  1

  0
LINE
  5
F97
330
DF7
100
AcDbEntity
  8
Z_OM_DIM
100
AcDbLine
 10
129.1561309860555
 20
-2.854910004030628
 30
0.0
 11
129.1561309860555
 21
-21.37311498689413
 31
0.0
  0
LINE
  5
F98
330
DF7
100
AcDbEntity
  8
Z_OM_DIM
100
AcDbLine
 10
137.3761309860555
 20
-2.854910004030628
 30
0.0
 11
137.3761309860555
 21
-21.37311498689413
 31
0.0
  0
LINE
  5
F99
330
DF7
100
AcDbEntity
  8
Z_OM_DIM
100
AcDbLine
 10
140.3761309860555
 20
-19.87311498689413
 30
0.0
 11
143.3761309860555
 21
-19.87311498689413
 31
0.0
  0
LINE
  5
F9A
330
DF7
100
AcDbEntity
  8
Z_OM_DIM
100
AcDbLine
 10
126.1561309860555
 20
-19.87311498689413
 30
0.0
 11
112.2471309860555
 21
-19.87311498689413
 31
0.0
  0
LINE
  5
F9B
330
DF7
100
AcDbEntity
  8
Z_OM_DIM
100
AcDbLine
 10
137.3761309860555
 20
-19.87311498689413
 30
0.0
 11
129.1561309860555
 21
-19.87311498689413
 31
0.0
  0
INSERT
  5
F9C
330
DF7
100
AcDbEntity
  8
Z_OM_DIM
100
AcDbBlockReference
  2
_OPEN30
 10
137.3761309860555
 20
-19.87311498689413
 30
0.0
 41
3.0
 42
3.0
 43
3.0
 50
180.0
  0
INSERT
  5
F9D
330
DF7
100
AcDbEntity
  8
Z_OM_DIM
100
AcDbBlockReference
  2
_OPEN30
 10
129.1561309860555
 20
-19.87311498689413
 30
0.0
 41
3.0
 42
3.0
 43
3.0
  0
MTEXT
  5
F9E
330
DF7
100
AcDbEntity
  8
Z_OM_DIM
100
AcDbMText
 10
116.6111309860555
 20
-17.97311498689413
 30
0.0
 40
2.2
 41
0.0
 71
     5
 72
     1
  1
\A1;8.22
1001
ACAD
1000
MTEXTBEGIN
1070
    73
1070
     1
1070
    44
1040
1.0
1070
    74
1070
     0
1000
MTEXTEND
  0
POINT
  5
F9F
330
DF7
100
AcDbEntity
  8
DEFPOINTS
 62
     0
100
AcDbPoint
 10
129.1561309860555
 20
-2.354910004030628
 30
0.0
  0
POINT
  5
FA0
330
DF7
100
AcDbEntity
  8
DEFPOINTS
 62
     0
100
AcDbPoint
 10
137.3761309860555
 20
-2.354910004030628
 30
0.0
  0
POINT
  5
FA1
330
DF7
100
AcDbEntity
  8
DEFPOINTS
 62
     0
100
AcDbPoint
 10
137.3761309860555
 20
-19.87311498689413
 30
0.0
  0
ENDBLK
  5
E03
330
DF7
100
AcDbEntity
  8
0
100
AcDbBlockEnd
  0
BLOCK
  5
E0F
330
E04
100
AcDbEntity
  8
0
100
AcDbBlockBegin
  2
*D12
 70
     1
 10
0.0
 20
0.0
 30
0.0
  3
*D12
  1

  0
LINE
  5
FA2
330
E04
100
AcDbEntity
  8
Z_OM_DIM
100
AcDbLine
 10
5.840000000000003
 20
-45.67358181223906
 30
0.0
 11
5.840000000000002
 21
-52.5167328833066
 31
0.0
  0
LINE
  5
FA3
330
E04
100
AcDbEntity
  8
Z_OM_DIM
100
AcDbLine
 10
5.14
 20
-45.67358181223906
 30
0.0
 11
5.139999999999999
 21
-52.5167328833066
 31
0.0
  0
LINE
  5
FA4
330
E04
100
AcDbEntity
  8
Z_OM_DIM
100
AcDbLine
 10
2.14
 20
-51.0167328833066
 30
0.0
 11
-0.8599999999999994
 21
-51.0167328833066
 31
0.0
  0
LINE
  5
FA5
330
E04
100
AcDbEntity
  8
Z_OM_DIM
100
AcDbLine
 10
8.840000000000003
 20
-51.0167328833066
 30
0.0
 11
19.158
 21
-51.0167328833066
 31
0.0
  0
LINE
  5
FA6
330
E04
100
AcDbEntity
  8
Z_OM_DIM
100
AcDbLine
 10
5.14
 20
-51.0167328833066
 30
0.0
 11
5.840000000000003
 21
-51.0167328833066
 31
0.0
  0
INSERT
  5
FA7
330
E04
100
AcDbEntity
  8
Z_OM_DIM
100
AcDbBlockReference
  2
_OPEN30
 10
5.14
 20
-51.0167328833066
 30
0.0
 41
3.0
 42
3.0
 43
3.0
  0
INSERT
  5
FA8
330
E04
100
AcDbEntity
  8
Z_OM_DIM
100
AcDbBlockReference
  2
_OPEN30
 10
5.840000000000003
 20
-51.0167328833066
 30
0.0
 41
3.0
 42
3.0
 43
3.0
 50
180.0
  0
MTEXT
  5
FA9
330
E04
100
AcDbEntity
  8
Z_OM_DIM
100
AcDbMText
 10
16.18
 20
-49.11673288330661
 30
0.0
 40
2.2
 41
0.0
 71
     5
 72
     1
  1
\A1;0.7
1001
ACAD
1000
MTEXTBEGIN
1070
    73
1070
     1
1070
    44
1040
1.0
1070
    74
1070
     0
1000
MTEXTEND
  0
POINT
  5
FAA
330
E04
100
AcDbEntity
  8
DEFPOINTS
 62
     0
100
AcDbPoint
 10
5.840000000000003
 20
-45.17358181223906
 30
0.0
  0
POINT
  5
FAB
330
E04
100
AcDbEntity
  8
DEFPOINTS
 62
     0
100
AcDbPoint
 10
5.14
 20
-45.17358181223906
 30
0.0
  0
POINT
  5
FAC
330
E04
100
AcDbEntity
  8
DEFPOINTS
 62
     0
100
AcDbPoint
 10
5.14
 20
-51.0167328833066
 30
0.0
  0
ENDBLK
  5
E10
330
E04
100
AcDbEntity
  8
0
100
AcDbBlockEnd
  0
BLOCK
  5
E1C
330
E11
100
AcDbEntity
  8
0
100
AcDbBlockBegin
  2
*D13
 70
     1
 10
0.0
 20
0.0
 30
0.0
  3
*D13
  1

  0
LINE
  5
FAD
330
E11
100
AcDbEntity
  8
Z_OM_DIM
100
AcDbLine
 10
-9.500000000000014
 20
-42.47358181223905
 30
0.0
 11
-9.500000000000015
 21
-58.64242959650696
 31
0.0
  0
LINE
  5
FAE
330
E11
100
AcDbEntity
  8
Z_OM_DIM
100
AcDbLine
 10
9.5
 20
-42.47358181223905
 30
0.0
 11
9.499999999999998
 21
-58.64242959650696
 31
0.0
  0
LINE
  5
FAF
330
E11
100
AcDbEntity
  8
Z_OM_DIM
100
AcDbLine
 10
-6.500000000000015
 20
-57.14242959650697
 30
0.0
 11
6.499999999999998
 21
-57.14242959650697
 31
0.0
  0
INSERT
  5
FB0
330
E11
100
AcDbEntity
  8
Z_OM_DIM
100
AcDbBlockReference
  2
_OPEN30
 10
-9.500000000000015
 20
-57.14242959650697
 30
0.0
 41
3.0
 42
3.0
 43
3.0
 50
180.0
  0
INSERT
  5
FB1
330
E11
100
AcDbEntity
  8
Z_OM_DIM
100
AcDbBlockReference
  2
_OPEN30
 10
9.499999999999998
 20
-57.14242959650697
 30
0.0
 41
3.0
 42
3.0
 43
3.0
  0
MTEXT
  5
FB2
330
E11
100
AcDbEntity
  8
Z_OM_DIM
100
AcDbMText
 10
0.1834053309372338
 20
-55.24242959650696
 30
0.0
 40
2.2
 41
0.0
 71
     5
 72
     1
  1
\A1;19
1001
ACAD
1000
MTEXTBEGIN
1070
    73
1070
     1
1070
    44
1040
1.0
1070
    74
1070
     0
1000
MTEXTEND
  0
POINT
  5
FB3
330
E11
100
AcDbEntity
  8
DEFPOINTS
 62
     0
100
AcDbPoint
 10
-9.500000000000014
 20
-41.97358181223905
 30
0.0
  0
POINT
  5
FB4
330
E11
100
AcDbEntity
  8
DEFPOINTS
 62
     0
100
AcDbPoint
 10
9.5
 20
-41.97358181223905
 30
0.0
  0
POINT
  5
FB5
330
E11
100
AcDbEntity
  8
DEFPOINTS
 62
     0
100
AcDbPoint
 10
9.499999999999998
 20
-57.14242959650697
 30
0.0
  0
ENDBLK
  5
E1D
330
E11
100
AcDbEntity
  8
0
100
AcDbBlockEnd
  0
BLOCK
  5
E2A
330
E1E
100
AcDbEntity
  8
0
100
AcDbBlockBegin
  2
*D14
 70
     1
 10
0.0
 20
0.0
 30
0.0
  3
*D14
  1

  0
LINE
  5
16AE
330
E1E
100
AcDbEntity
  8
Z_OM_DIM
100
AcDbLine
 10
-15.89999999999999
 20
-34.97358181223903
 30
0.0
 11
-23.78261799790334
 21
-34.97358181223902
 31
0.0
  0
LINE
  5
16AF
330
E1E
100
AcDbEntity
  8
Z_OM_DIM
100
AcDbLine
 10
-15.89999999999999
 20
-35.47358181223904
 30
0.0
 11
-23.78261799790334
 21
-35.47358181223903
 31
0.0
  0
LINE
  5
16B0
330
E1E
100
AcDbEntity
  8
Z_OM_DIM
100
AcDbLine
 10
-22.28261799790334
 20
-34.97358181223902
 30
0.0
 11
-22.28261799790334
 21
-31.97358181223902
 31
0.0
  0
LINE
  5
16B1
330
E1E
100
AcDbEntity
  8
Z_OM_DIM
100
AcDbLine
 10
-22.28261799790334
 20
-38.47358181223903
 30
0.0
 11
-22.28261799790334
 21
-53.51289364201082
 31
0.0
  0
LINE
  5
16B2
330
E1E
100
AcDbEntity
  8
Z_OM_DIM
100
AcDbLine
 10
-22.28261799790334
 20
-34.97358181223902
 30
0.0
 11
-22.28261799790334
 21
-35.47358181223903
 31
0.0
  0
INSERT
  5
16B3
330
E1E
100
AcDbEntity
  8
Z_OM_DIM
100
AcDbBlockReference
  2
_DOTSMALL
 10
-22.28261799790334
 20
-34.97358181223902
 30
0.0
 41
3.0
 42
3.0
 43
3.0
 50
270.0
  0
INSERT
  5
16B4
330
E1E
100
AcDbEntity
  8
Z_OM_DIM
100
AcDbBlockReference
  2
_OPEN30
 10
-22.28261799790334
 20
-35.47358181223903
 30
0.0
 41
3.0
 42
3.0
 43
3.0
 50
90.0
  0
MTEXT
  5
16B5
330
E1E
100
AcDbEntity
  8
Z_OM_DIM
100
AcDbMText
 10
-24.18261799790334
 20
-50.53489364201082
 30
0.0
 40
2.2
 41
0.0
 71
     5
 72
     1
  1
\A1;0.5
 11
0.0000000000000001
 21
1.0
 31
0.0
  0
POINT
  5
16B6
330
E1E
100
AcDbEntity
  8
DEFPOINTS
 62
     0
100
AcDbPoint
 10
-15.39999999999999
 20
-34.97358181223903
 30
0.0
  0
POINT
  5
16B7
330
E1E
100
AcDbEntity
  8
DEFPOINTS
 62
     0
100
AcDbPoint
 10
-15.39999999999999
 20
-35.47358181223904
 30
0.0
  0
POINT
  5
16B8
330
E1E
100
AcDbEntity
  8
DEFPOINTS
 62
     0
100
AcDbPoint
 10
-22.28261799790334
 20
-35.47358181223903
 30
0.0
  0
ENDBLK
  5
E2B
330
E1E
100
AcDbEntity
  8
0
100
AcDbBlockEnd
  0
BLOCK
  5
E46
330
E3A
100
AcDbEntity
  8
0
100
AcDbBlockBegin
  2
*D15
 70
     1
 10
0.0
 20
0.0
 30
0.0
  3
*D15
  1

  0
LINE
  5
16B9
330
E3A
100
AcDbEntity
  8
Z_OM_DIM
100
AcDbLine
 10
-10.00000000000001
 20
-41.97358181223905
 30
0.0
 11
-29.28612065000546
 21
-41.97358181223904
 31
0.0
  0
LINE
  5
16BA
330
E3A
100
AcDbEntity
  8
Z_OM_DIM
100
AcDbLine
 10
-6.340000000000003
 20
-45.17358181223906
 30
0.0
 11
-29.28612065000546
 21
-45.17358181223905
 31
0.0
  0
LINE
  5
16BB
330
E3A
100
AcDbEntity
  8
Z_OM_DIM
100
AcDbLine
 10
-27.78612065000546
 20
-41.97358181223904
 30
0.0
 11
-27.78612065000545
 21
-38.97358181223904
 31
0.0
  0
LINE
  5
16BC
330
E3A
100
AcDbEntity
  8
Z_OM_DIM
100
AcDbLine
 10
-27.78612065000546
 20
-48.17358181223905
 30
0.0
 11
-27.78612065000546
 21
-57.52558181223906
 31
0.0
  0
LINE
  5
16BD
330
E3A
100
AcDbEntity
  8
Z_OM_DIM
100
AcDbLine
 10
-27.78612065000546
 20
-41.97358181223904
 30
0.0
 11
-27.78612065000546
 21
-45.17358181223905
 31
0.0
  0
INSERT
  5
16BE
330
E3A
100
AcDbEntity
  8
Z_OM_DIM
100
AcDbBlockReference
  2
_DOTSMALL
 10
-27.78612065000546
 20
-41.97358181223904
 30
0.0
 41
3.0
 42
3.0
 43
3.0
 50
270.0
  0
INSERT
  5
16BF
330
E3A
100
AcDbEntity
  8
Z_OM_DIM
100
AcDbBlockReference
  2
_OPEN30
 10
-27.78612065000546
 20
-45.17358181223905
 30
0.0
 41
3.0
 42
3.0
 43
3.0
 50
90.0
  0
MTEXT
  5
16C0
330
E3A
100
AcDbEntity
  8
Z_OM_DIM
100
AcDbMText
 10
-29.68612065000545
 20
-54.34958181223906
 30
0.0
 40
2.2
 41
0.0
 71
     5
 72
     1
  1
\A1;3.2
 11
0.0000000000000001
 21
1.0
 31
0.0
  0
POINT
  5
16C1
330
E3A
100
AcDbEntity
  8
DEFPOINTS
 62
     0
100
AcDbPoint
 10
-9.500000000000014
 20
-41.97358181223905
 30
0.0
  0
POINT
  5
16C2
330
E3A
100
AcDbEntity
  8
DEFPOINTS
 62
     0
100
AcDbPoint
 10
-5.840000000000003
 20
-45.17358181223906
 30
0.0
  0
POINT
  5
16C3
330
E3A
100
AcDbEntity
  8
DEFPOINTS
 62
     0
100
AcDbPoint
 10
-27.78612065000546
 20
-45.17358181223905
 30
0.0
  0
ENDBLK
  5
E47
330
E3A
100
AcDbEntity
  8
0
100
AcDbBlockEnd
  0
BLOCK
  5
E53
330
E48
100
AcDbEntity
  8
0
100
AcDbBlockBegin
  2
*D16
 70
     1
 10
0.0
 20
0.0
 30
0.0
  3
*D16
  1

  0
LINE
  5
16C4
330
E48
100
AcDbEntity
  8
Z_OM_DIM
100
AcDbLine
 10
-10.00000000000001
 20
-41.97358181223905
 30
0.0
 11
-29.28612065000546
 21
-41.97358181223904
 31
0.0
  0
LINE
  5
16C5
330
E48
100
AcDbEntity
  8
Z_OM_DIM
100
AcDbLine
 10
-15.89999999999999
 20
-34.97358181223903
 30
0.0
 11
-29.28612065000545
 21
-34.97358181223902
 31
0.0
  0
LINE
  5
16C6
330
E48
100
AcDbEntity
  8
Z_OM_DIM
100
AcDbLine
 10
-27.78612065000546
 20
-41.97358181223904
 30
0.0
 11
-27.78612065000545
 21
-34.97358181223902
 31
0.0
  0
INSERT
  5
16C7
330
E48
100
AcDbEntity
  8
Z_OM_DIM
100
AcDbBlockReference
  2
_DOTSMALL
 10
-27.78612065000546
 20
-41.97358181223904
 30
0.0
 41
3.0
 42
3.0
 43
3.0
 50
270.0
  0
INSERT
  5
16C8
330
E48
100
AcDbEntity
  8
Z_OM_DIM
100
AcDbBlockReference
  2
_DOTSMALL
 10
-27.78612065000545
 20
-34.97358181223902
 30
0.0
 41
3.0
 42
3.0
 43
3.0
 50
90.0
  0
MTEXT
  5
16C9
330
E48
100
AcDbEntity
  8
Z_OM_DIM
100
AcDbMText
 10
-29.68612065000545
 20
-38.47358181223904
 30
0.0
 40
2.2
 41
0.0
 71
     5
 72
     1
  1
\A1;7
 11
0.0000000000000001
 21
1.0
 31
0.0
  0
POINT
  5
16CA
330
E48
100
AcDbEntity
  8
DEFPOINTS
 62
     0
100
AcDbPoint
 10
-9.500000000000014
 20
-41.97358181223905
 30
0.0
  0
POINT
  5
16CB
330
E48
100
AcDbEntity
  8
DEFPOINTS
 62
     0
100
AcDbPoint
 10
-15.39999999999999
 20
-34.97358181223903
 30
0.0
  0
POINT
  5
16CC
330
E48
100
AcDbEntity
  8
DEFPOINTS
 62
     0
100
AcDbPoint
 10
-27.78612065000545
 20
-34.97358181223902
 30
0.0
  0
ENDBLK
  5
E54
330
E48
100
AcDbEntity
  8
0
100
AcDbBlockEnd
  0
BLOCK
  5
E61
330
E55
100
AcDbEntity
  8
0
100
AcDbBlockBegin
  2
*D17
 70
     1
 10
0.0
 20
0.0
 30
0.0
  3
*D17
  1

  0
LINE
  5
16CD
330
E55
100
AcDbEntity
  8
Z_OM_DIM
100
AcDbLine
 10
-15.89999999999999
 20
-34.97358181223903
 30
0.0
 11
-29.28612065000546
 21
-34.97358181223902
 31
0.0
  0
LINE
  5
16CE
330
E55
100
AcDbEntity
  8
Z_OM_DIM
100
AcDbLine
 10
-8.625500157831737
 20
-28.87358181223906
 30
0.0
 11
-29.28612065000546
 21
-28.87358181223906
 31
0.0
  0
LINE
  5
16CF
330
E55
100
AcDbEntity
  8
Z_OM_DIM
100
AcDbLine
 10
-27.78612065000546
 20
-34.97358181223902
 30
0.0
 11
-27.78612065000546
 21
-37.97358181223902
 31
0.0
  0
LINE
  5
16D0
330
E55
100
AcDbEntity
  8
Z_OM_DIM
100
AcDbLine
 10
-27.78612065000546
 20
-25.87358181223906
 30
0.0
 11
-27.78612065000545
 21
-17.31358181223905
 31
0.0
  0
LINE
  5
16D1
330
E55
100
AcDbEntity
  8
Z_OM_DIM
100
AcDbLine
 10
-27.78612065000546
 20
-34.97358181223902
 30
0.0
 11
-27.78612065000546
 21
-28.87358181223906
 31
0.0
  0
INSERT
  5
16D2
330
E55
100
AcDbEntity
  8
Z_OM_DIM
100
AcDbBlockReference
  2
_DOTSMALL
 10
-27.78612065000546
 20
-34.97358181223902
 30
0.0
 41
3.0
 42
3.0
 43
3.0
 50
90.0
  0
INSERT
  5
16D3
330
E55
100
AcDbEntity
  8
Z_OM_DIM
100
AcDbBlockReference
  2
_OPEN30
 10
-27.78612065000546
 20
-28.87358181223906
 30
0.0
 41
3.0
 42
3.0
 43
3.0
 50
270.0
  0
MTEXT
  5
16D4
330
E55
100
AcDbEntity
  8
Z_OM_DIM
100
AcDbMText
 10
-29.68612065000545
 20
-20.09358181223905
 30
0.0
 40
2.2
 41
0.0
 71
     5
 72
     1
  1
\A1;6.1
 11
0.0000000000000001
 21
1.0
 31
0.0
  0
POINT
  5
16D5
330
E55
100
AcDbEntity
  8
DEFPOINTS
 62
     0
100
AcDbPoint
 10
-15.39999999999999
 20
-34.97358181223903
 30
0.0
  0
POINT
  5
16D6
330
E55
100
AcDbEntity
  8
DEFPOINTS
 62
     0
100
AcDbPoint
 10
-8.125500157831737
 20
-28.87358181223906
 30
0.0
  0
POINT
  5
16D7
330
E55
100
AcDbEntity
  8
DEFPOINTS
 62
     0
100
AcDbPoint
 10
-27.78612065000546
 20
-28.87358181223906
 30
0.0
  0
ENDBLK
  5
E62
330
E55
100
AcDbEntity
  8
0
100
AcDbBlockEnd
  0
BLOCK
  5
E6F
330
E63
100
AcDbEntity
  8
0
100
AcDbBlockBegin
  2
*D18
 70
     1
 10
0.0
 20
0.0
 30
0.0
  3
*D18
  1

  0
LINE
  5
FED
330
E63
100
AcDbEntity
  8
Z_OM_DIM
100
AcDbLine
 10
65.89442533803887
 20
-1.170000000000001
 30
0.0
 11
70.57212885492993
 21
-1.170000000000003
 31
0.0
  0
LINE
  5
FEE
330
E63
100
AcDbEntity
  8
Z_OM_DIM
100
AcDbLine
 10
65.89442533803887
 20
-1.670000000000001
 30
0.0
 11
70.57212885492993
 21
-1.670000000000003
 31
0.0
  0
LINE
  5
FEF
330
E63
100
AcDbEntity
  8
Z_OM_DIM
100
AcDbLine
 10
69.07212885492993
 20
1.829999999999997
 30
0.0
 11
69.07212885492993
 21
4.829999999999997
 31
0.0
  0
LINE
  5
FF0
330
E63
100
AcDbEntity
  8
Z_OM_DIM
100
AcDbLine
 10
69.07212885492993
 20
-4.670000000000002
 30
0.0
 11
69.07212885492993
 21
-13.89974957508622
 31
0.0
  0
LINE
  5
FF1
330
E63
100
AcDbEntity
  8
Z_OM_DIM
100
AcDbLine
 10
69.07212885492993
 20
-1.170000000000002
 30
0.0
 11
69.07212885492993
 21
-1.670000000000002
 31
0.0
  0
INSERT
  5
FF2
330
E63
100
AcDbEntity
  8
Z_OM_DIM
100
AcDbBlockReference
  2
_OPEN30
 10
69.07212885492993
 20
-1.170000000000002
 30
0.0
 41
3.0
 42
3.0
 43
3.0
 50
270.0
  0
INSERT
  5
FF3
330
E63
100
AcDbEntity
  8
Z_OM_DIM
100
AcDbBlockReference
  2
_OPEN30
 10
69.07212885492993
 20
-1.670000000000002
 30
0.0
 41
3.0
 42
3.0
 43
3.0
 50
90.0
  0
MTEXT
  5
FF4
330
E63
100
AcDbEntity
  8
Z_OM_DIM
100
AcDbMText
 10
67.17212885492992
 20
-10.92174957508621
 30
0.0
 40
2.2
 41
0.0
 71
     5
 72
     1
  1
\A1;0.5
 11
0.0000000000000001
 21
1.0
 31
0.0
1001
ACAD
1000
MTEXTBEGIN
1070
    73
1070
     1
1070
    44
1040
1.0
1070
    74
1070
     0
1000
MTEXTEND
  0
POINT
  5
FF5
330
E63
100
AcDbEntity
  8
DEFPOINTS
 62
     0
100
AcDbPoint
 10
65.39442533803887
 20
-1.170000000000001
 30
0.0
  0
POINT
  5
FF6
330
E63
100
AcDbEntity
  8
DEFPOINTS
 62
     0
100
AcDbPoint
 10
65.39442533803887
 20
-1.670000000000001
 30
0.0
  0
POINT
  5
FF7
330
E63
100
AcDbEntity
  8
DEFPOINTS
 62
     0
100
AcDbPoint
 10
69.07212885492993
 20
-1.670000000000002
 30
0.0
  0
ENDBLK
  5
E70
330
E63
100
AcDbEntity
  8
0
100
AcDbBlockEnd
  0
BLOCK
  5
E7D
330
E71
100
AcDbEntity
  8
0
100
AcDbBlockBegin
  2
*D19
 70
     1
 10
0.0
 20
0.0
 30
0.0
  3
*D19
  1

  0
LINE
  5
FF8
330
E71
100
AcDbEntity
  8
Z_OM_DIM
100
AcDbLine
 10
66.7616667706574
 20
1.420000000000015
 30
0.0
 11
76.92235861766031
 21
1.420000000000012
 31
0.0
  0
LINE
  5
FF9
330
E71
100
AcDbEntity
  8
Z_OM_DIM
100
AcDbLine
 10
66.7616667706574
 20
-1.419999999999987
 30
0.0
 11
76.92235861766031
 21
-1.41999999999999
 31
0.0
  0
LINE
  5
FFA
330
E71
100
AcDbEntity
  8
Z_OM_DIM
100
AcDbLine
 10
75.4223586176603
 20
4.420000000000013
 30
0.0
 11
75.4223586176603
 21
7.420000000000013
 31
0.0
  0
LINE
  5
FFB
330
E71
100
AcDbEntity
  8
Z_OM_DIM
100
AcDbLine
 10
75.4223586176603
 20
-4.41999999999999
 30
0.0
 11
75.4223586176603
 21
-16.14799999999999
 31
0.0
  0
LINE
  5
FFC
330
E71
100
AcDbEntity
  8
Z_OM_DIM
100
AcDbLine
 10
75.4223586176603
 20
1.420000000000013
 30
0.0
 11
75.4223586176603
 21
-1.41999999999999
 31
0.0
  0
INSERT
  5
FFD
330
E71
100
AcDbEntity
  8
Z_OM_DIM
100
AcDbBlockReference
  2
_OPEN30
 10
75.4223586176603
 20
1.420000000000013
 30
0.0
 41
3.0
 42
3.0
 43
3.0
 50
270.0
  0
INSERT
  5
FFE
330
E71
100
AcDbEntity
  8
Z_OM_DIM
100
AcDbBlockReference
  2
_OPEN30
 10
75.4223586176603
 20
-1.41999999999999
 30
0.0
 41
3.0
 42
3.0
 43
3.0
 50
90.0
  0
MTEXT
  5
FFF
330
E71
100
AcDbEntity
  8
Z_OM_DIM
100
AcDbMText
 10
73.5223586176603
 20
-11.78399999999997
 30
0.0
 40
2.2
 41
0.0
 71
     5
 72
     1
  1
\A1;2.84
 11
0.0000000000000001
 21
1.0
 31
0.0
1001
ACAD
1000
MTEXTBEGIN
1070
    73
1070
     1
1070
    44
1040
1.0
1070
    74
1070
     0
1000
MTEXTEND
  0
POINT
  5
1000
330
E71
100
AcDbEntity
  8
DEFPOINTS
 62
     0
100
AcDbPoint
 10
66.26166677065739
 20
1.420000000000015
 30
0.0
  0
POINT
  5
1001
330
E71
100
AcDbEntity
  8
DEFPOINTS
 62
     0
100
AcDbPoint
 10
66.26166677065739
 20
-1.419999999999987
 30
0.0
  0
POINT
  5
1002
330
E71
100
AcDbEntity
  8
DEFPOINTS
 62
     0
100
AcDbPoint
 10
75.4223586176603
 20
-1.41999999999999
 30
0.0
  0
ENDBLK
  5
E7E
330
E71
100
AcDbEntity
  8
0
100
AcDbBlockEnd
  0
BLOCK
  5
1084
330
1082
100
AcDbEntity
  8
0
100
AcDbBlockBegin
  2
_DOTSMALL
 70
     0
 10
0.0
 20
0.0
 30
0.0
  3
_DOTSMALL
  1

  0
POLYLINE
  5
1083
330
1082
100
AcDbEntity
  8
0
  6
BYBLOCK
 62
     0
100
AcDb2dPolyline
 66
     1
 10
0.0
 20
0.0
 30
0.0
 70
     1
 40
0.5
 41
0.5
  0
VERTEX
  5
16D8
330
1083
100
AcDbEntity
  8
0
  6
BYBLOCK
 62
     0
100
AcDbVertex
100
AcDb2dVertex
 10
-0.0625
 20
0.0
 30
0.0
 42
1.0
  0
VERTEX
  5
16D9
330
1083
100
AcDbEntity
  8
0
  6
BYBLOCK
 62
     0
100
AcDbVertex
100
AcDb2dVertex
 10
0.0625
 20
0.0
 30
0.0
 42
1.0
  0
SEQEND
  5
16DA
330
1083
100
AcDbEntity
  8
0
  6
BYBLOCK
 62
     0
  0
ENDBLK
  5
1085
330
1082
100
AcDbEntity
  8
0
100
AcDbBlockEnd
  0
BLOCK
  5
1213
330
1209
100
AcDbEntity
  8
0
100
AcDbBlockBegin
  2
*D21
 70
     1
 10
0.0
 20
0.0
 30
0.0
  3
*D21
  1

  0
LINE
  5
1562
330
1209
100
AcDbEntity
  8
Z_OM_DIM
100
AcDbLine
 10
88.53389400440054
 20
56.88636236426674
 30
0.0
 11
88.53389400440054
 21
39.56216692632023
 31
0.0
  0
LINE
  5
1563
330
1209
100
AcDbEntity
  8
Z_OM_DIM
100
AcDbLine
 10
77.55389400440055
 20
56.88636236426674
 30
0.0
 11
77.55389400440055
 21
39.56216692632023
 31
0.0
  0
LINE
  5
1564
330
1209
100
AcDbEntity
  8
Z_OM_DIM
100
AcDbLine
 10
74.55389400440054
 20
41.06216692632023
 30
0.0
 11
71.55389400440054
 21
41.06216692632023
 31
0.0
  0
LINE
  5
1565
330
1209
100
AcDbEntity
  8
Z_OM_DIM
100
AcDbLine
 10
91.53389400440053
 20
41.06216692632023
 30
0.0
 11
111.6570940044005
 21
41.06216692632023
 31
0.0
  0
LINE
  5
1566
330
1209
100
AcDbEntity
  8
Z_OM_DIM
100
AcDbLine
 10
77.55389400440055
 20
41.06216692632023
 30
0.0
 11
88.53389400440054
 21
41.06216692632023
 31
0.0
  0
INSERT
  5
1567
330
1209
100
AcDbEntity
  8
Z_OM_DIM
100
AcDbBlockReference
  2
_OPEN30
 10
77.55389400440055
 20
41.06216692632023
 30
0.0
 41
3.0
 42
3.0
 43
3.0
  0
INSERT
  5
1568
330
1209
100
AcDbEntity
  8
Z_OM_DIM
100
AcDbBlockReference
  2
_OPEN30
 10
88.53389400440054
 20
41.06216692632023
 30
0.0
 41
3.0
 42
3.0
 43
3.0
 50
180.0
  0
MTEXT
  5
1569
330
1209
100
AcDbEntity
  8
Z_OM_DIM
100
AcDbMText
 10
103.0954940044005
 20
42.96216692632023
 30
0.0
 40
2.2
 41
0.0
 71
     5
 72
     1
  1
\A1;10.98}0.1
1001
ACAD
1000
MTEXTBEGIN
1070
    73
1070
     1
1070
    44
1040
1.0
1070
    74
1070
     0
1000
MTEXTEND
  0
POINT
  5
156A
330
1209
100
AcDbEntity
  8
DEFPOINTS
 62
     0
100
AcDbPoint
 10
88.53389400440054
 20
57.38636236426674
 30
0.0
  0
POINT
  5
156B
330
1209
100
AcDbEntity
  8
DEFPOINTS
 62
     0
100
AcDbPoint
 10
77.55389400440055
 20
57.38636236426675
 30
0.0
  0
POINT
  5
156C
330
1209
100
AcDbEntity
  8
DEFPOINTS
 62
     0
100
AcDbPoint
 10
77.55389400440055
 20
41.06216692632023
 30
0.0
  0
ENDBLK
  5
1214
330
1209
100
AcDbEntity
  8
0
100
AcDbBlockEnd
  0
BLOCK
  5
122F
330
1223
100
AcDbEntity
  8
0
100
AcDbBlockBegin
  2
*D22
 70
     1
 10
0.0
 20
0.0
 30
0.0
  3
*D22
  1

  0
LINE
  5
1578
330
1223
100
AcDbEntity
  8
Z_OM_DIM
100
AcDbLine
 10
87.15389400440054
 20
62.36582341524197
 30
0.0
 11
87.15389400440054
 21
76.31481429429943
 31
0.0
  0
LINE
  5
1579
330
1223
100
AcDbEntity
  8
Z_OM_DIM
100
AcDbLine
 10
78.93389400440054
 20
62.36582341524197
 30
0.0
 11
78.93389400440054
 21
76.31481429429943
 31
0.0
  0
LINE
  5
157A
330
1223
100
AcDbEntity
  8
Z_OM_DIM
100
AcDbLine
 10
75.93389400440054
 20
74.81481429429942
 30
0.0
 11
72.93389400440054
 21
74.81481429429942
 31
0.0
  0
LINE
  5
157B
330
1223
100
AcDbEntity
  8
Z_OM_DIM
100
AcDbLine
 10
90.15389400440055
 20
74.81481429429942
 30
0.0
 11
112.5901922122412
 21
74.81481429429942
 31
0.0
  0
LINE
  5
157C
330
1223
100
AcDbEntity
  8
Z_OM_DIM
100
AcDbLine
 10
78.93389400440054
 20
74.81481429429942
 30
0.0
 11
87.15389400440054
 21
74.81481429429942
 31
0.0
  0
INSERT
  5
157D
330
1223
100
AcDbEntity
  8
Z_OM_DIM
100
AcDbBlockReference
  2
_OPEN30
 10
78.93389400440054
 20
74.81481429429942
 30
0.0
 41
3.0
 42
3.0
 43
3.0
  0
INSERT
  5
157E
330
1223
100
AcDbEntity
  8
Z_OM_DIM
100
AcDbBlockReference
  2
_OPEN30
 10
87.15389400440054
 20
74.81481429429942
 30
0.0
 41
3.0
 42
3.0
 43
3.0
 50
180.0
  0
MTEXT
  5
157F
330
1223
100
AcDbEntity
  8
Z_OM_DIM
100
AcDbMText
 10
104.6225922122412
 20
76.71481429429943
 30
0.0
 40
2.2
 41
0.0
 71
     5
 72
     1
  1
\A1;8.22}0.1
1001
ACAD
1000
MTEXTBEGIN
1070
    73
1070
     1
1070
    44
1040
1.0
1070
    74
1070
     0
1000
MTEXTEND
  0
POINT
  5
1580
330
1223
100
AcDbEntity
  8
DEFPOINTS
 62
     0
100
AcDbPoint
 10
87.15389400440054
 20
61.86582341524196
 30
0.0
  0
POINT
  5
1581
330
1223
100
AcDbEntity
  8
DEFPOINTS
 62
     0
100
AcDbPoint
 10
78.93389400440054
 20
61.86582341524196
 30
0.0
  0
POINT
  5
1582
330
1223
100
AcDbEntity
  8
DEFPOINTS
 62
     0
100
AcDbPoint
 10
78.93389400440054
 20
74.81481429429942
 30
0.0
  0
ENDBLK
  5
1230
330
1223
100
AcDbEntity
  8
0
100
AcDbBlockEnd
  0
BLOCK
  5
130B
330
12FF
100
AcDbEntity
  8
0
100
AcDbBlockBegin
  2
*D23
 70
     1
 10
0.0
 20
0.0
 30
0.0
  3
*D23
  1

  0
LINE
  5
16DB
330
12FF
100
AcDbEntity
  8
Z_OM_DIM
100
AcDbLine
 10
78.93389400440054
 20
62.36582341524197
 30
0.0
 11
78.93389400440054
 21
71.76758893976279
 31
0.0
  0
LINE
  5
16DC
330
12FF
100
AcDbEntity
  8
Z_OM_DIM
100
AcDbLine
 10
77.55389400440055
 20
59.29546445815593
 30
0.0
 11
77.55389400440055
 21
71.76758893976279
 31
0.0
  0
LINE
  5
16DD
330
12FF
100
AcDbEntity
  8
Z_OM_DIM
100
AcDbLine
 10
78.93389400440054
 20
70.26758893976278
 30
0.0
 11
81.93389400440054
 21
70.26758893976278
 31
0.0
  0
LINE
  5
16DE
330
12FF
100
AcDbEntity
  8
Z_OM_DIM
100
AcDbLine
 10
74.55389400440054
 20
70.26758893976278
 30
0.0
 11
56.94165852870543
 21
70.26758893976278
 31
0.0
  0
LINE
  5
16DF
330
12FF
100
AcDbEntity
  8
Z_OM_DIM
100
AcDbLine
 10
78.93389400440054
 20
70.26758893976278
 30
0.0
 11
77.55389400440055
 21
70.26758893976278
 31
0.0
  0
INSERT
  5
16E0
330
12FF
100
AcDbEntity
  8
Z_OM_DIM
100
AcDbBlockReference
  2
_DOTSMALL
 10
78.93389400440054
 20
70.26758893976278
 30
0.0
 41
3.0
 42
3.0
 43
3.0
 50
180.0
  0
INSERT
  5
16E1
330
12FF
100
AcDbEntity
  8
Z_OM_DIM
100
AcDbBlockReference
  2
_OPEN30
 10
77.55389400440055
 20
70.26758893976278
 30
0.0
 41
3.0
 42
3.0
 43
3.0
  0
MTEXT
  5
16E2
330
12FF
100
AcDbEntity
  8
Z_OM_DIM
100
AcDbMText
 10
62.49365852870543
 20
72.1675889397628
 30
0.0
 40
2.2
 41
0.0
 71
     5
 72
     1
  1
\A1;(1.38)
  0
POINT
  5
16E3
330
12FF
100
AcDbEntity
  8
DEFPOINTS
 62
     0
100
AcDbPoint
 10
78.93389400440054
 20
61.86582341524196
 30
0.0
  0
POINT
  5
16E4
330
12FF
100
AcDbEntity
  8
DEFPOINTS
 62
     0
100
AcDbPoint
 10
77.55389400440055
 20
58.79546445815593
 30
0.0
  0
POINT
  5
16E5
330
12FF
100
AcDbEntity
  8
DEFPOINTS
 62
     0
100
AcDbPoint
 10
77.55389400440055
 20
70.26758893976278
 30
0.0
  0
ENDBLK
  5
130C
330
12FF
100
AcDbEntity
  8
0
100
AcDbBlockEnd
  0
BLOCK
  5
131A
330
130E
100
AcDbEntity
  8
0
100
AcDbBlockBegin
  2
*D24
 70
     1
 10
0.0
 20
0.0
 30
0.0
  3
*D24
  1

  0
LINE
  5
16E6
330
130E
100
AcDbEntity
  8
Z_OM_DIM
100
AcDbLine
 10
78.93389400440054
 20
62.36582341524197
 30
0.0
 11
78.93389400440054
 21
71.76758893976279
 31
0.0
  0
LINE
  5
16E7
330
130E
100
AcDbEntity
  8
Z_OM_DIM
100
AcDbLine
 10
81.67389400440054
 20
62.36582341524197
 30
0.0
 11
81.67389400440054
 21
71.76758893976279
 31
0.0
  0
LINE
  5
16E8
330
130E
100
AcDbEntity
  8
Z_OM_DIM
100
AcDbLine
 10
78.93389400440054
 20
70.26758893976278
 30
0.0
 11
75.93389400440054
 21
70.26758893976278
 31
0.0
  0
LINE
  5
16E9
330
130E
100
AcDbEntity
  8
Z_OM_DIM
100
AcDbLine
 10
84.67389400440053
 20
70.26758893976278
 30
0.0
 11
112.7944517225476
 21
70.26758893976278
 31
0.0
  0
LINE
  5
16EA
330
130E
100
AcDbEntity
  8
Z_OM_DIM
100
AcDbLine
 10
78.93389400440054
 20
70.26758893976278
 30
0.0
 11
81.67389400440054
 21
70.26758893976278
 31
0.0
  0
INSERT
  5
16EB
330
130E
100
AcDbEntity
  8
Z_OM_DIM
100
AcDbBlockReference
  2
_DOTSMALL
 10
78.93389400440054
 20
70.26758893976278
 30
0.0
 41
3.0
 42
3.0
 43
3.0
  0
INSERT
  5
16EC
330
130E
100
AcDbEntity
  8
Z_OM_DIM
100
AcDbBlockReference
  2
_OPEN30
 10
81.67389400440054
 20
70.26758893976278
 30
0.0
 41
3.0
 42
3.0
 43
3.0
 50
180.0
  0
MTEXT
  5
16ED
330
130E
100
AcDbEntity
  8
Z_OM_DIM
100
AcDbMText
 10
104.8268517225476
 20
72.1675889397628
 30
0.0
 40
2.2
 41
0.0
 71
     5
 72
     1
  1
\A1;2.74}0.1
  0
POINT
  5
16EE
330
130E
100
AcDbEntity
  8
DEFPOINTS
 62
     0
100
AcDbPoint
 10
78.93389400440054
 20
61.86582341524196
 30
0.0
  0
POINT
  5
16EF
330
130E
100
AcDbEntity
  8
DEFPOINTS
 62
     0
100
AcDbPoint
 10
81.67389400440054
 20
61.86582341524196
 30
0.0
  0
POINT
  5
16F0
330
130E
100
AcDbEntity
  8
DEFPOINTS
 62
     0
100
AcDbPoint
 10
81.67389400440054
 20
70.26758893976278
 30
0.0
  0
ENDBLK
  5
131B
330
130E
100
AcDbEntity
  8
0
100
AcDbBlockEnd
  0
BLOCK
  5
1327
330
131D
100
AcDbEntity
  8
0
100
AcDbBlockBegin
  2
*D25
 70
     1
 10
0.0
 20
0.0
 30
0.0
  3
*D25
  1

  0
LINE
  5
1583
330
131D
100
AcDbEntity
  8
Z_OM_DIM
100
AcDbLine
 10
70.5488940044005
 20
63.34105441715286
 30
0.0
 11
70.5488940044005
 21
81.48546883025062
 31
0.0
  0
LINE
  5
1584
330
131D
100
AcDbEntity
  8
Z_OM_DIM
100
AcDbLine
 10
95.5388940044005
 20
63.41037450817204
 30
0.0
 11
95.5388940044005
 21
81.48546883025062
 31
0.0
  0
LINE
  5
1585
330
131D
100
AcDbEntity
  8
Z_OM_DIM
100
AcDbLine
 10
73.5488940044005
 20
79.98546883025063
 30
0.0
 11
92.5388940044005
 21
79.98546883025063
 31
0.0
  0
INSERT
  5
1586
330
131D
100
AcDbEntity
  8
Z_OM_DIM
100
AcDbBlockReference
  2
_OPEN30
 10
70.5488940044005
 20
79.98546883025063
 30
0.0
 41
3.0
 42
3.0
 43
3.0
 50
180.0
  0
INSERT
  5
1587
330
131D
100
AcDbEntity
  8
Z_OM_DIM
100
AcDbBlockReference
  2
_OPEN30
 10
95.5388940044005
 20
79.98546883025063
 30
0.0
 41
3.0
 42
3.0
 43
3.0
  0
MTEXT
  5
1588
330
131D
100
AcDbEntity
  8
Z_OM_DIM
100
AcDbMText
 10
83.04389400440049
 20
81.88546883025063
 30
0.0
 40
2.2
 41
0.0
 71
     5
 72
     1
  1
\A1;24.99}0.1
1001
ACAD
1000
MTEXTBEGIN
1070
    73
1070
     1
1070
    44
1040
1.0
1070
    74
1070
     0
1000
MTEXTEND
  0
POINT
  5
1589
330
131D
100
AcDbEntity
  8
DEFPOINTS
 62
     0
100
AcDbPoint
 10
70.5488940044005
 20
62.84105441715286
 30
0.0
  0
POINT
  5
158A
330
131D
100
AcDbEntity
  8
DEFPOINTS
 62
     0
100
AcDbPoint
 10
95.5388940044005
 20
62.91037450817203
 30
0.0
  0
POINT
  5
158B
330
131D
100
AcDbEntity
  8
DEFPOINTS
 62
     0
100
AcDbPoint
 10
95.5388940044005
 20
79.98546883025063
 30
0.0
  0
ENDBLK
  5
1328
330
131D
100
AcDbEntity
  8
0
100
AcDbBlockEnd
  0
BLOCK
  5
1345
330
1339
100
AcDbEntity
  8
0
100
AcDbBlockBegin
  2
*D26
 70
     1
 10
0.0
 20
0.0
 30
0.0
  3
*D26
  1

  0
LINE
  5
1557
330
1339
100
AcDbEntity
  8
Z_OM_DIM
100
AcDbLine
 10
77.58571334185856
 20
60.93091341121134
 30
0.0
 11
60.05765170644465
 21
60.93091341121134
 31
0.0
  0
LINE
  5
1558
330
1339
100
AcDbEntity
  8
Z_OM_DIM
100
AcDbLine
 10
76.00516824652132
 20
58.09091341121133
 30
0.0
 11
60.05765170644465
 21
58.09091341121133
 31
0.0
  0
LINE
  5
1559
330
1339
100
AcDbEntity
  8
Z_OM_DIM
100
AcDbLine
 10
61.55765170644466
 20
63.93091341121134
 30
0.0
 11
61.55765170644466
 21
66.93091341121133
 31
0.0
  0
LINE
  5
155A
330
1339
100
AcDbEntity
  8
Z_OM_DIM
100
AcDbLine
 10
61.55765170644466
 20
55.09091341121133
 30
0.0
 11
61.55765170644465
 21
43.36291341121133
 31
0.0
  0
LINE
  5
155B
330
1339
100
AcDbEntity
  8
Z_OM_DIM
100
AcDbLine
 10
61.55765170644466
 20
60.93091341121134
 30
0.0
 11
61.55765170644466
 21
58.09091341121133
 31
0.0
  0
INSERT
  5
155C
330
1339
100
AcDbEntity
  8
Z_OM_DIM
100
AcDbBlockReference
  2
_OPEN30
 10
61.55765170644466
 20
60.93091341121134
 30
0.0
 41
3.0
 42
3.0
 43
3.0
 50
270.0
  0
INSERT
  5
155D
330
1339
100
AcDbEntity
  8
Z_OM_DIM
100
AcDbBlockReference
  2
_OPEN30
 10
61.55765170644466
 20
58.09091341121133
 30
0.0
 41
3.0
 42
3.0
 43
3.0
 50
90.0
  0
MTEXT
  5
155E
330
1339
100
AcDbEntity
  8
Z_OM_DIM
100
AcDbMText
 10
59.65765170644464
 20
47.72691341121134
 30
0.0
 40
2.2
 41
0.0
 71
     5
 72
     1
  1
\A1;2.84
 11
0.0000000000000001
 21
1.0
 31
0.0
1001
ACAD
1000
MTEXTBEGIN
1070
    73
1070
     1
1070
    44
1040
1.0
1070
    74
1070
     0
1000
MTEXTEND
  0
POINT
  5
155F
330
1339
100
AcDbEntity
  8
DEFPOINTS
 62
     0
100
AcDbPoint
 10
78.08571334185856
 20
60.93091341121134
 30
0.0
  0
POINT
  5
1560
330
1339
100
AcDbEntity
  8
DEFPOINTS
 62
     0
100
AcDbPoint
 10
76.50516824652132
 20
58.09091341121133
 30
0.0
  0
POINT
  5
1561
330
1339
100
AcDbEntity
  8
DEFPOINTS
 62
     0
100
AcDbPoint
 10
61.55765170644466
 20
58.09091341121133
 30
0.0
  0
ENDBLK
  5
1346
330
1339
100
AcDbEntity
  8
0
100
AcDbBlockEnd
  0
BLOCK
  5
1425
330
141C
100
AcDbEntity
  8
0
100
AcDbBlockBegin
  2
*D27
 70
     1
 10
0.0
 20
0.0
 30
0.0
  3
*D27
  1

  0
LINE
  5
160C
330
141C
100
AcDbEntity
  8
Z_OM_DIM
100
AcDbLine
 10
91.174239807785
 20
60.96342631785498
 30
0.0
 11
88.32772620129659
 21
61.91071734392693
 31
0.0
  0
LINE
  5
160D
330
141C
100
AcDbEntity
  8
Z_OM_DIM
100
AcDbLine
 10
99.90354820101607
 20
58.05840050456769
 30
0.0
 11
122.3788605675533
 21
50.5788431736439
 31
0.0
  0
LINE
  5
160E
330
141C
100
AcDbEntity
  8
Z_OM_DIM
100
AcDbLine
 10
94.02075341427339
 20
60.01613529178303
 30
0.0
 11
97.05703459452768
 21
59.00569153063963
 31
0.0
  0
INSERT
  5
160F
330
141C
100
AcDbEntity
  8
Z_OM_DIM
100
AcDbBlockReference
  2
_OPEN30
 10
94.02075341427339
 20
60.01613529178303
 30
0.0
 41
3.0
 42
3.0
 43
3.0
 50
341.5930776740004
  0
INSERT
  5
1610
330
141C
100
AcDbEntity
  8
Z_OM_DIM
100
AcDbBlockReference
  2
_OPEN30
 10
97.05703459452768
 20
59.00569153063963
 30
0.0
 41
3.0
 42
3.0
 43
3.0
 50
161.5930776740004
  0
MTEXT
  5
1611
330
141C
100
AcDbEntity
  8
Z_OM_DIM
100
AcDbMText
 10
113.1644121707078
 20
55.64776827684585
 30
0.0
 40
2.2
 41
0.0
 71
     5
 72
     1
  1
\A1;2-\U+22053.2}0.1
 11
0.9488378688294647
 21
-0.3157636753573145
 31
0.0
1001
ACAD
1000
MTEXTBEGIN
1070
    73
1070
     1
1070
    44
1040
1.0
1070
    74
1070
     0
1000
MTEXTEND
  0
POINT
  5
1612
330
141C
100
AcDbEntity
  8
DEFPOINTS
 62
     0
100
AcDbPoint
 10
97.05703459452768
 20
59.00569153063963
 30
0.0
  0
POINT
  5
1613
330
141C
100
AcDbEntity
  8
DEFPOINTS
 62
     0
100
AcDbPoint
 10
94.02075341427339
 20
60.01613529178303
 30
0.0
  0
ENDBLK
  5
1426
330
141C
100
AcDbEntity
  8
0
100
AcDbBlockEnd
  0
BLOCK
  5
15CF
330
15C3
100
AcDbEntity
  8
0
100
AcDbBlockBegin
  2
*D28
 70
     1
 10
0.0
 20
0.0
 30
0.0
  3
*D28
  1

  0
LINE
  5
16F1
330
15C3
100
AcDbEntity
  8
Z_OM_DIM
100
AcDbLine
 10
-15.89999999999999
 20
-34.97358181223903
 30
0.0
 11
-23.78261799790334
 21
-34.97358181223902
 31
0.0
  0
LINE
  5
16F2
330
15C3
100
AcDbEntity
  8
Z_OM_DIM
100
AcDbLine
 10
-15.24499999999998
 20
-34.67358181223907
 30
0.0
 11
-23.78261799790334
 21
-34.67358181223907
 31
0.0
  0
LINE
  5
16F3
330
15C3
100
AcDbEntity
  8
Z_OM_DIM
100
AcDbLine
 10
-22.28261799790334
 20
-34.97358181223902
 30
0.0
 11
-22.28261799790334
 21
-37.97358181223902
 31
0.0
  0
LINE
  5
16F4
330
15C3
100
AcDbEntity
  8
Z_OM_DIM
100
AcDbLine
 10
-22.28261799790334
 20
-31.67358181223907
 30
0.0
 11
-22.28261799790334
 21
-20.75174947642465
 31
0.0
  0
LINE
  5
16F5
330
15C3
100
AcDbEntity
  8
Z_OM_DIM
100
AcDbLine
 10
-22.28261799790334
 20
-34.97358181223902
 30
0.0
 11
-22.28261799790334
 21
-34.67358181223907
 31
0.0
  0
INSERT
  5
16F6
330
15C3
100
AcDbEntity
  8
Z_OM_DIM
100
AcDbBlockReference
  2
_DOTSMALL
 10
-22.28261799790334
 20
-34.97358181223902
 30
0.0
 41
3.0
 42
3.0
 43
3.0
 50
90.0
  0
INSERT
  5
16F7
330
15C3
100
AcDbEntity
  8
Z_OM_DIM
100
AcDbBlockReference
  2
_OPEN30
 10
-22.28261799790334
 20
-34.67358181223907
 30
0.0
 41
3.0
 42
3.0
 43
3.0
 50
270.0
  0
MTEXT
  5
16F8
330
15C3
100
AcDbEntity
  8
Z_OM_DIM
100
AcDbMText
 10
-24.18261799790333
 20
-23.72974947642465
 30
0.0
 40
2.2
 41
0.0
 71
     5
 72
     1
  1
\A1;0.3
 11
0.0000000000000001
 21
1.0
 31
0.0
  0
POINT
  5
16F9
330
15C3
100
AcDbEntity
  8
DEFPOINTS
 62
     0
100
AcDbPoint
 10
-15.39999999999999
 20
-34.97358181223903
 30
0.0
  0
POINT
  5
16FA
330
15C3
100
AcDbEntity
  8
DEFPOINTS
 62
     0
100
AcDbPoint
 10
-14.74499999999999
 20
-34.67358181223907
 30
0.0
  0
POINT
  5
16FB
330
15C3
100
AcDbEntity
  8
DEFPOINTS
 62
     0
100
AcDbPoint
 10
-22.28261799790334
 20
-34.67358181223907
 30
0.0
  0
ENDBLK
  5
15D0
330
15C3
100
AcDbEntity
  8
0
100
AcDbBlockEnd
  0
ENDSEC
  0
SECTION
  2
ENTITIES
  0
DIMENSION
  5
C0C
330
17
100
AcDbEntity
  8
Z_OM_DIM
100
AcDbDimension
  2
*D7
 10
109.7243711244777
 20
-4.499999999999996
 30
0.0
 11
109.7243711244777
 21
-0.2602162102070906
 31
0.0
 70
   160
  3
STANDARD
100
AcDbAlignedDimension
 13
120.3461309860555
 23
4.5
 33
0.0
 14
120.3461309860555
 24
-4.5
 34
0.0
 50
90.0
100
AcDbRotatedDimension
  0
DIMENSION
  5
C0E
330
17
100
AcDbEntity
  8
Z_OM_DIM
100
AcDbDimension
  2
*D8
 10
127.7761309860555
 20
13.31597696642099
 30
0.0
 11
117.8081309860555
 21
13.31597696642099
 31
0.0
 70
   160
  3
STANDARD
100
AcDbAlignedDimension
 13
129.1561309860555
 23
-0.4850899959693465
 33
0.0
 14
127.7761309860555
 24
2.124551046944603
 34
0.0
100
AcDbRotatedDimension
  0
DIMENSION
  5
C0F
330
17
100
AcDbEntity
  8
Z_OM_DIM
100
AcDbDimension
  2
*D9
 10
129.1561309860555
 20
-13.81308773614849
 30
0.0
 11
116.6111309860555
 21
-13.81308773614849
 31
0.0
 70
   160
  3
STANDARD
100
AcDbAlignedDimension
 13
131.8961309860555
 23
-2.354910004030628
 33
0.0
 14
129.1561309860555
 24
-2.354910004030628
 34
0.0
100
AcDbRotatedDimension
  0
DIMENSION
  5
C10
330
17
100
AcDbEntity
  8
Z_OM_DIM
100
AcDbDimension
  2
*D10
 10
138.7561309860555
 20
18.77409567368866
 30
0.0
 11
116.8181309860555
 21
18.77409567368866
 31
0.0
 70
   160
  3
STANDARD
100
AcDbAlignedDimension
 13
127.7761309860555
 23
2.124551046944603
 33
0.0
 14
138.7561309860555
 24
2.124551046944603
 34
0.0
100
AcDbRotatedDimension
  0
DIMENSION
  5
C11
330
17
100
AcDbEntity
  8
Z_OM_DIM
100
AcDbDimension
  2
*D11
 10
137.3761309860555
 20
-19.87311498689413
 30
0.0
 11
116.6111309860555
 21
-19.87311498689413
 31
0.0
 70
   160
  3
STANDARD
100
AcDbAlignedDimension
 13
129.1561309860555
 23
-2.354910004030628
 33
0.0
 14
137.3761309860555
 24
-2.354910004030628
 34
0.0
100
AcDbRotatedDimension
  0
LINE
  5
C12
330
17
100
AcDbEntity
  8
Z_OM_OUTLINE
100
AcDbLine
 10
123.3461309860555
 20
-4.499999999999985
 30
0.0
 11
120.3461309860555
 21
-4.499999999999985
 31
0.0
  0
LINE
  5
C13
330
17
100
AcDbEntity
  8
Z_OM_OUTLINE
100
AcDbLine
 10
123.3461309860555
 20
-6.249999999999985
 30
0.0
 11
123.3461309860555
 21
-4.499999999999985
 31
0.0
  0
LINE
  5
C14
330
17
100
AcDbEntity
  8
Z_OM_OUTLINE
100
AcDbLine
 10
143.1861309860555
 20
-4.499999999999985
 30
0.0
 11
143.1861309860555
 21
-6.249999999999985
 31
0.0
  0
LINE
  5
C15
330
17
100
AcDbEntity
  8
Z_OM_OUTLINE
100
AcDbLine
 10
146.1861309860555
 20
-4.499999999999985
 30
0.0
 11
143.1861309860555
 21
-4.499999999999985
 31
0.0
  0
LINE
  5
C16
330
17
100
AcDbEntity
  8
Z_OM_OUTLINE
100
AcDbLine
 10
146.1861309860555
 20
-6.249999999999985
 30
0.0
 11
146.1861309860555
 21
-4.499999999999985
 31
0.0
  0
LINE
  5
C17
330
17
100
AcDbEntity
  8
Z_OM_OUTLINE
100
AcDbLine
 10
148.6661309860555
 20
-6.249999999999985
 30
0.0
 11
148.6661309860555
 21
6.25
 31
0.0
  0
LINE
  5
C18
330
17
100
AcDbEntity
  8
Z_OM_OUTLINE
100
AcDbLine
 10
146.1861309860555
 20
4.500000000000014
 30
0.0
 11
146.1861309860555
 21
6.25
 31
0.0
  0
LINE
  5
C19
330
17
100
AcDbEntity
  8
Z_OM_OUTLINE
100
AcDbLine
 10
143.1861309860555
 20
4.500000000000014
 30
0.0
 11
146.1861309860555
 21
4.500000000000014
 31
0.0
  0
LINE
  5
C1A
330
17
100
AcDbEntity
  8
Z_OM_OUTLINE
100
AcDbLine
 10
143.1861309860555
 20
6.25
 30
0.0
 11
143.1861309860555
 21
4.500000000000014
 31
0.0
  0
LINE
  5
C1B
330
17
100
AcDbEntity
  8
Z_OM_OUTLINE
100
AcDbLine
 10
123.3461309860555
 20
4.500000000000014
 30
0.0
 11
123.3461309860555
 21
6.25
 31
0.0
  0
LINE
  5
C1C
330
17
100
AcDbEntity
  8
Z_OM_OUTLINE
100
AcDbLine
 10
120.3461309860555
 20
4.500000000000014
 30
0.0
 11
123.3461309860555
 21
4.500000000000014
 31
0.0
  0
LINE
  5
C1D
330
17
100
AcDbEntity
  8
Z_OM_OUTLINE
100
AcDbLine
 10
120.3461309860555
 20
6.250000000000014
 30
0.0
 11
120.3461309860555
 21
4.500000000000014
 31
0.0
  0
LINE
  5
C1E
330
17
100
AcDbEntity
  8
Z_OM_OUTLINE
100
AcDbLine
 10
148.6661309860555
 20
6.25
 30
0.0
 11
117.8661309860556
 21
6.250000000000014
 31
0.0
  0
LINE
  5
C1F
330
17
100
AcDbEntity
  8
Z_OM_OUTLINE
100
AcDbLine
 10
117.8661309860556
 20
6.250000000000014
 30
0.0
 11
117.8661309860556
 21
-6.249999999999985
 31
0.0
  0
LINE
  5
C20
330
17
100
AcDbEntity
  8
Z_OM_OUTLINE
100
AcDbLine
 10
117.8661309860556
 20
-6.249999999999985
 30
0.0
 11
148.6661309860555
 21
-6.249999999999985
 31
0.0
  0
LINE
  5
C21
330
17
100
AcDbEntity
  8
Z_OM_OUTLINE
100
AcDbLine
 10
120.3461309860555
 20
-4.499999999999985
 30
0.0
 11
120.3461309860555
 21
-6.249999999999985
 31
0.0
  0
CIRCLE
  5
C22
330
17
100
AcDbEntity
  8
Z_OM_OUTLINE
100
AcDbCircle
 10
120.7711309860555
 20
0.0000000000000142
 30
0.0
 40
2.550000000000039
  0
CIRCLE
  5
C23
330
17
100
AcDbEntity
  8
Z_OM_OUTLINE
100
AcDbCircle
 10
120.7711309860555
 20
0.0000000000000142
 30
0.0
 40
1.550000000000039
  0
CIRCLE
  5
C24
330
17
100
AcDbEntity
  8
Z_OM_OUTLINE
100
AcDbCircle
 10
145.7611309860555
 20
0.0
 30
0.0
 40
2.550000000000011
  0
CIRCLE
  5
C25
330
17
100
AcDbEntity
  8
Z_OM_OUTLINE
100
AcDbCircle
 10
145.7611309860555
 20
0.0
 30
0.0
 40
1.550000000000011
  0
LINE
  5
C26
330
17
100
AcDbEntity
  8
Z_OM_OUTLINE
100
AcDbLine
 10
123.7661309860555
 20
-4.499999999999985
 30
0.0
 11
142.7661309860555
 21
-4.499999999999985
 31
0.0
  0
LINE
  5
C27
330
17
100
AcDbEntity
  8
Z_OM_OUTLINE
100
AcDbLine
 10
142.7661309860555
 20
4.500000000000014
 30
0.0
 11
123.7661309860555
 21
4.500000000000014
 31
0.0
  0
LINE
  5
C28
330
17
100
AcDbEntity
  8
Z_OM_OUTLINE
100
AcDbLine
 10
123.7661309860555
 20
4.500000000000014
 30
0.0
 11
123.7661309860555
 21
-4.499999999999985
 31
0.0
  0
LINE
  5
C29
330
17
100
AcDbEntity
  8
Z_OM_OUTLINE
100
AcDbLine
 10
124.7661309860555
 20
4.500000000000014
 30
0.0
 11
124.7661309860555
 21
-4.499999999999985
 31
0.0
  0
LINE
  5
C2A
330
17
100
AcDbEntity
  8
Z_OM_OUTLINE
100
AcDbLine
 10
126.2661309860555
 20
4.500000000000014
 30
0.0
 11
126.2661309860555
 21
-4.499999999999985
 31
0.0
  0
LINE
  5
C2B
330
17
100
AcDbEntity
  8
Z_OM_OUTLINE
100
AcDbLine
 10
140.2661309860555
 20
4.500000000000014
 30
0.0
 11
140.2661309860555
 21
-4.499999999999985
 31
0.0
  0
LINE
  5
C2C
330
17
100
AcDbEntity
  8
Z_OM_OUTLINE
100
AcDbLine
 10
141.7661309860555
 20
-4.499999999999985
 30
0.0
 11
141.7661309860555
 21
4.500000000000014
 31
0.0
  0
LINE
  5
C2D
330
17
100
AcDbEntity
  8
Z_OM_OUTLINE
100
AcDbLine
 10
142.7661309860555
 20
-4.499999999999985
 30
0.0
 11
142.7661309860555
 21
4.500000000000014
 31
0.0
  0
LINE
  5
C2E
330
17
100
AcDbEntity
  8
Z_OM_OUTLINE
100
AcDbLine
 10
128.1261309860555
 20
1.670000000000015
 30
0.0
 11
127.4261309860555
 21
1.670000000000015
 31
0.0
  0
LINE
  5
C2F
330
17
100
AcDbEntity
  8
Z_OM_OUTLINE
100
AcDbLine
 10
127.4261309860555
 20
1.670000000000015
 30
0.0
 11
127.4261309860555
 21
1.170000000000015
 31
0.0
  0
LINE
  5
C30
330
17
100
AcDbEntity
  8
Z_OM_OUTLINE
100
AcDbLine
 10
127.4261309860555
 20
1.170000000000015
 30
0.0
 11
128.1261309860555
 21
1.170000000000015
 31
0.0
  0
LINE
  5
C31
330
17
100
AcDbEntity
  8
Z_OM_OUTLINE
100
AcDbLine
 10
128.1261309860555
 20
1.170000000000015
 30
0.0
 11
128.1261309860555
 21
1.670000000000015
 31
0.0
  0
LINE
  5
C32
330
17
100
AcDbEntity
  8
Z_OM_OUTLINE
100
AcDbLine
 10
129.5061309860555
 20
-1.169999999999987
 30
0.0
 11
128.8061309860555
 21
-1.169999999999987
 31
0.0
  0
LINE
  5
C33
330
17
100
AcDbEntity
  8
Z_OM_OUTLINE
100
AcDbLine
 10
128.8061309860555
 20
-1.169999999999987
 30
0.0
 11
128.8061309860555
 21
-1.669999999999987
 31
0.0
  0
LINE
  5
C34
330
17
100
AcDbEntity
  8
Z_OM_OUTLINE
100
AcDbLine
 10
128.8061309860555
 20
-1.669999999999987
 30
0.0
 11
129.5061309860555
 21
-1.669999999999987
 31
0.0
  0
LINE
  5
C35
330
17
100
AcDbEntity
  8
Z_OM_OUTLINE
100
AcDbLine
 10
129.5061309860555
 20
-1.669999999999987
 30
0.0
 11
129.5061309860555
 21
-1.169999999999987
 31
0.0
  0
LINE
  5
C36
330
17
100
AcDbEntity
  8
Z_OM_OUTLINE
100
AcDbLine
 10
130.8761309860555
 20
1.670000000000015
 30
0.0
 11
130.1761309860555
 21
1.670000000000015
 31
0.0
  0
LINE
  5
C37
330
17
100
AcDbEntity
  8
Z_OM_OUTLINE
100
AcDbLine
 10
130.8761309860555
 20
1.170000000000015
 30
0.0
 11
130.8761309860555
 21
1.670000000000015
 31
0.0
  0
LINE
  5
C38
330
17
100
AcDbEntity
  8
Z_OM_OUTLINE
100
AcDbLine
 10
130.1761309860555
 20
1.670000000000015
 30
0.0
 11
130.1761309860555
 21
1.170000000000015
 31
0.0
  0
LINE
  5
C39
330
17
100
AcDbEntity
  8
Z_OM_OUTLINE
100
AcDbLine
 10
130.1761309860555
 20
1.170000000000015
 30
0.0
 11
130.8761309860555
 21
1.170000000000015
 31
0.0
  0
LINE
  5
C3A
330
17
100
AcDbEntity
  8
Z_OM_OUTLINE
100
AcDbLine
 10
132.2461309860555
 20
-1.669999999999987
 30
0.0
 11
132.2461309860555
 21
-1.169999999999987
 31
0.0
  0
LINE
  5
C3B
330
17
100
AcDbEntity
  8
Z_OM_OUTLINE
100
AcDbLine
 10
131.5461309860555
 20
-1.669999999999987
 30
0.0
 11
132.2461309860555
 21
-1.669999999999987
 31
0.0
  0
LINE
  5
C3C
330
17
100
AcDbEntity
  8
Z_OM_OUTLINE
100
AcDbLine
 10
132.2461309860555
 20
-1.169999999999987
 30
0.0
 11
131.5461309860555
 21
-1.169999999999987
 31
0.0
  0
LINE
  5
C3D
330
17
100
AcDbEntity
  8
Z_OM_OUTLINE
100
AcDbLine
 10
131.5461309860555
 20
-1.169999999999987
 30
0.0
 11
131.5461309860555
 21
-1.669999999999987
 31
0.0
  0
LINE
  5
C3E
330
17
100
AcDbEntity
  8
Z_OM_OUTLINE
100
AcDbLine
 10
132.9161309860555
 20
1.170000000000015
 30
0.0
 11
133.6161309860555
 21
1.170000000000015
 31
0.0
  0
LINE
  5
C3F
330
17
100
AcDbEntity
  8
Z_OM_OUTLINE
100
AcDbLine
 10
133.6161309860555
 20
1.670000000000015
 30
0.0
 11
132.9161309860555
 21
1.670000000000015
 31
0.0
  0
LINE
  5
C40
330
17
100
AcDbEntity
  8
Z_OM_OUTLINE
100
AcDbLine
 10
132.9161309860555
 20
1.670000000000015
 30
0.0
 11
132.9161309860555
 21
1.170000000000015
 31
0.0
  0
LINE
  5
C41
330
17
100
AcDbEntity
  8
Z_OM_OUTLINE
100
AcDbLine
 10
133.6161309860555
 20
1.170000000000015
 30
0.0
 11
133.6161309860555
 21
1.670000000000015
 31
0.0
  0
LINE
  5
C42
330
17
100
AcDbEntity
  8
Z_OM_OUTLINE
100
AcDbLine
 10
134.2861309860555
 20
-1.669999999999987
 30
0.0
 11
134.9861309860555
 21
-1.669999999999987
 31
0.0
  0
LINE
  5
C43
330
17
100
AcDbEntity
  8
Z_OM_OUTLINE
100
AcDbLine
 10
134.9861309860555
 20
-1.169999999999987
 30
0.0
 11
134.2861309860555
 21
-1.169999999999987
 31
0.0
  0
LINE
  5
C44
330
17
100
AcDbEntity
  8
Z_OM_OUTLINE
100
AcDbLine
 10
134.9861309860555
 20
-1.669999999999987
 30
0.0
 11
134.9861309860555
 21
-1.169999999999987
 31
0.0
  0
LINE
  5
C45
330
17
100
AcDbEntity
  8
Z_OM_OUTLINE
100
AcDbLine
 10
134.2861309860555
 20
-1.169999999999987
 30
0.0
 11
134.2861309860555
 21
-1.669999999999987
 31
0.0
  0
LINE
  5
C46
330
17
100
AcDbEntity
  8
Z_OM_OUTLINE
100
AcDbLine
 10
136.3561309860555
 20
1.670000000000015
 30
0.0
 11
135.6561309860555
 21
1.670000000000015
 31
0.0
  0
LINE
  5
C47
330
17
100
AcDbEntity
  8
Z_OM_OUTLINE
100
AcDbLine
 10
135.6561309860555
 20
1.170000000000015
 30
0.0
 11
136.3561309860555
 21
1.170000000000015
 31
0.0
  0
LINE
  5
C48
330
17
100
AcDbEntity
  8
Z_OM_OUTLINE
100
AcDbLine
 10
136.3561309860555
 20
1.170000000000015
 30
0.0
 11
136.3561309860555
 21
1.670000000000015
 31
0.0
  0
LINE
  5
C49
330
17
100
AcDbEntity
  8
Z_OM_OUTLINE
100
AcDbLine
 10
135.6561309860555
 20
1.670000000000015
 30
0.0
 11
135.6561309860555
 21
1.170000000000015
 31
0.0
  0
LINE
  5
C4A
330
17
100
AcDbEntity
  8
Z_OM_OUTLINE
100
AcDbLine
 10
137.7261309860555
 20
-1.669999999999987
 30
0.0
 11
137.7261309860555
 21
-1.169999999999987
 31
0.0
  0
LINE
  5
C4B
330
17
100
AcDbEntity
  8
Z_OM_OUTLINE
100
AcDbLine
 10
137.7261309860555
 20
-1.169999999999987
 30
0.0
 11
137.0261309860555
 21
-1.169999999999987
 31
0.0
  0
LINE
  5
C4C
330
17
100
AcDbEntity
  8
Z_OM_OUTLINE
100
AcDbLine
 10
137.0261309860555
 20
-1.169999999999987
 30
0.0
 11
137.0261309860555
 21
-1.669999999999987
 31
0.0
  0
LINE
  5
C4D
330
17
100
AcDbEntity
  8
Z_OM_OUTLINE
100
AcDbLine
 10
137.0261309860555
 20
-1.669999999999987
 30
0.0
 11
137.7261309860555
 21
-1.669999999999987
 31
0.0
  0
LINE
  5
C4E
330
17
100
AcDbEntity
  8
Z_OM_OUTLINE
100
AcDbLine
 10
138.4061309860555
 20
1.170000000000015
 30
0.0
 11
139.1061309860555
 21
1.170000000000015
 31
0.0
  0
LINE
  5
C4F
330
17
100
AcDbEntity
  8
Z_OM_OUTLINE
100
AcDbLine
 10
139.1061309860555
 20
1.170000000000015
 30
0.0
 11
139.1061309860555
 21
1.670000000000015
 31
0.0
  0
LINE
  5
C50
330
17
100
AcDbEntity
  8
Z_OM_OUTLINE
100
AcDbLine
 10
139.1061309860555
 20
1.670000000000015
 30
0.0
 11
138.4061309860555
 21
1.670000000000015
 31
0.0
  0
LINE
  5
C51
330
17
100
AcDbEntity
  8
Z_OM_OUTLINE
100
AcDbLine
 10
138.4061309860555
 20
1.670000000000015
 30
0.0
 11
138.4061309860555
 21
1.170000000000015
 31
0.0
  0
LINE
  5
C52
330
17
100
AcDbEntity
  8
Z_OM_CENTER
100
AcDbLine
 10
120.7711309860555
 20
3.39946109696072
 30
0.0
 11
120.7711309860555
 21
-3.399461096960692
 31
0.0
  0
LINE
  5
C53
330
17
100
AcDbEntity
  8
Z_OM_CENTER
100
AcDbLine
 10
145.7611309860555
 20
3.399461096960706
 30
0.0
 11
145.7611309860555
 21
-3.330141005941513
 31
0.0
  0
LINE
  5
C54
330
17
100
AcDbEntity
  8
Z_OM_CENTER
100
AcDbLine
 10
128.3079503235137
 20
-1.419999999999987
 30
0.0
 11
138.2243116485975
 21
-1.419999999999987
 31
0.0
  0
LINE
  5
C55
330
17
100
AcDbEntity
  8
Z_OM_CENTER
100
AcDbLine
 10
126.7274052281765
 20
1.420000000000015
 30
0.0
 11
139.8048567439347
 21
1.420000000000015
 31
0.0
  0
LINE
  5
C56
330
17
100
AcDbEntity
  8
Z_OM_CENTER
 48
3.0
100
AcDbLine
 10
115.8661309860556
 20
0.0
 30
0.0
 11
150.6661309860555
 21
0.0
 31
0.0
  0
LINE
  5
C57
330
17
100
AcDbEntity
  8
Z_OM_CENTER
100
AcDbLine
 10
137.3761309860555
 20
-0.4850899959693465
 30
0.0
 11
137.3761309860555
 21
-2.354910004030628
 31
0.0
  0
LINE
  5
C58
330
17
100
AcDbEntity
  8
Z_OM_CENTER
100
AcDbLine
 10
131.8961309860555
 20
-0.4850899959693465
 30
0.0
 11
131.8961309860555
 21
-2.354910004030628
 31
0.0
  0
LINE
  5
C59
330
17
100
AcDbEntity
  8
Z_OM_CENTER
100
AcDbLine
 10
129.1561309860555
 20
-0.4850899959693465
 30
0.0
 11
129.1561309860555
 21
-2.354910004030628
 31
0.0
  0
LINE
  5
C5A
330
17
100
AcDbEntity
  8
Z_OM_CENTER
 48
3.0
100
AcDbLine
 10
133.2661309860556
 20
10.75614349804743
 30
0.0
 11
133.2661309860556
 21
-11.58432056688691
 31
0.0
  0
LINE
  5
C5B
330
17
100
AcDbEntity
  8
Z_OM_CENTER
100
AcDbLine
 10
127.7761309860555
 20
2.124551046944603
 30
0.0
 11
127.7761309860555
 21
0.7154489530554145
 31
0.0
  0
LINE
  5
C5C
330
17
100
AcDbEntity
  8
Z_OM_CENTER
100
AcDbLine
 10
138.7561309860555
 20
2.124551046944603
 30
0.0
 11
138.7561309860555
 21
0.7154489530554145
 31
0.0
  0
DIMENSION
  5
C5D
330
17
100
AcDbEntity
  8
Z_OM_DIM
100
AcDbDimension
  2
*D12
 10
5.14
 20
-51.0167328833066
 30
0.0
 11
16.18
 21
-51.0167328833066
 31
0.0
 70
   160
  3
STANDARD
100
AcDbAlignedDimension
 13
5.840000000000003
 23
-45.17358181223906
 33
0.0
 14
5.14
 24
-45.17358181223906
 34
0.0
100
AcDbRotatedDimension
  0
DIMENSION
  5
C5E
330
17
100
AcDbEntity
  8
Z_OM_DIM
100
AcDbDimension
  2
*D13
 10
9.499999999999998
 20
-57.14242959650697
 30
0.0
 11
0.1834053309372336
 21
-57.14242959650697
 31
0.0
 70
   160
  3
STANDARD
100
AcDbAlignedDimension
 13
-9.500000000000014
 23
-41.97358181223905
 33
0.0
 14
9.5
 24
-41.97358181223905
 34
0.0
100
AcDbRotatedDimension
  0
DIMENSION
  5
C5F
330
17
100
AcDbEntity
  8
Z_OM_DIM
100
AcDbDimension
  2
*D14
 10
-22.28261799790334
 20
-35.47358181223903
 30
0.0
 11
-22.28261799790334
 21
-50.53489364201082
 31
0.0
 70
   160
  3
STANDARD
100
AcDbAlignedDimension
 13
-15.39999999999999
 23
-34.97358181223903
 33
0.0
 14
-15.39999999999999
 24
-35.47358181223904
 34
0.0
 50
90.0
100
AcDbRotatedDimension
1001
ACAD
1000
DSTYLE
1002
{
1070
   173
1070
     1
1070
     5
1000

1070
     6
1000
DOTSMALL
1070
     7
1000
OPEN30
1002
}
  0
DIMENSION
  5
C61
330
17
100
AcDbEntity
  8
Z_OM_DIM
100
AcDbDimension
  2
*D15
 10
-27.78612065000546
 20
-45.17358181223905
 30
0.0
 11
-27.78612065000545
 21
-54.34958181223906
 31
0.0
 70
   160
  3
STANDARD
100
AcDbAlignedDimension
 13
-9.500000000000014
 23
-41.97358181223905
 33
0.0
 14
-5.840000000000003
 24
-45.17358181223906
 34
0.0
 50
90.0
100
AcDbRotatedDimension
1001
ACAD
1000
DSTYLE
1002
{
1070
   173
1070
     1
1070
     5
1000

1070
     6
1000
DOTSMALL
1070
     7
1000
OPEN30
1002
}
  0
DIMENSION
  5
C62
330
17
100
AcDbEntity
  8
Z_OM_DIM
100
AcDbDimension
  2
*D16
 10
-27.78612065000545
 20
-34.97358181223902
 30
0.0
 11
-27.78612065000545
 21
-38.47358181223904
 31
0.0
 70
   160
  3
STANDARD
100
AcDbAlignedDimension
 13
-9.500000000000014
 23
-41.97358181223905
 33
0.0
 14
-15.39999999999999
 24
-34.97358181223903
 34
0.0
 50
90.0
100
AcDbRotatedDimension
1001
ACAD
1000
DSTYLE
1002
{
1070
   173
1070
     1
1070
     5
1000

1070
     6
1000
DOTSMALL
1070
     7
1000
DOTSMALL
1002
}
  0
DIMENSION
  5
C63
330
17
100
AcDbEntity
  8
Z_OM_DIM
100
AcDbDimension
  2
*D17
 10
-27.78612065000546
 20
-28.87358181223906
 30
0.0
 11
-27.78612065000545
 21
-20.09358181223906
 31
0.0
 70
   160
  3
STANDARD
100
AcDbAlignedDimension
 13
-15.39999999999999
 23
-34.97358181223903
 33
0.0
 14
-8.125500157831737
 24
-28.87358181223906
 34
0.0
 50
90.0
100
AcDbRotatedDimension
1001
ACAD
1000
DSTYLE
1002
{
1070
   173
1070
     1
1070
     5
1000

1070
     6
1000
DOTSMALL
1070
     7
1000
OPEN30
1002
}
  0
LINE
  5
C64
330
17
100
AcDbEntity
  8
Z_OM_OUTLINE
100
AcDbLine
 10
-0.3500000000000085
 20
-45.17358181223907
 30
0.0
 11
-0.3500000000000085
 21
-40.47358181223907
 31
0.0
  0
LINE
  5
C65
330
17
100
AcDbEntity
  8
Z_OM_OUTLINE
100
AcDbLine
 10
0.3500000000000085
 20
-45.17358181223907
 30
0.0
 11
-0.3500000000000085
 21
-45.17358181223907
 31
0.0
  0
LINE
  5
C66
330
17
100
AcDbEntity
  8
Z_OM_OUTLINE
100
AcDbLine
 10
0.3500000000000085
 20
-45.17358181223907
 30
0.0
 11
0.3500000000000085
 21
-40.47358181223907
 31
0.0
  0
LINE
  5
C67
330
17
100
AcDbEntity
  8
Z_OM_OUTLINE
100
AcDbLine
 10
-5.14
 20
-45.17358181223907
 30
0.0
 11
-5.14
 21
-40.47358181223907
 31
0.0
  0
LINE
  5
C68
330
17
100
AcDbEntity
  8
Z_OM_OUTLINE
100
AcDbLine
 10
-5.840000000000003
 20
-45.17358181223907
 30
0.0
 11
-5.840000000000003
 21
-40.47358181223907
 31
0.0
  0
LINE
  5
C69
330
17
100
AcDbEntity
  8
Z_OM_OUTLINE
100
AcDbLine
 10
-5.14
 20
-45.17358181223907
 30
0.0
 11
-5.840000000000003
 21
-45.17358181223907
 31
0.0
  0
LINE
  5
C6A
330
17
100
AcDbEntity
  8
Z_OM_OUTLINE
100
AcDbLine
 10
5.840000000000003
 20
-45.17358181223907
 30
0.0
 11
5.14
 21
-45.17358181223907
 31
0.0
  0
LINE
  5
C6B
330
17
100
AcDbEntity
  8
Z_OM_OUTLINE
100
AcDbLine
 10
5.840000000000003
 20
-45.17358181223907
 30
0.0
 11
5.840000000000003
 21
-40.47358181223907
 31
0.0
  0
LINE
  5
C6C
330
17
100
AcDbEntity
  8
Z_OM_OUTLINE
100
AcDbLine
 10
5.14
 20
-45.17358181223907
 30
0.0
 11
5.14
 21
-40.47358181223907
 31
0.0
  0
LINE
  5
C6D
330
17
100
AcDbEntity
  8
Z_OM_OUTLINE
100
AcDbLine
 10
3.089999999999989
 20
-45.17358181223907
 30
0.0
 11
2.39
 21
-45.17358181223907
 31
0.0
  0
LINE
  5
C6E
330
17
100
AcDbEntity
  8
Z_OM_OUTLINE
100
AcDbLine
 10
3.089999999999989
 20
-45.17358181223907
 30
0.0
 11
3.089999999999989
 21
-40.47358181223907
 31
0.0
  0
LINE
  5
C6F
330
17
100
AcDbEntity
  8
Z_OM_OUTLINE
100
AcDbLine
 10
2.39
 20
-45.17358181223907
 30
0.0
 11
2.39
 21
-40.47358181223907
 31
0.0
  0
LINE
  5
C70
330
17
100
AcDbEntity
  8
Z_OM_OUTLINE
100
AcDbLine
 10
-3.090000000000003
 20
-45.17358181223907
 30
0.0
 11
-3.090000000000003
 21
-40.47358181223907
 31
0.0
  0
LINE
  5
C71
330
17
100
AcDbEntity
  8
Z_OM_OUTLINE
100
AcDbLine
 10
-2.39
 20
-45.17358181223907
 30
0.0
 11
-3.090000000000003
 21
-45.17358181223907
 31
0.0
  0
LINE
  5
C72
330
17
100
AcDbEntity
  8
Z_OM_OUTLINE
100
AcDbLine
 10
-2.39
 20
-45.17358181223907
 30
0.0
 11
-2.39
 21
-40.47358181223907
 31
0.0
  0
LINE
  5
C73
330
17
100
AcDbEntity
  8
Z_OM_OUTLINE
100
AcDbLine
 10
-8.165000000000006
 20
-28.87358181223906
 30
0.0
 11
8.165000000000006
 21
-28.87358181223906
 31
0.0
  0
LINE
  5
C74
330
17
100
AcDbEntity
  8
Z_OM_OUTLINE
100
AcDbLine
 10
1.02000000000001
 20
-45.17358181223906
 30
0.0
 11
1.02000000000001
 21
-40.47358181223906
 31
0.0
  0
LINE
  5
C75
330
17
100
AcDbEntity
  8
Z_OM_OUTLINE
100
AcDbLine
 10
1.719999999999998
 20
-45.17358181223906
 30
0.0
 11
1.02000000000001
 21
-45.17358181223906
 31
0.0
  0
LINE
  5
C76
330
17
100
AcDbEntity
  8
Z_OM_OUTLINE
100
AcDbLine
 10
1.719999999999998
 20
-45.17358181223906
 30
0.0
 11
1.719999999999998
 21
-40.47358181223906
 31
0.0
  0
LINE
  5
C77
330
17
100
AcDbEntity
  8
Z_OM_OUTLINE
100
AcDbLine
 10
3.760000000000005
 20
-45.17358181223906
 30
0.0
 11
3.760000000000005
 21
-40.47358181223906
 31
0.0
  0
LINE
  5
C78
330
17
100
AcDbEntity
  8
Z_OM_OUTLINE
100
AcDbLine
 10
4.460000000000007
 20
-45.17358181223906
 30
0.0
 11
3.760000000000005
 21
-45.17358181223906
 31
0.0
  0
LINE
  5
C79
330
17
100
AcDbEntity
  8
Z_OM_OUTLINE
100
AcDbLine
 10
4.460000000000007
 20
-45.17358181223906
 30
0.0
 11
4.460000000000007
 21
-40.47358181223906
 31
0.0
  0
LINE
  5
C7A
330
17
100
AcDbEntity
  8
Z_OM_OUTLINE
100
AcDbLine
 10
-4.459999999999993
 20
-45.17358181223906
 30
0.0
 11
-4.459999999999993
 21
-40.47358181223906
 31
0.0
  0
LINE
  5
C7B
330
17
100
AcDbEntity
  8
Z_OM_OUTLINE
100
AcDbLine
 10
-3.760000000000005
 20
-45.17358181223906
 30
0.0
 11
-3.760000000000005
 21
-40.47358181223906
 31
0.0
  0
LINE
  5
C7C
330
17
100
AcDbEntity
  8
Z_OM_OUTLINE
100
AcDbLine
 10
-3.760000000000005
 20
-45.17358181223906
 30
0.0
 11
-4.459999999999993
 21
-45.17358181223906
 31
0.0
  0
LINE
  5
C7D
330
17
100
AcDbEntity
  8
Z_OM_OUTLINE
100
AcDbLine
 10
-1.019999999999996
 20
-45.17358181223906
 30
0.0
 11
-1.719999999999998
 21
-45.17358181223906
 31
0.0
  0
LINE
  5
C7E
330
17
100
AcDbEntity
  8
Z_OM_OUTLINE
100
AcDbLine
 10
-1.019999999999996
 20
-45.17358181223906
 30
0.0
 11
-1.019999999999996
 21
-40.47358181223906
 31
0.0
  0
LINE
  5
C7F
330
17
100
AcDbEntity
  8
Z_OM_OUTLINE
100
AcDbLine
 10
-1.719999999999998
 20
-45.17358181223906
 30
0.0
 11
-1.719999999999998
 21
-40.47358181223906
 31
0.0
  0
LINE
  5
C80
330
17
100
AcDbEntity
  8
Z_OM_OUTLINE
100
AcDbLine
 10
10.245
 20
-34.67358181223907
 30
0.0
 11
14.74499999999999
 21
-34.67358181223907
 31
0.0
  0
LINE
  5
C81
330
17
100
AcDbEntity
  8
Z_OM_OUTLINE
100
AcDbLine
 10
-14.74499999999999
 20
-34.67358181223907
 30
0.0
 11
-10.245
 21
-34.67358181223907
 31
0.0
  0
LINE
  5
C82
330
17
100
AcDbEntity
  8
Z_OM_OUTLINE
100
AcDbLine
 10
15.045
 20
-38.27358181223907
 30
0.0
 11
9.944999999999993
 21
-38.27358181223907
 31
0.0
  0
LINE
  5
C83
330
17
100
AcDbEntity
  8
Z_OM_OUTLINE
100
AcDbLine
 10
-9.944999999999993
 20
-38.27358181223907
 30
0.0
 11
-15.045
 21
-38.27358181223907
 31
0.0
  0
LINE
  5
C84
330
17
100
AcDbEntity
  8
Z_OM_OUTLINE
100
AcDbLine
 10
9.5
 20
-41.97358181223906
 30
0.0
 11
8.5
 21
-41.97358181223906
 31
0.0
  0
LINE
  5
C85
330
17
100
AcDbEntity
  8
Z_OM_OUTLINE
100
AcDbLine
 10
9.5
 20
-41.97358181223906
 30
0.0
 11
9.5
 21
-37.97358181223905
 31
0.0
  0
LINE
  5
C86
330
17
100
AcDbEntity
  8
Z_OM_OUTLINE
100
AcDbLine
 10
-8.500000000000014
 20
-41.97358181223906
 30
0.0
 11
-9.500000000000014
 21
-41.97358181223906
 31
0.0
  0
LINE
  5
C87
330
17
100
AcDbEntity
  8
Z_OM_OUTLINE
100
AcDbLine
 10
-6.999999999999985
 20
-40.47358181223906
 30
0.0
 11
-8.500000000000014
 21
-41.97358181223906
 31
0.0
  0
LINE
  5
C88
330
17
100
AcDbEntity
  8
Z_OM_OUTLINE
100
AcDbLine
 10
6.999999999999971
 20
-40.47358181223906
 30
0.0
 11
-6.999999999999985
 21
-40.47358181223906
 31
0.0
  0
LINE
  5
C89
330
17
100
AcDbEntity
  8
Z_OM_OUTLINE
100
AcDbLine
 10
8.5
 20
-41.97358181223906
 30
0.0
 11
6.999999999999971
 21
-40.47358181223906
 31
0.0
  0
LINE
  5
C8A
330
17
100
AcDbEntity
  8
Z_OM_OUTLINE
100
AcDbLine
 10
-9.500000000000014
 20
-41.97358181223906
 30
0.0
 11
-9.500000000000014
 21
-37.97358181223905
 31
0.0
  0
LINE
  5
C8B
330
17
100
AcDbEntity
  8
Z_OM_OUTLINE
100
AcDbLine
 10
15.2
 20
-35.67358181223904
 30
0.0
 11
15.2
 21
-35.47358181223905
 31
0.0
  0
LINE
  5
C8C
330
17
100
AcDbEntity
  8
Z_OM_OUTLINE
100
AcDbLine
 10
-15.19999999999998
 20
-35.67358181223904
 30
0.0
 11
-15.19999999999998
 21
-35.47358181223905
 31
0.0
  0
LINE
  5
C8D
330
17
100
AcDbEntity
  8
Z_OM_OUTLINE
100
AcDbLine
 10
-15.39999999999999
 20
-34.97358181223904
 30
0.0
 11
15.39999999999999
 21
-34.97358181223904
 31
0.0
  0
LINE
  5
C8E
330
17
100
AcDbEntity
  8
Z_OM_OUTLINE
100
AcDbLine
 10
-15.39999999999999
 20
-35.47358181223905
 30
0.0
 11
-15.39999999999999
 21
-34.97358181223904
 31
0.0
  0
LINE
  5
C8F
330
17
100
AcDbEntity
  8
Z_OM_OUTLINE
100
AcDbLine
 10
-15.39999999999999
 20
-35.47358181223905
 30
0.0
 11
15.39999999999999
 21
-35.47358181223905
 31
0.0
  0
LINE
  5
C90
330
17
100
AcDbEntity
  8
Z_OM_OUTLINE
100
AcDbLine
 10
15.39999999999999
 20
-35.47358181223905
 30
0.0
 11
15.39999999999999
 21
-34.97358181223904
 31
0.0
  0
LINE
  5
C91
330
17
100
AcDbEntity
  8
Z_OM_OUTLINE
100
AcDbLine
 10
12.92
 20
-35.47358181223905
 30
0.0
 11
12.92
 21
-37.97358181223904
 31
0.0
  0
LINE
  5
C92
330
17
100
AcDbEntity
  8
Z_OM_OUTLINE
100
AcDbLine
 10
15.39999999999999
 20
-35.67358181223904
 30
0.0
 11
12.92
 21
-35.67358181223904
 31
0.0
  0
LINE
  5
C93
330
17
100
AcDbEntity
  8
Z_OM_OUTLINE
100
AcDbLine
 10
15.39999999999999
 20
-37.97358181223904
 30
0.0
 11
15.39999999999999
 21
-35.67358181223904
 31
0.0
  0
LINE
  5
C94
330
17
100
AcDbEntity
  8
Z_OM_OUTLINE
100
AcDbLine
 10
9.920000000000001
 20
-35.47358181223905
 30
0.0
 11
9.920000000000001
 21
-37.97358181223904
 31
0.0
  0
LINE
  5
C95
330
17
100
AcDbEntity
  8
Z_OM_OUTLINE
100
AcDbLine
 10
9.920000000000001
 20
-35.67358181223904
 30
0.0
 11
-9.920000000000001
 21
-35.67358181223904
 31
0.0
  0
LINE
  5
C96
330
17
100
AcDbEntity
  8
Z_OM_OUTLINE
100
AcDbLine
 10
-9.920000000000001
 20
-35.47358181223905
 30
0.0
 11
-9.920000000000001
 21
-37.97358181223904
 31
0.0
  0
LINE
  5
C97
330
17
100
AcDbEntity
  8
Z_OM_OUTLINE
100
AcDbLine
 10
-15.39999999999999
 20
-37.97358181223904
 30
0.0
 11
-15.39999999999999
 21
-35.67358181223904
 31
0.0
  0
LINE
  5
C98
330
17
100
AcDbEntity
  8
Z_OM_OUTLINE
100
AcDbLine
 10
15.39999999999999
 20
-37.97358181223904
 30
0.0
 11
-15.39999999999999
 21
-37.97358181223904
 31
0.0
  0
LINE
  5
C99
330
17
100
AcDbEntity
  8
Z_OM_OUTLINE
100
AcDbLine
 10
-12.92
 20
-35.47358181223905
 30
0.0
 11
-12.92
 21
-37.97358181223904
 31
0.0
  0
LINE
  5
C9A
330
17
100
AcDbEntity
  8
Z_OM_OUTLINE
100
AcDbLine
 10
-12.92
 20
-35.67358181223904
 30
0.0
 11
-15.39999999999999
 21
-35.67358181223904
 31
0.0
  0
LINE
  5
C9B
330
17
100
AcDbEntity
  8
Z_OM_OUTLINE
100
AcDbLine
 10
8.165000000000006
 20
-34.97358181223907
 30
0.0
 11
8.165000000000006
 21
-28.87358181223906
 31
0.0
  0
LINE
  5
C9C
330
17
100
AcDbEntity
  8
Z_OM_OUTLINE
100
AcDbLine
 10
-8.165000000000006
 20
-28.87358181223906
 30
0.0
 11
-8.165000000000006
 21
-34.97358181223907
 31
0.0
  0
LINE
  5
C9D
330
17
100
AcDbEntity
  8
Z_OM_OUTLINE
100
AcDbLine
 10
10.245
 20
-34.67358181223907
 30
0.0
 11
10.245
 21
-34.97358181223906
 31
0.0
  0
LINE
  5
C9E
330
17
100
AcDbEntity
  8
Z_OM_OUTLINE
100
AcDbLine
 10
14.74499999999999
 20
-34.97358181223906
 30
0.0
 11
14.74499999999999
 21
-34.67358181223907
 31
0.0
  0
LINE
  5
C9F
330
17
100
AcDbEntity
  8
Z_OM_OUTLINE
100
AcDbLine
 10
-14.74499999999999
 20
-34.67358181223907
 30
0.0
 11
-14.74499999999999
 21
-34.97358181223906
 31
0.0
  0
LINE
  5
CA0
330
17
100
AcDbEntity
  8
Z_OM_OUTLINE
100
AcDbLine
 10
-10.245
 20
-34.97358181223906
 30
0.0
 11
-10.245
 21
-34.67358181223907
 31
0.0
  0
LINE
  5
CA1
330
17
100
AcDbEntity
  8
Z_OM_OUTLINE
100
AcDbLine
 10
15.045
 20
-38.27358181223907
 30
0.0
 11
15.045
 21
-37.97358181223907
 31
0.0
  0
LINE
  5
CA2
330
17
100
AcDbEntity
  8
Z_OM_OUTLINE
100
AcDbLine
 10
9.944999999999993
 20
-37.97358181223907
 30
0.0
 11
9.944999999999993
 21
-38.27358181223907
 31
0.0
  0
LINE
  5
CA3
330
17
100
AcDbEntity
  8
Z_OM_OUTLINE
100
AcDbLine
 10
-9.944999999999993
 20
-38.27358181223907
 30
0.0
 11
-9.944999999999993
 21
-37.97358181223907
 31
0.0
  0
LINE
  5
CA4
330
17
100
AcDbEntity
  8
Z_OM_OUTLINE
100
AcDbLine
 10
-15.045
 20
-37.97358181223907
 30
0.0
 11
-15.045
 21
-38.27358181223907
 31
0.0
  0
LINE
  5
CA5
330
17
100
AcDbEntity
  8
Z_OM_CENTER
100
AcDbLine
 10
-12.49499999999999
 20
-39.99829215051177
 30
0.0
 11
-12.49499999999999
 21
-32.89077723262643
 31
0.0
  0
LINE
  5
CA6
330
17
100
AcDbEntity
  8
Z_OM_CENTER
100
AcDbLine
 10
12.49499999999999
 20
-39.99829215051177
 30
0.0
 11
12.49499999999999
 21
-32.89077723262643
 31
0.0
  0
LINE
  5
CA7
330
17
100
AcDbEntity
  8
Z_OM_CENTER
 48
3.0
100
AcDbLine
 10
0.0
 20
-45.51073524439006
 30
0.0
 11
0.0
 21
-26.25805851467318
 31
0.0
  0
LINE
  5
CA8
330
17
100
AcDbEntity
  8
Z_OM_OUTLINE
100
AcDbLine
 10
-75.00104889381521
 20
-1.669999999999987
 30
0.0
 11
-75.00104889381521
 21
-1.169999999999987
 31
0.0
  0
LINE
  5
CA9
330
17
100
AcDbEntity
  8
Z_OM_OUTLINE
100
AcDbLine
 10
-75.00104889381521
 20
-1.669999999999987
 30
0.0
 11
-71.80104889381519
 21
-1.669999999999987
 31
0.0
  0
LINE
  5
CAA
330
17
100
AcDbEntity
  8
Z_OM_OUTLINE
100
AcDbLine
 10
-75.00104889381521
 20
-1.169999999999987
 30
0.0
 11
-71.80104889381519
 21
-1.169999999999987
 31
0.0
  0
LINE
  5
CAB
330
17
100
AcDbEntity
  8
Z_OM_OUTLINE
100
AcDbLine
 10
-75.00104889381519
 20
1.170000000000015
 30
0.0
 11
-75.00104889381519
 21
1.670000000000015
 31
0.0
  0
LINE
  5
CAC
330
17
100
AcDbEntity
  8
Z_OM_OUTLINE
100
AcDbLine
 10
-75.00104889381519
 20
1.170000000000015
 30
0.0
 11
-71.80104889381519
 21
1.170000000000015
 31
0.0
  0
LINE
  5
CAD
330
17
100
AcDbEntity
  8
Z_OM_OUTLINE
100
AcDbLine
 10
-75.00104889381519
 20
1.670000000000015
 30
0.0
 11
-71.80104889381519
 21
1.670000000000015
 31
0.0
  0
LINE
  5
CAE
330
17
100
AcDbEntity
  8
Z_OM_OUTLINE
100
AcDbLine
 10
-58.7010488938152
 20
3.950000000000017
 30
0.0
 11
-58.7010488938152
 21
-3.949999999999988
 31
0.0
  0
LINE
  5
CAF
330
17
100
AcDbEntity
  8
Z_OM_OUTLINE
100
AcDbLine
 10
-58.7010488938152
 20
-3.949999999999988
 30
0.0
 11
-64.80104889381521
 21
-3.949999999999988
 31
0.0
  0
LINE
  5
CB0
330
17
100
AcDbEntity
  8
Z_OM_OUTLINE
100
AcDbLine
 10
-58.7010488938152
 20
3.950000000000017
 30
0.0
 11
-64.80104889381521
 21
3.950000000000017
 31
0.0
  0
LINE
  5
CB1
330
17
100
AcDbEntity
  8
Z_OM_OUTLINE
100
AcDbLine
 10
-71.80104889381519
 20
4.500000000000014
 30
0.0
 11
-67.80104889381519
 21
4.500000000000014
 31
0.0
  0
LINE
  5
CB2
330
17
100
AcDbEntity
  8
Z_OM_OUTLINE
100
AcDbLine
 10
-71.80104889381519
 20
-4.499999999999985
 30
0.0
 11
-71.80104889381519
 21
4.500000000000014
 31
0.0
  0
LINE
  5
CB3
330
17
100
AcDbEntity
  8
Z_OM_OUTLINE
100
AcDbLine
 10
-71.80104889381519
 20
-4.499999999999985
 30
0.0
 11
-67.80104889381519
 21
-4.499999999999985
 31
0.0
  0
LINE
  5
CB4
330
17
100
AcDbEntity
  8
Z_OM_OUTLINE
100
AcDbLine
 10
-64.50104889381518
 20
2.25
 30
0.0
 11
-64.50104889381518
 21
-2.249999999999985
 31
0.0
  0
LINE
  5
CB5
330
17
100
AcDbEntity
  8
Z_OM_OUTLINE
100
AcDbLine
 10
-68.10104889381517
 20
-2.549999999999997
 30
0.0
 11
-68.10104889381517
 21
2.550000000000011
 31
0.0
  0
LINE
  5
CB6
330
17
100
AcDbEntity
  8
Z_OM_OUTLINE
100
AcDbLine
 10
-65.50104889381517
 20
6.050000000000011
 30
0.0
 11
-65.30104889381516
 21
6.050000000000011
 31
0.0
  0
LINE
  5
CB7
330
17
100
AcDbEntity
  8
Z_OM_OUTLINE
100
AcDbLine
 10
-65.50104889381517
 20
-6.049999999999997
 30
0.0
 11
-65.30104889381516
 21
-6.049999999999997
 31
0.0
  0
LINE
  5
CB8
330
17
100
AcDbEntity
  8
Z_OM_OUTLINE
100
AcDbLine
 10
-65.30104889381516
 20
6.25
 30
0.0
 11
-64.80104889381516
 21
6.25
 31
0.0
  0
LINE
  5
CB9
330
17
100
AcDbEntity
  8
Z_OM_OUTLINE
100
AcDbLine
 10
-64.80104889381516
 20
6.25
 30
0.0
 11
-64.80104889381516
 21
-6.249999999999985
 31
0.0
  0
LINE
  5
CBA
330
17
100
AcDbEntity
  8
Z_OM_OUTLINE
100
AcDbLine
 10
-65.30104889381516
 20
6.25
 30
0.0
 11
-65.30104889381516
 21
-6.249999999999985
 31
0.0
  0
LINE
  5
CBB
330
17
100
AcDbEntity
  8
Z_OM_OUTLINE
100
AcDbLine
 10
-65.30104889381516
 20
-6.249999999999985
 30
0.0
 11
-64.80104889381516
 21
-6.249999999999985
 31
0.0
  0
LINE
  5
CBC
330
17
100
AcDbEntity
  8
Z_OM_OUTLINE
100
AcDbLine
 10
-65.50104889381517
 20
-6.249999999999985
 30
0.0
 11
-65.50104889381517
 21
6.25
 31
0.0
  0
LINE
  5
CBD
330
17
100
AcDbEntity
  8
Z_OM_OUTLINE
100
AcDbLine
 10
-67.80104889381516
 20
6.25
 30
0.0
 11
-65.50104889381517
 21
6.25
 31
0.0
  0
LINE
  5
CBE
330
17
100
AcDbEntity
  8
Z_OM_OUTLINE
100
AcDbLine
 10
-67.80104889381516
 20
-6.249999999999985
 30
0.0
 11
-67.80104889381516
 21
6.25
 31
0.0
  0
LINE
  5
CBF
330
17
100
AcDbEntity
  8
Z_OM_OUTLINE
100
AcDbLine
 10
-67.80104889381516
 20
-6.249999999999985
 30
0.0
 11
-65.50104889381517
 21
-6.249999999999985
 31
0.0
  0
LINE
  5
CC0
330
17
100
AcDbEntity
  8
Z_OM_OUTLINE
100
AcDbLine
 10
-64.50104889381518
 20
2.25
 30
0.0
 11
-64.80104889381518
 21
2.25
 31
0.0
  0
LINE
  5
CC1
330
17
100
AcDbEntity
  8
Z_OM_OUTLINE
100
AcDbLine
 10
-64.80104889381518
 20
-2.249999999999985
 30
0.0
 11
-64.50104889381518
 21
-2.249999999999985
 31
0.0
  0
LINE
  5
CC2
330
17
100
AcDbEntity
  8
Z_OM_OUTLINE
100
AcDbLine
 10
-68.10104889381517
 20
-2.549999999999997
 30
0.0
 11
-67.80104889381518
 21
-2.549999999999997
 31
0.0
  0
LINE
  5
CC3
330
17
100
AcDbEntity
  8
Z_OM_OUTLINE
100
AcDbLine
 10
-67.80104889381518
 20
2.550000000000011
 30
0.0
 11
-68.10104889381517
 21
2.550000000000011
 31
0.0
  0
LINE
  5
CC4
330
17
100
AcDbEntity
  8
Z_OM_CENTER
 48
3.0
100
AcDbLine
 10
-55.7197168686907
 20
0.0000000000000142
 30
0.0
 11
-77.37802935912324
 21
0.0000000000000142
 31
0.0
  0
DIMENSION
  5
CC5
330
17
100
AcDbEntity
  8
Z_OM_DIM
100
AcDbDimension
  2
*D18
 10
69.07212885492993
 20
-1.670000000000002
 30
0.0
 11
69.07212885492993
 21
-10.92174957508621
 31
0.0
 70
   160
  3
STANDARD
100
AcDbAlignedDimension
 13
65.39442533803887
 23
-1.170000000000001
 33
0.0
 14
65.39442533803887
 24
-1.670000000000001
 34
0.0
 50
90.0
100
AcDbRotatedDimension
  0
DIMENSION
  5
CC6
330
17
100
AcDbEntity
  8
Z_OM_DIM
100
AcDbDimension
  2
*D19
 10
75.4223586176603
 20
-1.41999999999999
 30
0.0
 11
75.4223586176603
 21
-11.78399999999997
 31
0.0
 70
   160
  3
STANDARD
100
AcDbAlignedDimension
 13
66.26166677065739
 23
1.420000000000015
 33
0.0
 14
66.26166677065739
 24
-1.419999999999987
 34
0.0
 50
90.0
100
AcDbRotatedDimension
  0
LINE
  5
CC7
330
17
100
AcDbEntity
  8
Z_OM_OUTLINE
100
AcDbLine
 10
65.39442533803887
 20
-1.169999999999987
 30
0.0
 11
65.39442533803887
 21
-1.669999999999987
 31
0.0
  0
LINE
  5
CC8
330
17
100
AcDbEntity
  8
Z_OM_OUTLINE
100
AcDbLine
 10
65.39442533803887
 20
-1.669999999999987
 30
0.0
 11
62.19442533803889
 21
-1.669999999999987
 31
0.0
  0
LINE
  5
CC9
330
17
100
AcDbEntity
  8
Z_OM_OUTLINE
100
AcDbLine
 10
65.39442533803887
 20
-1.169999999999987
 30
0.0
 11
62.19442533803889
 21
-1.169999999999987
 31
0.0
  0
LINE
  5
CCA
330
17
100
AcDbEntity
  8
Z_OM_OUTLINE
100
AcDbLine
 10
65.39442533803887
 20
1.670000000000015
 30
0.0
 11
62.19442533803889
 21
1.670000000000015
 31
0.0
  0
LINE
  5
CCB
330
17
100
AcDbEntity
  8
Z_OM_OUTLINE
100
AcDbLine
 10
65.39442533803887
 20
1.170000000000015
 30
0.0
 11
62.19442533803889
 21
1.170000000000015
 31
0.0
  0
LINE
  5
CCC
330
17
100
AcDbEntity
  8
Z_OM_OUTLINE
100
AcDbLine
 10
65.39442533803887
 20
1.670000000000015
 30
0.0
 11
65.39442533803887
 21
1.170000000000015
 31
0.0
  0
LINE
  5
CCD
330
17
100
AcDbEntity
  8
Z_OM_OUTLINE
100
AcDbLine
 10
49.09442533803886
 20
-3.949999999999988
 30
0.0
 11
49.09442533803886
 21
3.950000000000017
 31
0.0
  0
LINE
  5
CCE
330
17
100
AcDbEntity
  8
Z_OM_OUTLINE
100
AcDbLine
 10
49.09442533803886
 20
-3.949999999999988
 30
0.0
 11
55.19442533803886
 21
-3.949999999999988
 31
0.0
  0
LINE
  5
CCF
330
17
100
AcDbEntity
  8
Z_OM_OUTLINE
100
AcDbLine
 10
49.09442533803886
 20
3.950000000000017
 30
0.0
 11
55.19442533803886
 21
3.950000000000017
 31
0.0
  0
LINE
  5
CD0
330
17
100
AcDbEntity
  8
Z_OM_OUTLINE
100
AcDbLine
 10
62.19442533803889
 20
4.500000000000014
 30
0.0
 11
58.19442533803885
 21
4.500000000000014
 31
0.0
  0
LINE
  5
CD1
330
17
100
AcDbEntity
  8
Z_OM_OUTLINE
100
AcDbLine
 10
62.19442533803889
 20
-4.499999999999985
 30
0.0
 11
58.19442533803885
 21
-4.499999999999985
 31
0.0
  0
LINE
  5
CD2
330
17
100
AcDbEntity
  8
Z_OM_OUTLINE
100
AcDbLine
 10
62.19442533803889
 20
4.500000000000014
 30
0.0
 11
62.19442533803889
 21
-4.499999999999985
 31
0.0
  0
LINE
  5
CD3
330
17
100
AcDbEntity
  8
Z_OM_OUTLINE
100
AcDbLine
 10
54.89442533803885
 20
-2.249999999999985
 30
0.0
 11
54.89442533803885
 21
2.250000000000014
 31
0.0
  0
LINE
  5
CD4
330
17
100
AcDbEntity
  8
Z_OM_OUTLINE
100
AcDbLine
 10
58.49442533803887
 20
2.550000000000011
 30
0.0
 11
58.49442533803887
 21
-2.549999999999997
 31
0.0
  0
LINE
  5
CD5
330
17
100
AcDbEntity
  8
Z_OM_OUTLINE
100
AcDbLine
 10
55.89442533803884
 20
-6.049999999999982
 30
0.0
 11
55.69442533803883
 21
-6.049999999999982
 31
0.0
  0
LINE
  5
CD6
330
17
100
AcDbEntity
  8
Z_OM_OUTLINE
100
AcDbLine
 10
55.89442533803884
 20
6.050000000000011
 30
0.0
 11
55.69442533803883
 21
6.050000000000011
 31
0.0
  0
LINE
  5
CD7
330
17
100
AcDbEntity
  8
Z_OM_OUTLINE
100
AcDbLine
 10
55.69442533803883
 20
6.250000000000014
 30
0.0
 11
55.19442533803882
 21
6.250000000000014
 31
0.0
  0
LINE
  5
CD8
330
17
100
AcDbEntity
  8
Z_OM_OUTLINE
100
AcDbLine
 10
55.69442533803883
 20
-6.249999999999985
 30
0.0
 11
55.69442533803883
 21
6.250000000000014
 31
0.0
  0
LINE
  5
CD9
330
17
100
AcDbEntity
  8
Z_OM_OUTLINE
100
AcDbLine
 10
55.69442533803883
 20
-6.249999999999985
 30
0.0
 11
55.19442533803882
 21
-6.249999999999985
 31
0.0
  0
LINE
  5
CDA
330
17
100
AcDbEntity
  8
Z_OM_OUTLINE
100
AcDbLine
 10
55.19442533803882
 20
-6.249999999999985
 30
0.0
 11
55.19442533803882
 21
6.250000000000014
 31
0.0
  0
LINE
  5
CDB
330
17
100
AcDbEntity
  8
Z_OM_OUTLINE
100
AcDbLine
 10
55.89442533803884
 20
6.250000000000014
 30
0.0
 11
55.89442533803884
 21
-6.249999999999985
 31
0.0
  0
LINE
  5
CDC
330
17
100
AcDbEntity
  8
Z_OM_OUTLINE
100
AcDbLine
 10
58.19442533803883
 20
-6.249999999999985
 30
0.0
 11
55.89442533803884
 21
-6.249999999999985
 31
0.0
  0
LINE
  5
CDD
330
17
100
AcDbEntity
  8
Z_OM_OUTLINE
100
AcDbLine
 10
58.19442533803883
 20
6.250000000000014
 30
0.0
 11
58.19442533803883
 21
-6.249999999999985
 31
0.0
  0
LINE
  5
CDE
330
17
100
AcDbEntity
  8
Z_OM_OUTLINE
100
AcDbLine
 10
58.19442533803883
 20
6.250000000000014
 30
0.0
 11
55.89442533803884
 21
6.250000000000014
 31
0.0
  0
LINE
  5
CDF
330
17
100
AcDbEntity
  8
Z_OM_OUTLINE
100
AcDbLine
 10
54.89442533803885
 20
-2.249999999999985
 30
0.0
 11
55.19442533803882
 21
-2.249999999999985
 31
0.0
  0
LINE
  5
CE0
330
17
100
AcDbEntity
  8
Z_OM_OUTLINE
100
AcDbLine
 10
55.19442533803882
 20
2.250000000000014
 30
0.0
 11
54.89442533803885
 21
2.250000000000014
 31
0.0
  0
LINE
  5
CE1
330
17
100
AcDbEntity
  8
Z_OM_OUTLINE
100
AcDbLine
 10
58.49442533803887
 20
2.550000000000011
 30
0.0
 11
58.19442533803883
 21
2.550000000000011
 31
0.0
  0
LINE
  5
CE2
330
17
100
AcDbEntity
  8
Z_OM_OUTLINE
100
AcDbLine
 10
58.19442533803883
 20
-2.549999999999997
 30
0.0
 11
58.49442533803887
 21
-2.549999999999997
 31
0.0
  0
LINE
  5
CE3
330
17
100
AcDbEntity
  8
Z_OM_CENTER
100
AcDbLine
 10
61.29112864807464
 20
1.420000000000015
 30
0.0
 11
66.26166677065739
 21
1.420000000000015
 31
0.0
  0
LINE
  5
CE4
330
17
100
AcDbEntity
  8
Z_OM_CENTER
100
AcDbLine
 10
61.29112864807464
 20
-1.419999999999987
 30
0.0
 11
66.26166677065739
 21
-1.419999999999987
 31
0.0
  0
LINE
  5
CE5
330
17
100
AcDbEntity
  8
Z_OM_CENTER
 48
3.0
100
AcDbLine
 10
45.92086773207936
 20
0.0
 30
0.0
 11
67.57918022251189
 21
0.0
 31
0.0
  0
LINE
  5
CE6
330
17
100
AcDbEntity
  8
Z_OM_OUTLINE
100
AcDbLine
 10
-1.719999999999998
 20
67.61214363188091
 30
0.0
 11
-1.719999999999998
 21
62.91214363188089
 31
0.0
  0
LINE
  5
CE7
330
17
100
AcDbEntity
  8
Z_OM_OUTLINE
100
AcDbLine
 10
-1.719999999999998
 20
67.61214363188091
 30
0.0
 11
-1.019999999999996
 21
67.61214363188091
 31
0.0
  0
LINE
  5
CE8
330
17
100
AcDbEntity
  8
Z_OM_OUTLINE
100
AcDbLine
 10
-1.019999999999996
 20
67.61214363188091
 30
0.0
 11
-1.019999999999996
 21
62.91214363188089
 31
0.0
  0
LINE
  5
CE9
330
17
100
AcDbEntity
  8
Z_OM_OUTLINE
100
AcDbLine
 10
-4.459999999999993
 20
67.61214363188091
 30
0.0
 11
-3.760000000000005
 21
67.61214363188091
 31
0.0
  0
LINE
  5
CEA
330
17
100
AcDbEntity
  8
Z_OM_OUTLINE
100
AcDbLine
 10
-4.459999999999993
 20
67.61214363188091
 30
0.0
 11
-4.459999999999993
 21
62.91214363188089
 31
0.0
  0
LINE
  5
CEB
330
17
100
AcDbEntity
  8
Z_OM_OUTLINE
100
AcDbLine
 10
-3.760000000000005
 20
67.61214363188091
 30
0.0
 11
-3.760000000000005
 21
62.91214363188089
 31
0.0
  0
LINE
  5
CEC
330
17
100
AcDbEntity
  8
Z_OM_OUTLINE
100
AcDbLine
 10
3.760000000000005
 20
67.61214363188091
 30
0.0
 11
3.760000000000005
 21
62.91214363188089
 31
0.0
  0
LINE
  5
CED
330
17
100
AcDbEntity
  8
Z_OM_OUTLINE
100
AcDbLine
 10
3.760000000000005
 20
67.61214363188091
 30
0.0
 11
4.460000000000007
 21
67.61214363188091
 31
0.0
  0
LINE
  5
CEE
330
17
100
AcDbEntity
  8
Z_OM_OUTLINE
100
AcDbLine
 10
4.460000000000007
 20
67.61214363188091
 30
0.0
 11
4.460000000000007
 21
62.91214363188089
 31
0.0
  0
LINE
  5
CEF
330
17
100
AcDbEntity
  8
Z_OM_OUTLINE
100
AcDbLine
 10
1.02000000000001
 20
67.61214363188091
 30
0.0
 11
1.719999999999998
 21
67.61214363188091
 31
0.0
  0
LINE
  5
CF0
330
17
100
AcDbEntity
  8
Z_OM_OUTLINE
100
AcDbLine
 10
1.02000000000001
 20
67.61214363188091
 30
0.0
 11
1.02000000000001
 21
62.91214363188089
 31
0.0
  0
LINE
  5
CF1
330
17
100
AcDbEntity
  8
Z_OM_OUTLINE
100
AcDbLine
 10
1.719999999999998
 20
67.61214363188091
 30
0.0
 11
1.719999999999998
 21
62.91214363188089
 31
0.0
  0
LINE
  5
CF2
330
17
100
AcDbEntity
  8
Z_OM_OUTLINE
100
AcDbLine
 10
-3.090000000000003
 20
67.61214363188091
 30
0.0
 11
-2.39
 21
67.61214363188091
 31
0.0
  0
LINE
  5
CF3
330
17
100
AcDbEntity
  8
Z_OM_OUTLINE
100
AcDbLine
 10
-3.090000000000003
 20
67.61214363188091
 30
0.0
 11
-3.090000000000003
 21
62.91214363188089
 31
0.0
  0
LINE
  5
CF4
330
17
100
AcDbEntity
  8
Z_OM_OUTLINE
100
AcDbLine
 10
-2.39
 20
67.61214363188091
 30
0.0
 11
-2.39
 21
62.91214363188089
 31
0.0
  0
LINE
  5
CF5
330
17
100
AcDbEntity
  8
Z_OM_OUTLINE
100
AcDbLine
 10
3.089999999999989
 20
67.61214363188091
 30
0.0
 11
3.089999999999989
 21
62.91214363188089
 31
0.0
  0
LINE
  5
CF6
330
17
100
AcDbEntity
  8
Z_OM_OUTLINE
100
AcDbLine
 10
2.39
 20
67.61214363188091
 30
0.0
 11
3.089999999999989
 21
67.61214363188091
 31
0.0
  0
LINE
  5
CF7
330
17
100
AcDbEntity
  8
Z_OM_OUTLINE
100
AcDbLine
 10
2.39
 20
67.61214363188091
 30
0.0
 11
2.39
 21
62.91214363188089
 31
0.0
  0
LINE
  5
CF8
330
17
100
AcDbEntity
  8
Z_OM_OUTLINE
100
AcDbLine
 10
-0.3500000000000085
 20
67.61214363188091
 30
0.0
 11
-0.3500000000000085
 21
62.91214363188089
 31
0.0
  0
LINE
  5
CF9
330
17
100
AcDbEntity
  8
Z_OM_OUTLINE
100
AcDbLine
 10
0.3500000000000085
 20
67.61214363188091
 30
0.0
 11
0.3500000000000085
 21
62.91214363188089
 31
0.0
  0
LINE
  5
CFA
330
17
100
AcDbEntity
  8
Z_OM_OUTLINE
100
AcDbLine
 10
-0.3500000000000085
 20
67.61214363188091
 30
0.0
 11
0.3500000000000085
 21
67.61214363188091
 31
0.0
  0
LINE
  5
CFB
330
17
100
AcDbEntity
  8
Z_OM_OUTLINE
100
AcDbLine
 10
5.14
 20
67.61214363188091
 30
0.0
 11
5.14
 21
62.91214363188089
 31
0.0
  0
LINE
  5
CFC
330
17
100
AcDbEntity
  8
Z_OM_OUTLINE
100
AcDbLine
 10
5.14
 20
67.61214363188091
 30
0.0
 11
5.840000000000003
 21
67.61214363188091
 31
0.0
  0
LINE
  5
CFD
330
17
100
AcDbEntity
  8
Z_OM_OUTLINE
100
AcDbLine
 10
5.840000000000003
 20
67.61214363188091
 30
0.0
 11
5.840000000000003
 21
62.91214363188089
 31
0.0
  0
LINE
  5
CFE
330
17
100
AcDbEntity
  8
Z_OM_OUTLINE
100
AcDbLine
 10
-5.840000000000003
 20
67.61214363188091
 30
0.0
 11
-5.14
 21
67.61214363188091
 31
0.0
  0
LINE
  5
CFF
330
17
100
AcDbEntity
  8
Z_OM_OUTLINE
100
AcDbLine
 10
-5.840000000000003
 20
67.61214363188091
 30
0.0
 11
-5.840000000000003
 21
62.91214363188089
 31
0.0
  0
LINE
  5
D00
330
17
100
AcDbEntity
  8
Z_OM_OUTLINE
100
AcDbLine
 10
-5.14
 20
67.61214363188091
 30
0.0
 11
-5.14
 21
62.91214363188089
 31
0.0
  0
LINE
  5
D01
330
17
100
AcDbEntity
  8
Z_OM_OUTLINE
100
AcDbLine
 10
-10.245
 20
57.11214363188091
 30
0.0
 11
-14.74499999999999
 21
57.11214363188091
 31
0.0
  0
LINE
  5
D02
330
17
100
AcDbEntity
  8
Z_OM_OUTLINE
100
AcDbLine
 10
14.74499999999999
 20
57.11214363188091
 30
0.0
 11
10.245
 21
57.11214363188091
 31
0.0
  0
LINE
  5
D03
330
17
100
AcDbEntity
  8
Z_OM_OUTLINE
100
AcDbLine
 10
-15.045
 20
60.71214363188094
 30
0.0
 11
-9.944999999999993
 21
60.71214363188094
 31
0.0
  0
LINE
  5
D04
330
17
100
AcDbEntity
  8
Z_OM_OUTLINE
100
AcDbLine
 10
9.944999999999993
 20
60.71214363188094
 30
0.0
 11
15.045
 21
60.71214363188094
 31
0.0
  0
LINE
  5
D05
330
17
100
AcDbEntity
  8
Z_OM_OUTLINE
100
AcDbLine
 10
8.165000000000006
 20
51.3121436318809
 30
0.0
 11
-8.165000000000006
 21
51.3121436318809
 31
0.0
  0
LINE
  5
D06
330
17
100
AcDbEntity
  8
Z_OM_OUTLINE
100
AcDbLine
 10
6.999999999999971
 20
62.91214363188089
 30
0.0
 11
-6.999999999999985
 21
62.91214363188089
 31
0.0
  0
LINE
  5
D07
330
17
100
AcDbEntity
  8
Z_OM_OUTLINE
100
AcDbLine
 10
-6.999999999999985
 20
62.91214363188089
 30
0.0
 11
-8.5
 21
64.41214363188089
 31
0.0
  0
LINE
  5
D08
330
17
100
AcDbEntity
  8
Z_OM_OUTLINE
100
AcDbLine
 10
-9.5
 20
64.41214363188089
 30
0.0
 11
-8.5
 21
64.41214363188089
 31
0.0
  0
LINE
  5
D09
330
17
100
AcDbEntity
  8
Z_OM_OUTLINE
100
AcDbLine
 10
-9.5
 20
64.41214363188089
 30
0.0
 11
-9.5
 21
60.41214363188089
 31
0.0
  0
LINE
  5
D0A
330
17
100
AcDbEntity
  8
Z_OM_OUTLINE
100
AcDbLine
 10
9.5
 20
64.41214363188089
 30
0.0
 11
9.5
 21
60.41214363188089
 31
0.0
  0
LINE
  5
D0B
330
17
100
AcDbEntity
  8
Z_OM_OUTLINE
100
AcDbLine
 10
8.5
 20
64.41214363188089
 30
0.0
 11
9.5
 21
64.41214363188089
 31
0.0
  0
LINE
  5
D0C
330
17
100
AcDbEntity
  8
Z_OM_OUTLINE
100
AcDbLine
 10
8.5
 20
64.41214363188089
 30
0.0
 11
6.999999999999971
 21
62.91214363188089
 31
0.0
  0
LINE
  5
D0D
330
17
100
AcDbEntity
  8
Z_OM_OUTLINE
100
AcDbLine
 10
-12.92
 20
57.91214363188089
 30
0.0
 11
-12.92
 21
60.41214363188089
 31
0.0
  0
LINE
  5
D0E
330
17
100
AcDbEntity
  8
Z_OM_OUTLINE
100
AcDbLine
 10
-15.2
 20
58.11214363188089
 30
0.0
 11
-15.2
 21
57.91214363188089
 31
0.0
  0
LINE
  5
D0F
330
17
100
AcDbEntity
  8
Z_OM_OUTLINE
100
AcDbLine
 10
-9.920000000000001
 20
60.41214363188089
 30
0.0
 11
-9.920000000000001
 21
57.91214363188089
 31
0.0
  0
LINE
  5
D10
330
17
100
AcDbEntity
  8
Z_OM_OUTLINE
100
AcDbLine
 10
9.920000000000001
 20
57.91214363188089
 30
0.0
 11
9.920000000000001
 21
60.41214363188089
 31
0.0
  0
LINE
  5
D11
330
17
100
AcDbEntity
  8
Z_OM_OUTLINE
100
AcDbLine
 10
12.92
 20
60.41214363188089
 30
0.0
 11
12.92
 21
57.91214363188089
 31
0.0
  0
LINE
  5
D12
330
17
100
AcDbEntity
  8
Z_OM_OUTLINE
100
AcDbLine
 10
15.2
 20
58.11214363188089
 30
0.0
 11
15.2
 21
57.91214363188089
 31
0.0
  0
LINE
  5
D13
330
17
100
AcDbEntity
  8
Z_OM_OUTLINE
100
AcDbLine
 10
15.39999999999999
 20
57.91214363188089
 30
0.0
 11
15.39999999999999
 21
57.41214363188089
 31
0.0
  0
LINE
  5
D14
330
17
100
AcDbEntity
  8
Z_OM_OUTLINE
100
AcDbLine
 10
15.39999999999999
 20
57.41214363188089
 30
0.0
 11
-15.39999999999999
 21
57.41214363188089
 31
0.0
  0
LINE
  5
D15
330
17
100
AcDbEntity
  8
Z_OM_OUTLINE
100
AcDbLine
 10
15.39999999999999
 20
57.91214363188089
 30
0.0
 11
-15.39999999999999
 21
57.91214363188089
 31
0.0
  0
LINE
  5
D16
330
17
100
AcDbEntity
  8
Z_OM_OUTLINE
100
AcDbLine
 10
-15.39999999999999
 20
57.91214363188089
 30
0.0
 11
-15.39999999999999
 21
57.41214363188089
 31
0.0
  0
LINE
  5
D17
330
17
100
AcDbEntity
  8
Z_OM_OUTLINE
100
AcDbLine
 10
-9.920000000000001
 20
58.11214363188089
 30
0.0
 11
9.920000000000001
 21
58.11214363188089
 31
0.0
  0
LINE
  5
D18
330
17
100
AcDbEntity
  8
Z_OM_OUTLINE
100
AcDbLine
 10
-15.39999999999999
 20
60.41214363188089
 30
0.0
 11
15.39999999999999
 21
60.41214363188089
 31
0.0
  0
LINE
  5
D19
330
17
100
AcDbEntity
  8
Z_OM_OUTLINE
100
AcDbLine
 10
-15.39999999999999
 20
60.41214363188089
 30
0.0
 11
-15.39999999999999
 21
58.11214363188089
 31
0.0
  0
LINE
  5
D1A
330
17
100
AcDbEntity
  8
Z_OM_OUTLINE
100
AcDbLine
 10
-15.39999999999999
 20
58.11214363188089
 30
0.0
 11
-12.92
 21
58.11214363188089
 31
0.0
  0
LINE
  5
D1B
330
17
100
AcDbEntity
  8
Z_OM_OUTLINE
100
AcDbLine
 10
15.39999999999999
 20
60.41214363188089
 30
0.0
 11
15.39999999999999
 21
58.11214363188089
 31
0.0
  0
LINE
  5
D1C
330
17
100
AcDbEntity
  8
Z_OM_OUTLINE
100
AcDbLine
 10
12.92
 20
58.11214363188089
 30
0.0
 11
15.39999999999999
 21
58.11214363188089
 31
0.0
  0
LINE
  5
D1D
330
17
100
AcDbEntity
  8
Z_OM_OUTLINE
100
AcDbLine
 10
-10.245
 20
57.11214363188091
 30
0.0
 11
-10.245
 21
57.41214363188089
 31
0.0
  0
LINE
  5
D1E
330
17
100
AcDbEntity
  8
Z_OM_OUTLINE
100
AcDbLine
 10
-14.74499999999999
 20
57.41214363188089
 30
0.0
 11
-14.74499999999999
 21
57.11214363188091
 31
0.0
  0
LINE
  5
D1F
330
17
100
AcDbEntity
  8
Z_OM_OUTLINE
100
AcDbLine
 10
14.74499999999999
 20
57.11214363188091
 30
0.0
 11
14.74499999999999
 21
57.41214363188089
 31
0.0
  0
LINE
  5
D20
330
17
100
AcDbEntity
  8
Z_OM_OUTLINE
100
AcDbLine
 10
10.245
 20
57.41214363188089
 30
0.0
 11
10.245
 21
57.11214363188091
 31
0.0
  0
LINE
  5
D21
330
17
100
AcDbEntity
  8
Z_OM_OUTLINE
100
AcDbLine
 10
-15.045
 20
60.71214363188094
 30
0.0
 11
-15.045
 21
60.41214363188089
 31
0.0
  0
LINE
  5
D22
330
17
100
AcDbEntity
  8
Z_OM_OUTLINE
100
AcDbLine
 10
-9.944999999999993
 20
60.41214363188089
 30
0.0
 11
-9.944999999999993
 21
60.71214363188094
 31
0.0
  0
LINE
  5
D23
330
17
100
AcDbEntity
  8
Z_OM_OUTLINE
100
AcDbLine
 10
9.944999999999993
 20
60.71214363188094
 30
0.0
 11
9.944999999999993
 21
60.41214363188089
 31
0.0
  0
LINE
  5
D24
330
17
100
AcDbEntity
  8
Z_OM_OUTLINE
100
AcDbLine
 10
15.045
 20
60.41214363188089
 30
0.0
 11
15.045
 21
60.71214363188094
 31
0.0
  0
LINE
  5
D25
330
17
100
AcDbEntity
  8
Z_OM_OUTLINE
100
AcDbLine
 10
8.165000000000006
 20
51.3121436318809
 30
0.0
 11
8.165000000000006
 21
57.41214363188089
 31
0.0
  0
LINE
  5
D26
330
17
100
AcDbEntity
  8
Z_OM_OUTLINE
100
AcDbLine
 10
-8.165000000000006
 20
57.41214363188089
 30
0.0
 11
-8.165000000000006
 21
51.3121436318809
 31
0.0
  0
LINE
  5
D27
330
17
100
AcDbEntity
  8
Z_OM_CENTER
100
AcDbLine
 10
-12.49499999999999
 20
62.60748346613485
 30
0.0
 11
-12.49499999999999
 21
54.605873271435
 31
0.0
  0
LINE
  5
D28
330
17
100
AcDbEntity
  8
Z_OM_CENTER
100
AcDbLine
 10
12.49499999999999
 20
62.60748346613485
 30
0.0
 11
12.49499999999999
 21
54.605873271435
 31
0.0
  0
LINE
  5
D29
330
17
100
AcDbEntity
  8
Z_OM_CENTER
 48
3.0
100
AcDbLine
 10
0.0
 20
68.65059276820796
 30
0.0
 11
0.0
 21
47.56924856899871
 31
0.0
  0
DIMENSION
  5
D2A
330
17
100
AcDbEntity
  8
Z_OM_DIM
100
AcDbDimension
  2
*D1
 10
8.165000000000006
 20
13.31597696642099
 30
0.0
 11
0.0
 21
13.31597696642099
 31
0.0
 70
   160
  3
STANDARD
100
AcDbAlignedDimension
 13
-8.165000000000006
 23
1.350000000000008
 33
0.0
 14
8.165000000000006
 24
1.350000000000008
 34
0.0
100
AcDbRotatedDimension
  0
DIMENSION
  5
D2B
330
17
100
AcDbEntity
  8
Z_OM_DIM
100
AcDbDimension
  2
*D2
 10
-22.26761799790332
 20
-3.949999999999984
 30
0.0
 11
-22.26761799790332
 21
13.126
 31
0.0
 70
   160
  3
STANDARD
100
AcDbAlignedDimension
 13
-5.564999999999997
 23
3.950000000000002
 33
0.0
 14
-5.088917152087134
 24
-3.949999999999988
 34
0.0
 50
90.0
100
AcDbRotatedDimension
  0
DIMENSION
  5
D2C
330
17
100
AcDbEntity
  8
Z_OM_DIM
100
AcDbDimension
  2
*D3
 10
11.06377145748294
 20
-0.5950502996256622
 30
0.0
 11
25.32434798047195
 21
5.333954105160605
 31
0.0
 70
   163
  1
2-<>
  3
STANDARD
100
AcDbDiametricDimension
 15
13.926228542517
 25
0.5950502996256617
 35
0.0
 40
0.0
  0
DIMENSION
  5
D2D
330
17
100
AcDbEntity
  8
Z_OM_DIM
100
AcDbDimension
  2
*D4
 10
15.39999999999999
 20
24.60370247170164
 30
0.0
 11
0.0000000000000018
 21
24.60370247170164
 31
0.0
 70
   160
  3
STANDARD
100
AcDbAlignedDimension
 13
-15.39999999999999
 23
6.25
 33
0.0
 14
15.39999999999999
 24
6.25
 34
0.0
100
AcDbRotatedDimension
  0
DIMENSION
  5
D2E
330
17
100
AcDbEntity
  8
Z_OM_DIM
100
AcDbDimension
  2
*D5
 10
-27.78612065000546
 20
6.250000000000003
 30
0.0
 11
-27.78612065000546
 21
0.0000000000000036
 31
0.0
 70
   160
  3
STANDARD
100
AcDbAlignedDimension
 13
-15.39999999999999
 23
-6.25
 33
0.0
 14
-15.39999999999999
 24
6.25
 34
0.0
 50
90.0
100
AcDbRotatedDimension
  0
DIMENSION
  5
D30
330
17
100
AcDbEntity
  8
Z_OM_DIM
100
AcDbDimension
  2
*D6
 10
12.49499999999999
 20
18.77409567368866
 30
0.0
 11
0.0000000000000018
 21
18.77409567368866
 31
0.0
 70
   160
  3
STANDARD
100
AcDbAlignedDimension
 13
-12.49499999999999
 23
2.991898454783722
 33
0.0
 14
12.49499999999999
 24
2.991898454783722
 34
0.0
100
AcDbRotatedDimension
  0
LINE
  5
D31
330
17
100
AcDbEntity
  8
Z_OM_OUTLINE
100
AcDbLine
 10
15.39999999999999
 20
-6.249999999999985
 30
0.0
 11
15.39999999999999
 21
6.250000000000014
 31
0.0
  0
LINE
  5
D32
330
17
100
AcDbEntity
  8
Z_OM_OUTLINE
100
AcDbLine
 10
-15.39999999999999
 20
-6.249999999999985
 30
0.0
 11
15.39999999999999
 21
-6.249999999999985
 31
0.0
  0
LINE
  5
D33
330
17
100
AcDbEntity
  8
Z_OM_OUTLINE
100
AcDbLine
 10
-15.39999999999999
 20
6.25
 30
0.0
 11
-15.39999999999999
 21
-6.249999999999985
 31
0.0
  0
LINE
  5
D34
330
17
100
AcDbEntity
  8
Z_OM_OUTLINE
100
AcDbLine
 10
15.39999999999999
 20
6.250000000000014
 30
0.0
 11
-15.39999999999999
 21
6.25
 31
0.0
  0
CIRCLE
  5
D35
330
17
100
AcDbEntity
  8
Z_OM_OUTLINE
100
AcDbCircle
 10
12.49499999999999
 20
0.0000000000000142
 30
0.0
 40
1.550000000000011
  0
CIRCLE
  5
D36
330
17
100
AcDbEntity
  8
Z_OM_OUTLINE
100
AcDbCircle
 10
12.49499999999999
 20
0.0000000000000142
 30
0.0
 40
2.25
  0
CIRCLE
  5
D37
330
17
100
AcDbEntity
  8
Z_OM_OUTLINE
100
AcDbCircle
 10
-12.49499999999999
 20
0.0
 30
0.0
 40
2.25
  0
CIRCLE
  5
D38
330
17
100
AcDbEntity
  8
Z_OM_OUTLINE
100
AcDbCircle
 10
-12.49499999999999
 20
0.0
 30
0.0
 40
1.550000000000011
  0
CIRCLE
  5
D39
330
17
100
AcDbEntity
  8
Z_OM_OUTLINE
100
AcDbCircle
 10
2.740000000000009
 20
1.420000000000015
 30
0.0
 40
0.5749999999999887
  0
CIRCLE
  5
D3A
330
17
100
AcDbEntity
  8
Z_OM_OUTLINE
100
AcDbCircle
 10
4.109999999999999
 20
-1.419999999999987
 30
0.0
 40
0.5749999999999887
  0
CIRCLE
  5
D3B
330
17
100
AcDbEntity
  8
Z_OM_OUTLINE
100
AcDbCircle
 10
-2.740000000000009
 20
1.420000000000015
 30
0.0
 40
0.5750000000000029
  0
CIRCLE
  5
D3C
330
17
100
AcDbEntity
  8
Z_OM_OUTLINE
100
AcDbCircle
 10
1.36999999999999
 20
-1.419999999999987
 30
0.0
 40
0.5750000000000171
  0
CIRCLE
  5
D3D
330
17
100
AcDbEntity
  8
Z_OM_OUTLINE
100
AcDbCircle
 10
0.0
 20
1.420000000000015
 30
0.0
 40
0.5750000000000029
  0
CIRCLE
  5
D3E
330
17
100
AcDbEntity
  8
Z_OM_OUTLINE
100
AcDbCircle
 10
-4.109999999999999
 20
-1.419999999999987
 30
0.0
 40
0.5750000000000029
  0
CIRCLE
  5
D3F
330
17
100
AcDbEntity
  8
Z_OM_OUTLINE
100
AcDbCircle
 10
-1.36999999999999
 20
-1.419999999999987
 30
0.0
 40
0.5749999999999887
  0
CIRCLE
  5
D40
330
17
100
AcDbEntity
  8
Z_OM_OUTLINE
100
AcDbCircle
 10
5.489999999999994
 20
1.420000000000015
 30
0.0
 40
0.5750000000000029
  0
CIRCLE
  5
D41
330
17
100
AcDbEntity
  8
Z_OM_OUTLINE
100
AcDbCircle
 10
-5.489999999999994
 20
1.420000000000015
 30
0.0
 40
0.5749999999999887
  0
LINE
  5
D42
330
17
100
AcDbEntity
  8
Z_OM_OUTLINE
100
AcDbLine
 10
5.564999999999997
 20
3.950000000000017
 30
0.0
 11
-5.564999999999997
 21
3.950000000000017
 31
0.0
  0
ARC
  5
D43
330
17
100
AcDbEntity
  8
Z_OM_OUTLINE
100
AcDbCircle
 10
-5.564999999999997
 20
1.350000000000008
 30
0.0
 40
2.600000000000008
100
AcDbArc
 50
90.0
 51
190.0000000000018
  0
LINE
  5
D44
330
17
100
AcDbEntity
  8
Z_OM_OUTLINE
100
AcDbLine
 10
-8.125500157831737
 20
0.8985147380659839
 30
0.0
 11
-7.649417309918874
 21
-1.801485261934018
 31
0.0
  0
ARC
  5
D45
330
17
100
AcDbEntity
  8
Z_OM_OUTLINE
100
AcDbCircle
 10
-5.088917152087134
 20
-1.34999999999998
 30
0.0
 40
2.600000000000008
100
AcDbArc
 50
190.0000000000018
 51
270.0000000000008
  0
LINE
  5
D46
330
17
100
AcDbEntity
  8
Z_OM_OUTLINE
100
AcDbLine
 10
-5.088917152087134
 20
-3.949999999999988
 30
0.0
 11
5.088917152087134
 21
-3.949999999999988
 31
0.0
  0
ARC
  5
D47
330
17
100
AcDbEntity
  8
Z_OM_OUTLINE
100
AcDbCircle
 10
-5.088917152087134
 20
-1.34999999999998
 30
0.0
 40
1.800000000000011
100
AcDbArc
 50
190.0000000000034
 51
270.0000000000008
  0
LINE
  5
D48
330
17
100
AcDbEntity
  8
Z_OM_OUTLINE
100
AcDbLine
 10
-7.337653955421984
 20
1.037433280199522
 30
0.0
 11
-6.861571107509107
 21
-1.662566719800466
 31
0.0
  0
ARC
  5
D49
330
17
100
AcDbEntity
  8
Z_OM_OUTLINE
100
AcDbCircle
 10
-5.564999999999997
 20
1.350000000000008
 30
0.0
 40
1.800000000000014
100
AcDbArc
 50
90.0
 51
190.0000000000009
  0
LINE
  5
D4A
330
17
100
AcDbEntity
  8
Z_OM_OUTLINE
100
AcDbLine
 10
5.564999999999997
 20
3.150000000000019
 30
0.0
 11
-5.564999999999997
 21
3.150000000000019
 31
0.0
  0
ARC
  5
D4B
330
17
100
AcDbEntity
  8
Z_OM_OUTLINE
100
AcDbCircle
 10
5.564999999999997
 20
1.350000000000008
 30
0.0
 40
1.800000000000011
100
AcDbArc
 50
349.9999999999981
 51
90.0
  0
LINE
  5
D4C
330
17
100
AcDbEntity
  8
Z_OM_OUTLINE
100
AcDbLine
 10
6.861571107509107
 20
-1.662566719800466
 30
0.0
 11
7.33765395542197
 21
1.037433280199522
 31
0.0
  0
ARC
  5
D4D
330
17
100
AcDbEntity
  8
Z_OM_OUTLINE
100
AcDbCircle
 10
5.088917152087148
 20
-1.34999999999998
 30
0.0
 40
1.800000000000011
100
AcDbArc
 50
270.0
 51
349.9999999999956
  0
LINE
  5
D4E
330
17
100
AcDbEntity
  8
Z_OM_OUTLINE
100
AcDbLine
 10
-5.088917152087134
 20
-3.149999999999991
 30
0.0
 11
5.088917152087134
 21
-3.149999999999991
 31
0.0
  0
ARC
  5
D4F
330
17
100
AcDbEntity
  8
Z_OM_OUTLINE
100
AcDbCircle
 10
5.088917152087148
 20
-1.34999999999998
 30
0.0
 40
2.600000000000008
100
AcDbArc
 50
270.0000000000008
 51
349.9999999999981
  0
LINE
  5
D50
330
17
100
AcDbEntity
  8
Z_OM_OUTLINE
100
AcDbLine
 10
7.649417309918874
 20
-1.801485261934018
 30
0.0
 11
8.125500157831737
 21
0.8985147380659839
 31
0.0
  0
ARC
  5
D51
330
17
100
AcDbEntity
  8
Z_OM_OUTLINE
100
AcDbCircle
 10
5.564999999999997
 20
1.350000000000008
 30
0.0
 40
2.600000000000008
100
AcDbArc
 50
349.9999999999998
 51
90.0
  0
LINE
  5
D52
330
17
100
AcDbEntity
  8
Z_OM_CENTER
100
AcDbLine
 10
12.49499999999999
 20
2.991898454783722
 30
0.0
 11
12.49499999999999
 21
-2.991898454783694
 31
0.0
  0
LINE
  5
D53
330
17
100
AcDbEntity
  8
Z_OM_CENTER
100
AcDbLine
 10
4.109999999999999
 20
-0.4823034620062288
 30
0.0
 11
4.109999999999999
 21
-2.35769653799376
 31
0.0
  0
LINE
  5
D54
330
17
100
AcDbEntity
  8
Z_OM_CENTER
100
AcDbLine
 10
1.36999999999999
 20
-0.4823034620062146
 30
0.0
 11
1.36999999999999
 21
-2.35769653799376
 31
0.0
  0
LINE
  5
D55
330
17
100
AcDbEntity
  8
Z_OM_CENTER
100
AcDbLine
 10
5.489999999999994
 20
2.357696537993774
 30
0.0
 11
5.489999999999994
 21
0.482303462006243
 31
0.0
  0
LINE
  5
D56
330
17
100
AcDbEntity
  8
Z_OM_CENTER
100
AcDbLine
 10
-5.088917152087134
 20
-1.419999999999987
 30
0.0
 11
5.088917152087148
 21
-1.419999999999987
 31
0.0
  0
LINE
  5
D57
330
17
100
AcDbEntity
  8
Z_OM_CENTER
100
AcDbLine
 10
-6.861571107509107
 20
1.420000000000015
 30
0.0
 11
6.861571107509107
 21
1.420000000000015
 31
0.0
  0
LINE
  5
D58
330
17
100
AcDbEntity
  8
Z_OM_CENTER
100
AcDbLine
 10
-5.489999999999994
 20
2.357696537993774
 30
0.0
 11
-5.489999999999994
 21
0.4823034620062288
 31
0.0
  0
LINE
  5
D59
330
17
100
AcDbEntity
  8
Z_OM_CENTER
100
AcDbLine
 10
-4.109999999999999
 20
-0.4823034620062288
 30
0.0
 11
-4.109999999999999
 21
-2.35769653799376
 31
0.0
  0
LINE
  5
D5A
330
17
100
AcDbEntity
  8
Z_OM_CENTER
100
AcDbLine
 10
-12.49499999999999
 20
2.991898454783722
 30
0.0
 11
-12.49499999999999
 21
-2.991898454783694
 31
0.0
  0
LINE
  5
D5B
330
17
100
AcDbEntity
  8
Z_OM_CENTER
 48
3.0
100
AcDbLine
 10
-17.4
 20
0.0
 30
0.0
 11
17.39999999999999
 21
0.0
 31
0.0
  0
LINE
  5
D5C
330
17
100
AcDbEntity
  8
Z_OM_CENTER
 48
3.0
100
AcDbLine
 10
0.0
 20
7.955771815983354
 30
0.0
 11
0.0
 21
-7.955771815983339
 31
0.0
  0
TEXT
  5
111E
330
17
100
AcDbEntity
  8
Z_OM_NOTE
100
AcDbText
 10
134.7239336801749
 20
-65.88539841646461
 30
0.0
 40
1.5
  1
(LAYERED DRAWINGS)
 41
1.08
100
AcDbText
  0
TEXT
  5
111F
330
17
100
AcDbEntity
  8
Z_OM_NOTE
100
AcDbText
 10
130.2817329096704
 20
-59.88539841646458
 30
0.0
 40
2.2
  1
OMRON Corporation
 41
1.08
100
AcDbText
  0
TEXT
  5
1120
330
17
100
AcDbEntity
  8
Z_OM_NOTE
100
AcDbText
 10
130.2817329096704
 20
-62.88539841646461
 30
0.0
 40
1.5
  1
CAD DRAWING No. XM3F_01
 41
1.08
100
AcDbText
  0
DIMENSION
  5
11B9
330
17
100
AcDbEntity
  8
Z_OM_DIM
100
AcDbDimension
  2
*D21
 10
77.55389400440055
 20
41.06216692632023
 30
0.0
 11
103.0954940044005
 21
41.06216692632023
 31
0.0
 70
   160
  3
STANDARD
100
AcDbAlignedDimension
 13
88.53389400440054
 23
57.38636236426674
 33
0.0
 14
77.55389400440055
 24
57.38636236426675
 34
0.0
 50
180.0
100
AcDbRotatedDimension
1001
ACAD
1000
DSTYLE
1002
{
1070
    47
1040
0.1
1070
    48
1040
0.1
1070
    71
1070
     1
1070
   284
1070
     8
1002
}
  0
LINE
  5
11BB
330
17
100
AcDbEntity
  8
Z_OM_CENTER
 48
3.0
100
AcDbLine
 10
83.04389400440042
 20
48.75476991316391
 30
0.0
 11
83.04389400440044
 21
71.09523397809827
 31
0.0
  0
LINE
  5
11BC
330
17
100
AcDbEntity
  8
Z_OM_PHANTOM
 48
5.0
100
AcDbLine
 10
98.44389400440046
 20
53.26091341121133
 30
0.0
 11
98.44389400440048
 21
65.76091341121133
 31
0.0
  0
LINE
  5
11C1
330
17
100
AcDbEntity
  8
Z_OM_PHANTOM
 48
5.0
100
AcDbLine
 10
67.64389400440049
 20
65.76091341121133
 30
0.0
 11
67.64389400440048
 21
53.26091341121134
 31
0.0
  0
DIMENSION
  5
11C2
330
17
100
AcDbEntity
  8
Z_OM_DIM
100
AcDbDimension
  2
*D22
 10
78.93389400440054
 20
74.81481429429942
 30
0.0
 11
104.6225922122412
 21
74.81481429429942
 31
0.0
 70
   160
  3
STANDARD
100
AcDbAlignedDimension
 13
87.15389400440054
 23
61.86582341524196
 33
0.0
 14
78.93389400440054
 24
61.86582341524196
 34
0.0
 50
180.0
100
AcDbRotatedDimension
1001
ACAD
1000
DSTYLE
1002
{
1070
    47
1040
0.1
1070
    48
1040
0.1
1070
    71
1070
     1
1070
   284
1070
     8
1002
}
  0
LINE
  5
11C5
330
17
100
AcDbEntity
  8
Z_OM_CENTER
 48
3.0
100
AcDbLine
 10
100.4438940044003
 20
59.51091341121133
 30
0.0
 11
65.64389400440052
 21
59.51091341121134
 31
0.0
  0
LINE
  5
11C6
330
17
100
AcDbEntity
  8
Z_OM_CENTER
100
AcDbLine
 10
89.58261976227957
 20
58.09091341121131
 30
0.0
 11
76.50516824652132
 21
58.09091341121133
 31
0.0
  0
LINE
  5
11C7
330
17
100
AcDbEntity
  8
Z_OM_CENTER
100
AcDbLine
 10
88.0020746669423
 20
60.93091341121132
 30
0.0
 11
78.08571334185856
 21
60.93091341121134
 31
0.0
  0
LINE
  5
11CA
330
17
100
AcDbEntity
  8
Z_OM_PHANTOM
 48
5.0
100
AcDbLine
 10
98.44389400440048
 20
65.76091341121133
 30
0.0
 11
67.64389400440049
 21
65.76091341121133
 31
0.0
  0
LINE
  5
11CD
330
17
100
AcDbEntity
  8
Z_OM_CENTER
100
AcDbLine
 10
95.53889400440054
 20
56.11145231425061
 30
0.0
 11
95.5388940044005
 21
62.91037450817203
 31
0.0
  0
LINE
  5
11D7
330
17
100
AcDbEntity
  8
Z_OM_CENTER
100
AcDbLine
 10
87.15389400440054
 20
59.99600340718069
 30
0.0
 11
87.15389400440054
 21
61.86582341524197
 31
0.0
  0
LINE
  5
11DD
330
17
100
AcDbEntity
  8
Z_OM_CENTER
100
AcDbLine
 10
84.41389400440053
 20
59.99600340718069
 30
0.0
 11
84.41389400440053
 21
61.86582341524197
 31
0.0
  0
LINE
  5
11DF
330
17
100
AcDbEntity
  8
Z_OM_CENTER
100
AcDbLine
 10
88.53389400440054
 20
57.38636236426675
 30
0.0
 11
88.53389400440054
 21
58.79546445815591
 31
0.0
  0
LINE
  5
11F8
330
17
100
AcDbEntity
  8
Z_OM_CENTER
100
AcDbLine
 10
78.93389400440054
 20
59.99600340718069
 30
0.0
 11
78.93389400440054
 21
61.86582341524197
 31
0.0
  0
LINE
  5
1204
330
17
100
AcDbEntity
  8
Z_OM_CENTER
100
AcDbLine
 10
77.55389400440055
 20
57.38636236426675
 30
0.0
 11
77.55389400440055
 21
58.79546445815593
 31
0.0
  0
LINE
  5
1206
330
17
100
AcDbEntity
  8
Z_OM_CENTER
100
AcDbLine
 10
70.5488940044005
 20
56.11145231425064
 30
0.0
 11
70.5488940044005
 21
62.84105441715286
 31
0.0
  0
LINE
  5
1208
330
17
100
AcDbEntity
  8
Z_OM_PHANTOM
 48
5.0
100
AcDbLine
 10
67.64389400440048
 20
53.26091341121134
 30
0.0
 11
98.44389400440046
 21
53.26091341121133
 31
0.0
  0
CIRCLE
  5
12B1
330
17
100
AcDbEntity
  8
Z_OM_MOUNT
100
AcDbCircle
 10
70.5488940044005
 20
59.51091341121134
 30
0.0
 40
1.6
  0
CIRCLE
  5
12B8
330
17
100
AcDbEntity
  8
Z_OM_MOUNT
100
AcDbCircle
 10
95.5388940044005
 20
59.51091341121127
 30
0.0
 40
1.6
  0
CIRCLE
  5
12B9
330
17
100
AcDbEntity
  8
Z_OM_MOUNT
100
AcDbCircle
 10
78.93389400440054
 20
60.93091341121134
 30
0.0
 40
0.5
  0
CIRCLE
  5
12C0
330
17
100
AcDbEntity
  8
Z_OM_MOUNT
100
AcDbCircle
 10
81.67389400440054
 20
60.93091341121134
 30
0.0
 40
0.5
  0
CIRCLE
  5
12C6
330
17
100
AcDbEntity
  8
Z_OM_MOUNT
100
AcDbCircle
 10
84.41389400440053
 20
60.93091341121134
 30
0.0
 40
0.5
  0
CIRCLE
  5
12CC
330
17
100
AcDbEntity
  8
Z_OM_MOUNT
100
AcDbCircle
 10
87.15389400440052
 20
60.93091341121134
 30
0.0
 40
0.5
  0
CIRCLE
  5
12D2
330
17
100
AcDbEntity
  8
Z_OM_MOUNT
100
AcDbCircle
 10
77.55389400440053
 20
58.09091341121135
 30
0.0
 40
0.5
  0
CIRCLE
  5
12D8
330
17
100
AcDbEntity
  8
Z_OM_MOUNT
100
AcDbCircle
 10
80.30389400440054
 20
58.09091341121133
 30
0.0
 40
0.5
  0
CIRCLE
  5
12DE
330
17
100
AcDbEntity
  8
Z_OM_MOUNT
100
AcDbCircle
 10
83.04389400440053
 20
58.09091341121133
 30
0.0
 40
0.5
  0
CIRCLE
  5
12E4
330
17
100
AcDbEntity
  8
Z_OM_MOUNT
100
AcDbCircle
 10
85.78389400440054
 20
58.09091341121133
 30
0.0
 40
0.5
  0
CIRCLE
  5
12EA
330
17
100
AcDbEntity
  8
Z_OM_MOUNT
100
AcDbCircle
 10
88.53389400440054
 20
58.09091341121133
 30
0.0
 40
0.5
  0
LINE
  5
12F1
330
17
100
AcDbEntity
  8
Z_OM_CENTER
100
AcDbLine
 10
81.67389400440054
 20
59.99600340718069
 30
0.0
 11
81.67389400440054
 21
61.86582341524197
 31
0.0
  0
LINE
  5
12F7
330
17
100
AcDbEntity
  8
Z_OM_CENTER
100
AcDbLine
 10
80.30389400440054
 20
57.15600340718069
 30
0.0
 11
80.30389400440054
 21
59.02582341524198
 31
0.0
  0
LINE
  5
12FD
330
17
100
AcDbEntity
  8
Z_OM_CENTER
100
AcDbLine
 10
85.78389400440054
 20
57.15600340718069
 30
0.0
 11
85.78389400440054
 21
59.02582341524198
 31
0.0
  0
DIMENSION
  5
12FE
330
17
100
AcDbEntity
  8
Z_OM_DIM
100
AcDbDimension
  2
*D23
 10
77.55389400440055
 20
70.26758893976278
 30
0.0
 11
62.49365852870543
 21
70.26758893976278
 31
0.0
 70
   160
  1
(<>)
  3
STANDARD
100
AcDbAlignedDimension
 13
78.93389400440054
 23
61.86582341524196
 33
0.0
 14
77.55389400440055
 24
58.79546445815593
 34
0.0
100
AcDbRotatedDimension
1001
ACAD
1000
DSTYLE
1002
{
1070
     6
1000
DOTSMALL
1070
     5
1000

1070
   173
1070
     1
1070
     7
1000
OPEN30
1002
}
  0
DIMENSION
  5
130D
330
17
100
AcDbEntity
  8
Z_OM_DIM
100
AcDbDimension
  2
*D24
 10
81.67389400440054
 20
70.26758893976278
 30
0.0
 11
104.8268517225476
 21
70.26758893976278
 31
0.0
 70
   160
  3
STANDARD
100
AcDbAlignedDimension
 13
78.93389400440054
 23
61.86582341524196
 33
0.0
 14
81.67389400440054
 24
61.86582341524196
 34
0.0
100
AcDbRotatedDimension
1001
ACAD
1000
DSTYLE
1002
{
1070
     6
1000
DOTSMALL
1070
     5
1000

1070
   173
1070
     1
1070
     7
1000
OPEN30
1070
    47
1040
0.1
1070
    48
1040
0.1
1070
    71
1070
     1
1070
   284
1070
     8
1002
}
  0
DIMENSION
  5
131C
330
17
100
AcDbEntity
  8
Z_OM_DIM
100
AcDbDimension
  2
*D25
 10
95.5388940044005
 20
79.98546883025063
 30
0.0
 11
83.04389400440049
 21
79.98546883025063
 31
0.0
 70
   160
  3
STANDARD
100
AcDbAlignedDimension
 13
70.5488940044005
 23
62.84105441715286
 33
0.0
 14
95.5388940044005
 24
62.91037450817203
 34
0.0
100
AcDbRotatedDimension
1001
ACAD
1000
DSTYLE
1002
{
1070
    47
1040
0.1
1070
    48
1040
0.1
1070
    71
1070
     1
1070
   284
1070
     8
1002
}
  0
DIMENSION
  5
1338
330
17
100
AcDbEntity
  8
Z_OM_DIM
100
AcDbDimension
  2
*D26
 10
61.55765170644466
 20
58.09091341121133
 30
0.0
 11
59.65765170644464
 21
47.72691341121134
 31
0.0
 70
    32
  3
STANDARD
100
AcDbAlignedDimension
 13
78.08571334185856
 23
60.93091341121134
 33
0.0
 14
76.50516824652132
 24
58.09091341121133
 34
0.0
 50
90.0
100
AcDbRotatedDimension
  0
DIMENSION
  5
141B
330
17
100
AcDbEntity
  8
Z_OM_DIM
100
AcDbDimension
  2
*D27
 10
94.02075341427339
 20
60.01613529178303
 30
0.0
 11
112.5644611875289
 21
53.84497632606987
 31
0.0
 70
   163
  1
2-<>
  3
STANDARD
100
AcDbDiametricDimension
 15
97.05703459452768
 25
59.00569153063963
 35
0.0
 40
0.0
1001
ACAD
1000
DSTYLE
1002
{
1070
    47
1040
0.1
1070
    48
1040
0.1
1070
    71
1070
     1
1070
   284
1070
     8
1002
}
  0
LEADER
  5
1466
330
17
100
AcDbEntity
  8
Z_OM_DIM
100
AcDbLeader
  3
STANDARD
 73
     0
 74
     0
 75
     1
 40
2.2
 41
14.652
 76
     3
 10
88.90754216061715
 20
57.75866793666589
 30
0.0
 10
92.67149312014661
 20
45.69356825428741
 30
0.0
 10
95.67149312014661
 20
45.69356825428741
 30
0.0
340
1467
1001
ACAD
1000
DSTYLE
1002
{
1070
     5
1000
OPEN30
1070
    77
1070
     1
1070
   147
1040
0.8
1002
}
1000
LEANOF
1010
0.0
1020
0.0
1030
0.0
  0
MTEXT
  5
1467
330
17
100
AcDbEntity
  8
Z_OM_DIM
100
AcDbMText
 10
96.47149312014661
 20
46.49356825428741
 30
0.0
 40
2.2
 41
20.40999999999999
 71
     7
 72
     1
  1
9-%%c1%%P0.1
1001
ACAD
1000
MTEXTBEGIN
1070
    73
1070
     1
1070
    44
1040
1.0
1070
    74
1070
     0
1000
MTEXTEND
  0
MTEXT
  5
1478
330
17
100
AcDbEntity
  8
Z_OM_NOTE
100
AcDbMText
 10
65.65470609179801
 20
27.47469195402257
 30
0.0
 40
3.299999999999999
 41
61.32
 71
     7
 72
     1
  1
PCB PAD LAYOUT\P(BOTTOM VIEW)
1001
ACAD
1000
MTEXTBEGIN
1070
    73
1070
     1
1070
    44
1040
1.0
1070
    74
1070
     0
1000
MTEXTEND
  0
DIMENSION
  5
15C2
330
17
100
AcDbEntity
  8
Z_OM_DIM
100
AcDbDimension
  2
*D28
 10
-22.28261799790334
 20
-34.67358181223907
 30
0.0
 11
-22.28261799790333
 21
-23.72974947642465
 31
0.0
 70
   160
  3
STANDARD
100
AcDbAlignedDimension
 13
-15.39999999999999
 23
-34.97358181223903
 33
0.0
 14
-14.74499999999999
 24
-34.67358181223907
 34
0.0
 50
90.0
100
AcDbRotatedDimension
1001
ACAD
1000
DSTYLE
1002
{
1070
   173
1070
     1
1070
     5
1000

1070
     6
1000
DOTSMALL
1070
     7
1000
OPEN30
1002
}
  0
ENDSEC
  0
SECTION
  2
OBJECTS
  0
DICTIONARY
  5
C
330
0
100
AcDbDictionary
  3
ACAD_GROUP
350
D
  3
ACAD_LAYOUT
350
956
  3
ACAD_MLINESTYLE
350
1A
  3
ACAD_PLOTSETTINGS
350
957
  3
ACADDIM
350
98C
1001
ACAD
1000
TREAT_AS_HARD
1070
     0
  0
DICTIONARY
  5
16AC
330
17
100
AcDbDictionary
  3
ACAD_LAYOUTSELFREF
350
16AD
  0
DICTIONARY
  5
16AA
330
14
100
AcDbDictionary
  3
ACAD_LAYOUTSELFREF
350
16AB
  0
DICTIONARY
  5
D
102
{ACAD_REACTORS
330
C
102
}
330
C
100
AcDbDictionary
1001
ACAD
1000
TREAT_AS_HARD
1070
     0
  0
DICTIONARY
  5
956
102
{ACAD_REACTORS
330
C
102
}
330
C
100
AcDbDictionary
1001
ACAD
1000
TREAT_AS_HARD
1070
     0
  0
DICTIONARY
  5
1A
102
{ACAD_REACTORS
330
C
102
}
330
C
100
AcDbDictionary
  3
STANDARD
350
1B
1001
ACAD
1000
TREAT_AS_HARD
1070
     0
  0
DICTIONARY
  5
957
102
{ACAD_REACTORS
330
C
102
}
330
C
100
AcDbDictionary
1001
ACAD
1000
TREAT_AS_HARD
1070
     0
  0
XRECORD
  5
98C
102
{ACAD_REACTORS
330
C
102
}
330
C
100
AcDbXrecord
 90
   990106
  3

 60
     0
 61
     0
 62
     4
 63
     4
 64
     1
 65
     0
 66
     0
 67
     2
 68
     1
 69
     0
 70
     0
 71
     0
 72
     0
 40
20.40829860359599
170
     2
340
1467
  0
XRECORD
  5
16AD
102
{ACAD_REACTORS
330
16AC
102
}
330
16AC
100
AcDbXrecord
340
17
  0
XRECORD
  5
16AB
102
{ACAD_REACTORS
330
16AA
102
}
330
16AA
100
AcDbXrecord
340
14
  0
MLINESTYLE
  5
1B
102
{ACAD_REACTORS
330
1A
102
}
330
1A
100
AcDbMlineStyle
  2
STANDARD
 70
     0
  3

 62
   256
 51
90.0
 52
90.0
 71
     2
 49
0.5
 62
   256
  6
BYLAYER
 49
-0.5
 62
   256
  6
BYLAYER
  0
ENDSEC
  0
EOF
